/* XPM */
static char *w1_xpm[] = {
/* width height num_colors chars_per_pixel */
"    48    73      256            2",
/* colors */
"`` c #060406",
"`. c #068b80",
"`# c #872117",
"`a c #074646",
"`b c #9c8418",
"`c c #dcc416",
"`d c #470f17",
"`e c #c8882c",
"`f c #8a4c35",
"`g c #082928",
"`h c #514514",
"`i c #ce9a7e",
"`j c #99c3c9",
"`k c #482b1d",
"`l c #cc4a64",
"`m c #d5ae16",
"`n c #280b0c",
"`o c #905478",
"`p c #b7361c",
"`q c #878789",
"`r c #5c723c",
"`s c #faca89",
"`t c #8c6a17",
"`u c #682e54",
"`v c #2a2517",
"`w c #8a2f1d",
"`x c #672b1c",
"`y c #fce698",
"`z c #7c8224",
"`A c #086752",
"`B c #8ba6b3",
"`C c #4b4d61",
"`D c #44165c",
"`E c #e68a53",
"`F c #fbe808",
"`G c #eab618",
"`H c #8d2d91",
"`I c #05a190",
"`J c #28160f",
"`K c #a84a2e",
"`L c #641214",
"`M c #09171b",
"`N c #6c4910",
"`O c #102b41",
"`P c #a2311a",
"`Q c #d8ab84",
"`R c #523a18",
"`S c #394741",
"`T c #c86e48",
"`U c #d2d4dc",
"`V c #a9a9a8",
"`W c #e9a665",
"`X c #461c19",
"`Y c #d1e4e9",
"`Z c #ca8558",
"`0 c #2a3639",
"`1 c #fac45c",
"`2 c #683a23",
"`3 c #a46a24",
"`4 c #ebb569",
"`5 c #08594c",
"`6 c #8c3054",
"`7 c #f0edf1",
"`8 c #e6aa84",
".` c #885b3e",
".. c #496674",
".# c #3c6a68",
".a c #06b09b",
".b c #c99861",
".c c #a4aa34",
".d c #30172b",
".e c #ee6d94",
".f c #6d5917",
".g c #17080a",
".h c #083533",
".i c #320c3f",
".j c #b88c74",
".k c #07766a",
".l c #059687",
".m c #1a1417",
".n c #abaeb8",
".o c #a95e42",
".p c #fba7c4",
".q c #908444",
".r c #f5c813",
".s c #592b20",
".t c #fcd68f",
".u c #893d2a",
".v c #4a1a4d",
".w c #686b6e",
".x c #370916",
".y c #371816",
".z c #e7985f",
".A c #880e98",
".B c #8c8cac",
".C c #742a39",
".D c #05a796",
".E c #2a2a2f",
".F c #ece644",
".G c #494a4e",
".H c #fbf508",
".I c #fada0a",
".J c #19272d",
".K c #f7a96b",
".L c #a9b8c6",
".M c #581e1a",
".N c #782b1b",
".O c #0b393f",
".P c #513a31",
".Q c #a77b21",
".R c #bc226c",
".S c #e8b782",
".T c #5e8798",
".U c #096761",
".V c #645c6c",
".W c #e07b4a",
".X c #07575d",
".Y c #181b1f",
".Z c #b7c3b1",
".0 c #d7ab70",
".1 c #8f6a4b",
".2 c #6e1e14",
".3 c #f9c5d9",
".4 c #fafdfb",
".5 c #6f7a85",
".6 c #449ec4",
".7 c #e2f7f9",
".8 c #d9975c",
"#` c #bf3771",
"#. c #847a7c",
"## c #da518a",
"#a c #f989a6",
"#b c #c4a2d4",
"#c c #6f1671",
"#d c #8a2186",
"#e c #a16fb6",
"#f c #f260a1",
"#g c #ac5674",
"#h c #6c9fb1",
"#i c #a82418",
"#j c #b0855b",
"#k c #ac2e64",
"#l c #bfd4dc",
"#m c #37586c",
"#n c #f89698",
"#o c #a82268",
"#p c #a86674",
"#q c #c85d48",
"#r c #d63c83",
"#s c #c99729",
"#t c #703e88",
"#u c #a99c9e",
"#v c #748794",
"#w c #939793",
"#x c #96b5c2",
"#y c #776619",
"#z c #f379a6",
"#A c #d4b8d4",
"#B c #b1871b",
"#C c #c77a4e",
"#D c #4d0e45",
"#E c #6b5543",
"#F c #8a174e",
"#G c #744e94",
"#H c #ccda34",
"#I c #52788a",
"#J c #7c1a98",
"#K c #8c4eac",
"#L c #d42e8c",
"#M c #b4b644",
"#N c #fcbacf",
"#O c #a86d48",
"#P c #9f3e3c",
"#Q c #9c1254",
"#R c #9f23a7",
"#S c #d5bb13",
"#T c #535552",
"#U c #bcb680",
"#V c #a732a7",
"#W c #fa9cbe",
"#X c #fcd57c",
"#Y c #924e58",
"#Z c #b0c2c8",
"#0 c #8b9bb1",
"#1 c #8a3f46",
"#2 c #78763c",
"#3 c #b37b53",
"#4 c #977553",
"#5 c #7a297c",
"#6 c #ad4f50",
"#7 c #660e3c",
"#8 c #674633",
"a` c #2c7094",
"a. c #7c1644",
"a# c #515a62",
"aa c #979347",
"ab c #e26096",
"ac c #b83aa0",
"ad c #d8dce2",
"ae c #184746",
"af c #d88244",
"ag c #fcaa94",
"ah c #9a5d3b",
"ai c #596577",
"aj c #cc7a74",
"ak c #59510f",
"al c #a53d23",
"am c #374b5e",
"an c #769198",
"ao c #987408",
"ap c #f169af",
"aq c #8921a4",
"ar c #581214",
"as c #958b8b",
"at c #373a3f",
"au c #b65f3e",
"av c #766d6e",
"aw c #f79b67",
"ax c #153c45",
"ay c #b69160",
"az c #d7992c",
"aA c #783a2b",
"aB c #71216c",
"aC c #e4d204",
"aD c #8c37a9",
"aE c #b6901a",
"aF c #8c2654",
"aG c #78aab8",
"aH c #984c31",
"aI c #9aa7ae",
"aJ c #d98758",
"aK c #b7a734",
"aL c #584742",
"aM c #fc87bf",
"aN c #785741",
"aO c #b86b45",
"aP c #193527",
"aQ c #b6bbc5",
"aR c #a4922c",
"aS c #9c7664",
"aT c #fcea7c",
"aU c #372513",
"aV c #5c1a69",
"aW c #b64e30",
"aX c #e2e8eb",
"aY c #f8b870",
"aZ c #9c169c",
"a0 c #fabb7f",
"a1 c #165764",
"a2 c #c1c9d1",
"a3 c #7c0c44",
"a4 c #774830",
"a5 c #fad4e4",
"a6 c #989eae",
"a7 c #7c623c",
"a8 c #fac67b",
/* pixels */
".E.JaP.J.J.J.J.J.J.J.J.J.J.J.J.J.J.J.J.J.E.J.J.J.Y.J.J.J.J`O.J.J.J`g.J`O.J.J.J.J.J.J.J.J.J.J.J.Y",
".h`..l`..l`..l`.`..l`..l`.`.`..l`..l`.`.`.`.`.`.`.`.`.`..l.l.l.l.l.l.l.l.l.l.l`..l`..l`.`.`..la1",
"ae.D.D.D`I.D`I.D`I.D`I`I.D.D`I`I`I`I`I`I`I`I`I`I`I`I.D.D`I.D.D.D`I`I`I`I`I`I`I`I`I`I`I`I`I`I`I.k",
"`a.l`I`I`I`I`I`I`I.l`I`I.l`I`I`I`I.l`I.D.D.D.D.a.D.a.D`I`I.l`I`I`I`I`I`I`I`I`I`I.l`I.l.l`I.l`I.U",
"ae`I`I`I`I`I`I`I`I`I`I`I`I`I`I`I`I`I`I`..k.X`a`a`a.X.k`..D.a`I`I`I`I`I`I`I`I`I`I`I`I`I`I`I`I`I.U",
"`a`I`I`I`I`I`I`I`I`I`I.D`I`I`I`I`I.U`O`M`v`Rak.fak`R.Y`M`g.X`I.D`I`I`I`I`I`I`I`I`I`I`I`I`I`I`I.U",
"ax`I`I`I`I`I`I`I`I`I`I`I`I`I`I.k`M.Y`t`m`F`F.H.H.H.H.I`m`t`v`M.k`I.D`I`I`I`I`I`I`I`I`I`I`I.l.D.U",
".O`I`I`I`I`I`I`I`I`I`I.l`I`I.X.gao.I.H`F`F`F.H`F`F`F.H.H.H`F`b.g`a.D`I`I`I`I`I`I.l`I`I.l`I`I.D.U",
".O`I`I`I`I`I`I`I`I`I`I`I.D.O`k`c.H`F`F`F.H.H.IaC.I`F.H`F`F`F.H`c`R`g`I.D`I`I`I`I`I`I`I`I`I`I`I.U",
".O`I`I`I`I`I.l.D`I`I`I.D.h`N.I.H`F`F.H`F#SaK`V.Z#Uay#S`F.H.H`F.H`F`h`g`I`I`I`I`I`I`I`I`I`I`I.D.U",
"`a`I`I`I`I`I`I`I.l`I.D.h`N`F`F.I`F`FaR.1aQ`7`7#ead`7#uaNaE.H.H.H.H`F`2.h`I`I`I`I`I`I`I`I`I`I.D.k",
"ax.l`I`I`I`I`I`I.D.a`a`R`F`F.I`F`c#E`HaD`7.4#e.A#e.4`7aD#J.P#S.H`F`F`F`R.h.D`I`I`I`I`I`I`I`I.D.U",
"`a`I`I`I`I`I`I`I.D`5aU.I`F.I`F`c`q#GacaZ#e#baqaDaq#A#e#Raq#Kas#S.H`F`FaCaU.X`I`I`I`I`I`I`I`I.D.U",
"ax`I`I`I`I`I.l.a.k.m`m`F.I`F`F#S`V`U#5ac#V#Vaq#G#R#Vaq#R#5`7#u#S.H`F`F`F#S.m.k.D`I`I`I`I`I`I.D.U",
".O.l`I`I`I`I`I.l`M`b`F`F.I`F`F`FaR.4.B#d#V#d#GaX#G#J#R#JaQad`b`F`F.I`F.I`F`b`M.l`I`I`I`I`I`I.D.U",
".O`I`I`I`I`I.D.h`N.I.I.I`F.I.I.H#S`V.4#taZ#tad.4`UaV.A`o.4as#S`F`F.I`F`F.I`F`R`a.D`I`I`I`I`I.D.U",
"ax`I`I`I`I.D.k.m#S.I.I.I.I.I.I.I`F.q`7#b.x.wa2.n`U.V`naQaXaR.H.I.I.I.I.I.I`F`m.m.k.D`I`I`I`I`I.U",
".O.l`I`I`I`I`g`t`F.I.I.I.I.I.I.I`m`Na#.5.w.B#w`V`VaIavav`C.f`m.I.I.r.I.r.I.I.I#y`g.a`I`I.l`I`I.U",
".O`I`I`I.D`A`v.r.r.r.r.r.r.raE`NaLa6aX.4.4.4.4.4.4.4.4.4aX#u.P`RaE.r.r.r.r.r.I#S.Y.U`I`I`I`I`I.U",
".O.l`I`I`I`gao.r.r`G`G`G#s.fa7a2.4.4aQ`qa#at.E.J.Eat.V`qaQ`7.4a2#T.saE`G`G`G.r.I.f`g`I`I`I.l`I.U",
".O`I`I.D.k`J#S.r`G`maz`t`h#Z.4aQa#.m```````````````````````M.V#Z.7.n`k`N`e`m`m.raK.g`.`I`I.l`I.U",
".h.l.D.D.h`N.r`maz#B`Na##l`VaP``````.g`n`J.x.x`n`J.y.y.d.g``````aP`B#l.G`R.Qaz`m`G`R`a.D`I.l`I.U",
".h`I.D`I`g.Q`GaE`3`Ra7.n`0````.g.x`X.M`x.N`f.u.u.u`w.2`x.2`d.y```````0#x.GaU`3.Q`m#y`g`I`I`I`I.U",
"`O`I.a.k.YaE#B`3aUa##v````````.yaA`waH#CaJ`T`T#C`T`K#qaW`K.u`n````````.g#v`S`k`taE#B`M`..D`I`I.U",
"ax.l.a.k`vaR`t`2`ka#`````````````kaJ.z#C.8`W#CaO`Z`W`E`T#3`J``````````````ai`v.s`t#B.m`.`I`I`I.X",
"`g`I.a.U`J`t.f.gat````````````````aN`saY#3aY`s`4#XaYaz`8.d````````````````.g`v`J`R`t`J.k.D`I`I.O",
"`M`..a.k`Ma7`k.g```J`X`d.y.g````````ay`y`W.b.t`1`s#s`s#E`````````nar`d`X`X`J``.gaUak.m`.`I`I.UaU",
"`n.U.a`..Y`R.Y``.g`x`#`#`w`w`2.d````aU.t.t#3`s`y.8.8.j``````.P#Y#P.u`w`#`x`w.m``aU`k`M`.`I`.#T.1",
".P`S.D`I`g`J`v```x.2`w`p#6aj#p.P.m````aN`Q.s.0aTaSaNaU````at.w#.ay.jau#P.N`#`x```v.y.h.D.D.Xay#4",
"a7#4`A.a`A`M.g`Xal`#`##P`i#T#m#0.5.Y````.m```QaTaS```````Sa6`Ban#m`q`8#6`w.u`#.x.g.g.k.a`.at.t#4",
"#E.Sae`I.D`A.g.Nal.N`#`Z.Vai.7.4.7aI`M`````va8#X.b````.J`Y.4.4.4`Uam`q`Z`w.ual`#.g`5.l`I.O#j`y.`",
"#8.t.``A.a.k.2.NaW`##PaS#m.4.4.4.4.4.n````aL#X`4`4.m```V.4.4.4.4.4#lam#j`w`w.u`#`L`A.a.k`2.t`s`2",
".P`s.S`v.l`a`w.M`K`w.uaL#x.4.4.4.4.4.4a6``.1#X#s#XaU`S.4.4.4.4.4.4.4.TaN.ualaH`X#iaP`I`0`i.t`Z`J",
".y.0`y.1.h.J`P`d.ualaA.Pad.4.4.4.4aX`U.4#T.1`4aH#X.P`q.4#ZaX.4.4.4.4#xat`#`KaA.x`p`d`g.`.t.K`x`X",
".gah.ta0`v`n`p`n`Xau.MataX.4.4.4.7#m.O`Bas`v`fa4`f.y`V#v.O#I.7.4.4.4.L.Eal.o.y.x`par.g`Q`s#O`xaA",
"`n.s`4#X#O`n.N.y.saH.2.J`Y.4.4.4ad`Oa1#I.n.g.1#j`R.g#Z#m.6a`ad.4.4.4#x.m`f`x`x`n`#ar#E`saY`X`K`2",
"`X.xah#XaY.s.g.`ajaha4.gaI.4.4.4.7#Iax#l#w`n#1#1#1`n#x`ja`#h.4.4.4.7a#.P#C#OaJ`f`n.2.8a8.`.xaW`2",
".s.2`n.b#Xa4`n`Z.0`4a0`2.E`Y.4.4.4.7.7a2`J#p.pag#n#Y`XaX.4.4.4.4.4`B.m#O`W`i.baJ.y.ua8ah`n.u`K`N",
".M`w`k.g`Z.``RaY`s`s`s`8.d`Oan.LaIan`B.E#P.p#N#N#W#aaFam#wan#wan#T.g#8`s.t#X`s.K.s.P`f``.``w`3a4",
"`k`w#C`J```J.saY.K`s.t.ta0ahat.P.m`n.g.y.e#W.3.3.p#a##`v`J.x.g`ha4aS.t.t.ta8aYagaU````.yaf.2`Ta4",
"`k.NaJ`f`````J`8a8a0aS.t.t`y`s#1#g.p#Y`d#z#Na5a5.paMab`J#paM#ga4.t`y`y`sa7.S`say``````.``T.2.z.P",
".d.2#C#3.g````aN.taN```i.t.t.j#1.p#W#z.C#zaga5a5.p#aab`u#zapaMaB#j.t`y`i``aL`s.P``````afaW.u`i.g",
"aU.s`3.z.y````.g.P````aLa0aga4aFapapap#`.e#W#N.3#W#zab###f#f#faFaNag#n.P``.g.P```````J`EaW`3a7.J",
".Y`Xau`W.2.y````````````#3#CaL#7.R#L#L#r.e#a#W.p#n#z#f#r#r#r.R#7.d`l#Y`````````````X`Xaw`T`2#vat",
"`O#8af`4`x`2`J``````````.P.`.g.xa3a3#Q.R###z#a#naM.e##.R#oa3aV.g```6`k``````````.y`2.saY#3aU#l.#",
"amav`WaY`2.saA````at.Y````.m`````n.i.x#F#L#f#z#z.eab#raF.x.x.g`````M````.J.E````aH.MaAaY`W.P#x.#",
".Ja7`1`1.o`Xau`n.J`B..`````````````````d.R#rab#fab###k`d````````````````.T#I.m`2`T`Xaha0a0aha`ae",
"`MaN`1`1af.y`TaH`k#Ia6`O`````M`v````a#.ia3.R#r`l#r#`#F.dam``.mat``````amaG#maNau#q`n`Za8a0.o`5a1",
"`Oat`E`1`E.y#3`T`f`S#x.5````#.aI`Ca##x`C.x#Q.R.R.R#k.i.G#0am.5.L`C``.g#h#hat#3`Tau.y.8.Kaw.s`.a1",
"aea1`X`3aH.g.oafaJaU#I#x.Yai.LaQ.L.La2#0.E.x#7a3#7.x.J#0.La6#l.7`Uam#m`j#m`S.z.W`f`nauau`x`g`I.X",
".O`I.U`g.J``a4.z.z.``M.T#v#Za2aXa2a2.4a2an`C`v`M.Y`C`BaQaX.LaX.4.4#laG#I``#3.8.W`R``.J.Y`a`..D.X",
".O`I.D`I`I`a.saw.z`i.g``at.B`Y.4`7`U.4.4aX#x.B..`B.L#l.4.4aQ.4.4aXan`0``.m.SafaJ.x`5.l.l`I`I.D.U",
"ax`I`I.l`I.O`naJ`Ea0.P``````.Ya#.w.5adadaX#l#0.w#Z#laXaXadai.5.G.Y``````#8a8af#3`naP`I`I.l`I`I.X",
"ax`I`I`I.k`X`n#3aJa0#p````````````````.m.Y.J.Y`M.Y.E.Y.Y````````````````ayaYaJ.``d.M`5`I`I.l.D.U",
".O.l`I`I`a#i`n.u`EaY`i````````````````````````````````````````````````.m.S.z.z`k`dal`v`.`I`I`I.X",
".h`I.D.k`x`P`n`X`E`W`s.y`M`M``````````````````````````````````````.E.Y.P`y.8af`v.xal.u`a.D`I.D.X",
"`O.l`.`Sal.2`d`n`Taw.t.P#.`U.G.Y`C.E```0.E.m``````.m.m`````Sat.man.4aiaN.t`E.o``.2.2aW`x.U.D.D.U",
"ax.l.k`x.2.2`L.gaH.z`yaN#..4.n`U.4`7a6.4`7`7`U#waXaX`7a2a6.4.4.n#l.4.V#O.taJa4.g.N.N`x.N.h`I.D`5",
"ax.l`.`v.2`w.2.g`xaw.t#4av.4#waX.4`7.Z.4.4.4.4`U.4.4.4.4.Z.4.4.n.n.7at.8.t.W.s.g.2al`XaP.k.D.D`5",
"ax.l`..E`w`w.2.gaA.z.t`8`k#u`qad.4`7.n.4.4.4`7#u.4.4.4.4.n.4.4a6`B#.`2`s`s`E.s.y.2`P`w.h.D.D.D`A",
"ax`I`.`kal`war`naO.za8`y.b`2`kavaQ#.#T.nasav#T.Pa##.asas#T#u#waLaL.1a0.ta8`EaO`n.N`#aW`v`..D.a`5",
"ax.l.k.M`P.2`n`X.Kaw`W`s`y.t`8.b#j#j#jay.b.0a8`s.S.0.bay#j#jay.0.S`y.ta8.K.Kaw`X.M.Nal`k.k.a.D`A",
"ax`I.k.2`#.y```2aYaYaw`WaY`s.t.taT.t`y#X.t.t#X#X#X.taT`y`y`yaT`y#Xa8`4aw.KaYaw`2.g.2`w`2`A.a.D`A",
"ax`I.k.M.y`5`Ma4.KaYa8.K.z.z.8.8`W`W`W`4aY#XaY`ZaYa0`4`4`W`W.8.8`E.zawaYa0.K.K`x`M.E.x`k.k.a.D`A",
".O.l.l.h`A.l.X`X.zaYa0a0a0aY`4`W`4aY`s#X#X.t`s#Oa8#X`sa8a8aY`W`W.KaYa8a0aY.K`T.d.k`.`a.h`.`I.a`A",
"ax.l`I.l.l.l`.`gaA`TawaYa0a8a0a8#X#X#X`s.t#X`saha8.t`s.t`s#X.t`sa8a0.Kaw`Eau.y`M.l`I`I.l`I`I`I`A",
".h`I`I.l.l`.`I`5``.y.N#6`TaJawa8`s`s.t#X`s.t`s`fa0`s`s`s`s`s`sa8.z.WauaH`x.g```g`..l`I.l`I`I.D`A",
"aP.l.l`I.l`I`A.g.x``````.g.g#1a0`s`s`s#X`s#Xa0aA`8`s`s`s`s`sa8a0aA`n`n````.g.i```5.k`I.D`I.l.a`A",
".O`I.l`I`I`5```d#D.i````.g``.y`E.Ka8a8`sa8a8`Z`J#3a8a0a8a8a8a0aJ.y````````#DaV#D.g`r`5`..a`I`I`A",
".O.l`I.l`5aU`XaB#J#D``.x.u`X``aH.WawawawawaJ.P```Xafaw.K.K.K.8`f``.y.C.g.gaV#caZ.d`zaKaP`A.a`I`A",
".h`I.l`5#2`RaB#d#5aV```k#qaW.y.g.u#6`TaOaH.y```````JaAau`T#6aA.g.y#6#6.y.x#d#d#5aVat#H.c`v`A.a`A",
".O`.aeaaaa.x#R`H`H`H.i.Paw.W#6`X.g`n`n.g``````````````.g`n.g```d#6`l#6`naVaD#d#5#d.d#M.F.caP.k`A",
"`g`MaU`z.P#D#D#D#D.v.i.x.o#6#1.C`X````.g.g.y.M.s.M.y`n.g``.g.y.C#1#1#1.i.v.v.v.v`D.d.G`z#y`h`g`g"
};
