/* XPM */
static char *w10_xpm[] = {
/* width height num_colors chars_per_pixel */
"    48    73      256            2",
/* colors */
"`` c #050305",
"`. c #08897d",
"`# c #8c2a1b",
"`a c #064947",
"`b c #9e8920",
"`c c #ddc811",
"`d c #481216",
"`e c #894e24",
"`f c #c48e14",
"`g c #06262c",
"`h c #d29774",
"`i c #c4563c",
"`j c #58440c",
"`k c #5f1a6f",
"`l c #bfc8cd",
"`m c #472b1d",
"`n c #260c10",
"`o c #844a8c",
"`p c #c9a714",
"`q c #936f10",
"`r c #586638",
"`s c #682d25",
"`t c #c44624",
"`u c #fce59b",
"`v c #2a251e",
"`w c #8717a7",
"`x c #0a645d",
"`y c #281614",
"`z c #e68a52",
"`A c #484852",
"`B c #8a888d",
"`C c #09181b",
"`D c #44926c",
"`E c #fae807",
"`F c #661815",
"`G c #a94f33",
"`H c #fbca87",
"`I c #a47617",
"`J c #d0a87a",
"`K c #04a08f",
"`L c #e6b31e",
"`M c #923622",
"`N c #663b1c",
"`O c #293327",
"`P c #cc6c42",
"`Q c #442a34",
"`R c #fbc778",
"`S c #281b2b",
"`T c #f2a978",
"`U c #644911",
"`V c #481e1a",
"`W c #c98852",
"`X c #2f6662",
"`Y c #3c4230",
"`Z c #463724",
"`0 c #083737",
"`1 c #94a5ac",
"`2 c #e9a767",
"`3 c #586c5c",
"`4 c #886a4d",
"`5 c #fccbdc",
"`6 c #e47e54",
"`7 c #14082c",
"`8 c #88513b",
".` c #cee5f0",
".. c #067a6e",
".# c #181713",
".a c #aa3720",
".b c #c89961",
".c c #392618",
".d c #75550e",
".e c #fba6bd",
".f c #ac9d1a",
".g c #8c34a4",
".h c #170809",
".i c #2c0c30",
".j c #ead410",
".k c #792c23",
".l c #ea945b",
".m c #069889",
".n c #582920",
".o c #381813",
".p c #a95d40",
".q c #05b09c",
".r c #085a54",
".s c #c0d5dd",
".t c #fcd690",
".u c #875e46",
".v c #eef0f4",
".w c #744e4c",
".x c #a56c49",
".y c #92412a",
".z c #f3b966",
".A c #68696e",
".B c #380b11",
".C c #b12570",
".D c #694839",
".E c #cc7088",
".F c #f6b477",
".G c #521f4c",
".H c #aa7a54",
".I c #94823c",
".J c #fcf50a",
".K c #6c123f",
".L c #19a5a1",
".M c #c87a4d",
".N c #181728",
".O c #166661",
".P c #703b33",
".Q c #96764a",
".R c #ea9c61",
".S c #172a2c",
".T c #852788",
".U c #96999a",
".V c #571f1a",
".W c #d98854",
".X c #f8bc7c",
".Y c #8a1952",
".Z c #5c305c",
".0 c #d9a561",
".1 c #06a794",
".2 c #6b767a",
".3 c #784535",
".4 c #47545b",
".5 c #096b63",
".6 c #2a3642",
".7 c #491349",
".8 c #ec9674",
"#` c #6b211d",
"#. c #847e84",
"## c #5c8e9c",
"#a c #e65294",
"#b c #c42771",
"#c c #b1596f",
"#d c #aca684",
"#e c #7c822c",
"#f c #706623",
"#g c #c8457e",
"#h c #dcd448",
"#i c #f988b2",
"#j c #ac72bc",
"#k c #d84e88",
"#l c #9751b1",
"#m c #771586",
"#n c #bc9f61",
"#o c #ef6c9c",
"#p c #dc86ac",
"#q c #295741",
"#r c #6a5854",
"#s c #789aa4",
"#t c #b2bcc3",
"#u c #a132af",
"#v c #e0dae1",
"#w c #b18654",
"#x c #b3871a",
"#y c #fcd876",
"#z c #cc9c13",
"#A c #cdb713",
"#B c #a826bc",
"#C c #a44664",
"#D c #ac5ab4",
"#E c #787e34",
"#F c #f996b4",
"#G c #946278",
"#H c #545222",
"#I c #4c3b39",
"#J c #fabace",
"#K c #f2c912",
"#L c #d93f87",
"#M c #a4ae3c",
"#N c #dfb97f",
"#O c #eb5f98",
"#P c #77317f",
"#Q c #875f18",
"#R c #75217c",
"#S c #446a84",
"#T c #f57aa2",
"#U c #b05150",
"#V c #2a4658",
"#W c #775384",
"#X c #89781b",
"#Y c #9e1b5c",
"#Z c #a87e64",
"#0 c #e4f2f6",
"#1 c #891fa7",
"#2 c #475b72",
"#3 c #da5f88",
"#4 c #a02c1a",
"#5 c #cfcad4",
"#6 c #ecee44",
"#7 c #71553e",
"#8 c #d0d7db",
"a` c #a8998c",
"a. c #798892",
"a# c #b99059",
"aa c #647634",
"ab c #8c3640",
"ac c #776968",
"ad c #3c5664",
"ae c #6c4284",
"af c #fcd2e4",
"ag c #eabc16",
"ah c #247074",
"ai c #50423a",
"aj c #a8aab2",
"ak c #5c2364",
"al c #cc94d0",
"am c #8941a7",
"an c #fafdfb",
"ao c #9cb0b4",
"ap c #dcb26c",
"aq c #c9337c",
"ar c #a94224",
"as c #59151a",
"at c #9189a9",
"au c #bb512f",
"av c #bc762c",
"aw c #15393b",
"ax c #17776c",
"ay c #da965b",
"az c #165952",
"aA c #965e41",
"aB c #bca614",
"aC c #174545",
"aD c #9814b0",
"aE c #e1af7d",
"aF c #38342d",
"aG c #3a1a27",
"aH c #985039",
"aI c #fbd90a",
"aJ c #b96b47",
"aK c #78787c",
"aL c #57585b",
"aM c #3a3943",
"aN c #566b80",
"aO c #394b57",
"aP c #9823a9",
"aQ c #d4823c",
"aR c #a4961c",
"aS c #753b20",
"aT c #59294a",
"aU c #56381f",
"aV c #976949",
"aW c #e2e6e9",
"aX c #b86042",
"aY c #741c4c",
"aZ c #d77b4d",
"a0 c #8c265c",
"a1 c #5c1238",
"a2 c #505244",
"a3 c #987a1d",
"a4 c #d7a816",
"a5 c #2a2835",
"a6 c #5c4e5c",
"a7 c #f5a767",
"a8 c #382730",
/* pixels */
".5`K`K`K`K`K`K`K`K`K`K`K`K`K`K`K`K`K`K`K.m`K.m`K.m.m`K`K`K`K`K.1`K`K`K`K`K`K`K`K`K`K`K`K`K`K`K`.",
"aw.1`K.1`K`K`K`K`K`K`K`K`K`K`K`K`K.m`K.m`K`K`K`K`K`K`K.m`K`K`K`K`K`K`K`K`K`K`K`K`K.m`K.m`K.m`K`x",
"`a`K`K`K`K`K`K`K`K`K`K`K.m`K.m`K.m`K`K.1.1.m`.`.`..m`K.1.1`K`K`K`K`K`K`K`K`K`K`K`K`K.m`K`K`K`K.5",
"aw`K`K`K`K`K`K`K`K`K`K`K`K`K`K.m.1`K..`a`g`C`C`C`C`g`g`a...m.1`K.m`K`K`K`K`K`K`K`K`K`K`K`K`K`K.5",
"aC`K`K`K`K`K`K`K`K`K`K`K.m.m.1.1.5`g.N`j#X.f#A#A#A.f#X`j.#`C.r.1.1`K`K`K`K`K`K`K`K`K`K`K`K`K`K`x",
"aC`K`K`K.1`K`K`K`K.1`K`K`K.1`K`0.N`q.j`E.J.J.J`E.J.J.J.J#K`q.#`g.m.1`K`K`K`K`K`K`K`K`K`K`K`K`K.5",
"`0`K`K`K`K`K.1`K`K`K`K`K.1.m`C`j#K.J`E`E`E`E.J.J`E`E`E`E`E.J.j`U```.`K`K`K`K`K`K`K`K`K`K`K`K.1`x",
"aC`K`K`K`K`K`K`K`K.1.m.1`.`C`q.J`E`E`E`E`E.j`p#A#A.j`E.J`E`E.J.Ja3.h...1`K`K.m`K`K`K`K`K`K`K`K.5",
"`0`K`K`K`K`K`K.1`K`K.1`.`C`b`E`EaI`E`E`c#xa``l#5`la`.I`c.J.J`E`E.J`b`Cax.1.m`K`K`K`K`K`K`K`K.1.5",
"aC`K`K`K`K.1`K.m`K.1.m`C`I.JaIaI.J`c`8#WaWan#v.g#5an#8ae`8`c.J.J.J`E`b`C`..1`K`K`K`K`K`K`K`K`K.5",
"aw`K`K`K`K`K`K`K.1.m`g`q`E`E`E`EaR.Z.gaPaWan#l`w#lan#vam`waTaR`E`E`E.J`q`C.m.m`K`K`K`K`K`K`K`K.5",
"aC.m`K`K`K`K`K`K.1`0`U`EaI`E`E`p`Bat#uaD#Dal`w.gaDal#laPaP#j`B`p.J`E`E`E#H`g.1`K`K`K`K`K`K`K`K.5",
"aw`K.1`K`K`K`K.1.r`v#K`EaI`E`E.j#daWae#BaP`waPam`waPaPaP.T.va``c`E`EaI`EaI.c.r.1.m`K`K`K`K`K`K`x",
"aw.m`K`K.1`K.1...h`p`EaI`EaIaI.JaRaWaj.T#B#mae#8`o#1#B#maj#v`b.J`EaI`EaI`EaB`C...1`K`K`K`K`K`K`x",
"aw`K`K`K`K`K.1`g#Q`EaIaIaI`EaI`E#Aa`an#W#m#m`lan#5#R#m#Wan.U#A`EaI`EaI`EaI`E.d`g.m`K`K`K`K.m`K`x",
"aw.m`K`K`K.1`x`y.jaIaIaIaIaIaIaI`E.Q.v`l`7at.v#v.v#G`7#v.v`b`EaIaIaIaIaIaIaI`c.c`x.1`K`K`K`K`K`x",
"aw.m.1`K.1.m`C#xaI#KaIaI#KaIaIaI`L`U.4.2aMaK.A.A.AacaM.Aa6.dagaI#K#K#K#KaI#K`Ea3`C.m`K.m`K`K`K`x",
"aw.m`K`K.1.r.c.j#K#K#K#Kag#K#z.d`m.Aaj#5ananananananan#v.U.A`Z`U#zag#Kag#K#K#Kag.c.r.1`K`K.m`K`x",
"aw.m`K`K.m`C#xaIagag`L`L`p.d`Zat#0an.v#8`1`B.A.2aK#.`1#5#0an.v.U`Z`N`fa4a4`Lag#Ka3`g.m`K`K.m.1`x",
"aw`K`K.1`x.cag`L`La4`p`q.c#.an.vaja2.#``````````````````.#a2`1.v#0`B`m.d`f`fa4ag#A`y.5.1`K.m`K`x",
"aw.m.1.1`g#Qag`p#z`f.d#I`l#8.2`C``````.h`y`n`n`n`n`y`n.h```````C`3`l`l`Y.n`I#x#z`L`U`a.1`K`K`K`x",
"`0.m.1.m`C#xa4`f`IaUa2`l.2```````n`d.Vas#`#`as.Vasas`sas`d.o.h``````aL#taO`maH`Ia4a3`g.m`K.m`K`x",
"aw.m.q...#a##x`I`ma2`1`O``.#`das.k.k`M#U`GaJaX.paX.p`G#U.y#`#`.V`n`````C#sa2.c.d#x`I.N`..1`K.1.r",
"aw.m.q.5`va3#QaU`O.2`C``.#`y.o.k`MaX.Wayay.W.W.W`z.W.WayaZau`G`V``````````#2.c`m#Qa3.#`.`K`K`..S",
".S.m.q.5.##Q`U.haF`C``````````.o.8.X.F`h.X.X`T.8`T.X`2.R.z.XaU```````````````O.#`j#Q`y`.`K`Kaz#I",
"`C.m.q.5.##f.c.h````````````````.D.t.t.X`h`R`H`H.tap.F.t.t`4````````````.h`y``.h.c`N.#`..1..aLaV",
".h.5.q`.`C`Z.#```y.V.h``.h````````#w`u.taE`h#y.t`R.0#y.ta#``````awaO.S``.V#``n``.c.c`g.m.1`aa#.Q",
".c#V.1.1`g.#`y.h.k#`#`aM#V#2.S`````naE`u`HaA.t#y`J`4`u#N.#````ad`1#s#S.S.3`##```.o.o`a.q`.#I.t.u",
"#7#r...q..`C.h.n.a`M`MaF##.`#ta5````a8`Jac.o`H#y.H`y.Q`y````ad.saW.v#s.6.P.y`#`d.h`gax.q`a.H`u`8",
"#7`h`a`K`K.O`V#``M`#`#a5.sananao.N````````aF`R`R#n````````aO.`ananan.`#V.k`M.a#`.hax.1`.aF.X`H`N",
"a6`R.D.5.q`X`#.Var`t`saO#0ananan`la5``````.Q#y`L.z`v````aN#0ananananan#2.Z.y`M#``F`X.q`a.H`u`h`n",
"aU`Hay.S`.`O`#.B.n`M`s#2anananananaW.4``.##N.zav`R#Q``a.#0anananananan#S`s`M`M`d#4`m..`Y.F.X.y.o",
"`y.0.t`8`g#``M.h.haA.3adananan.vaLaL#8aN.N`I`N.o`q.P#V.`#8aO#.ananan.v#2`s.y`s.B.a#```.H`H.W#`.n",
"``aV#y.0```s.k`n`N.y.u.6.`anan#t`````1#0.S``.n#G`V``.2#0.U```C.`anan.`aM.D`s.n`n`#.k.#aE`H.P.k`s",
"`n`V.0`H.3.B.o.H`T.x.PaF.UananaW.2#2#vaW`S#`#c.E#C`n#2an#8.6`Ban.vana.a8.PaAay`e.B#`aU.t`W`nar`s",
"`VaG.ca7.W.h.D.lav.b#Zai.6`lanananananaN.V#i.e#J#F#3.o.Uananan#0an#t.6#I`W.W.Way.n`n.H`T.c.BaraU",
"`V.k`n`vaV`n.x.R`R`H.t`haMaM`1#8`l`la.`n#k#F#J#J#F#i#C`vaKao.s.sata5#IaE`R`R`R.zav.h.D`y`y.k`G`N",
"`S.kaV``````aV`R`H.za#.taE#r`Q.Sa8.c#I`s#o.eaf`5.e#i#3.G.3.B`Sa2ai`4aE`H.x.H#y.zaV``````aA.kaJ`N",
"aG#`.RaU````.h.b#y.u.#.F`H.taE.P#p.e.D.P#T#J`5af.e#i#o.o#c#F#c#7.t.t`H`T`Q``#N`h`n````.o`P#``z`v",
"`vas.WaA``````aFaA`````4`R.XaV#g#p#F.Ea0#T.eaf`5.e#T#oab#T#i#ia0.I`H#y#Z````.c.c```````8auaH.H.#",
".N`daQav`n`````````````y.bay`N.C#a#a#a#L#o.e#J#J#F#T#O#c#O#O#Oa0.DaJ.H`Z````````````.h.MauaS.AaC",
"aL`Z.Way.V.o````````````#7`W.V.K.Caq#L#L#o#i.e.e#F#T#O#L#L#LaqaY.B#U.u`````````````y.o.RaX`Vao#2",
"aM.D.z.R`V`N.h``````````.#ai``.iaY.Y#Y#b#a#T#i#i#T#T#a.C#Y.Y.K.i``.w`y``````````.#.n.n.z.l`V#s`X",
".haV#y.F.n`s.P.h````````````````aG`n`d#Y#L#O#o#T#o#o#g.Y.i.B.i````````````````.h.y`m.y.X.FaH`X`X",
".#.Q`R`R`8.V`P.k``````````````````````.K#b#a#O#o#O#k.C.7````````````````````.h.PaX.oaX.z.FaJaz`x",
".N#7`R`RaJ.o`PaX.n````````````````````.B#Y#b#L#g#gaqaY.h````````````````````.3`G.p`naZa7.R`M.5`x",
".S.c.M.zaQ`yaJ`PaJ.h````````````````````a1.Y.C#b.Ca0.i`````````````````````y#w`PaH.o`6.R`G.S`K.r",
"aCah`maS`e.BaH`z`z.D``````````````````````.B.K.Ka1`n``````````````````````.u.W`6.k```s.n`g`..1`x",
"`0.L`X.haA`n.n.l`z`W``````````````````````````````````````````````````````.0aQaQ`V`C.r.5`..1.1`x",
"`0.L.r#w.Q``.o.l`z.Fa8```````````````````````````````````````````````````Z.XaZ`W.B.V.5.q`K`K.1.5",
"aC`.`3.X.n#`.haQ.W.X.u``````````````````````````````````````````````````.Q.XaQ.p`nar`v.m`K`K.q`x",
"`a`x#n#w#`.y``.u.l.F`h```````````````````````````````````````````````````Ja7`z`e```t.k`a.1`K.q.r",
"`0`X.z`Nar`s.h.n.l.R.X`y``````````````````````````````````````````````aF`H.l`z`m`n.kau.c...1.1.5",
"`g.4a4`d.y`d.B`yaQ.R.taUa5.A````````````````````````````````````.h.Aa5.u.t.WaQ.h`FasaS.a`g`K.q`x",
".S#faS`V.n.Vas.h`G.R.t`8#ran#.aM#I``````.h.#.#.h.N`v`C```````Oa5.Uan.4.Q#y.l`G.h#``#.o.naw.m.1`x",
"aa#x.o.o`d`#as```s.l`H#ZaianajaWan`B#.#t#vaW#vao.vaWaW#5#..Uan#v`1.vaia#.taQaU.h`F`M`F`0.m.1.1.r",
"`Z`U.c.c`F`#`F```V`z`RaE.n#5.UaWan`l.vanananan`lananananaW#8anaWa.#8#I`J`H`P.o.h`F`M#4.S.1.1.1`x",
".Saa#f.o`##4as.h.oaZ.X.taAa6acaWanajananan.v#t.A#8.vananaW`lan`la.#..D.t`RaJ`n.o`F`#`G.o`..1.1.r",
".S`D`3.c.a`F`d``.n.la7.t.taVaGac#daL.U`Bac.D.D.D#7#rac.U`B`3`l.AaM.3#N#y.F.l.n.B`F.n`t.n...q.1`x",
".S..#q#`#4.h`y``aH.X`2`T`u.t#N#w.QaV#Z#nap.t`u`u.t`Hapa#.Q.u.Q.Q.b.t`u.X.Ra7`8.h.Vas`M`N`x.q.1`x",
".S.m`x.V.BaC`g.haZ`H.X.l.l`H`u`u`u`u`u.t`H`R.X.z.X`H.t#y`u`u`u`u`u.t.R.W.z.F.M.h.Saw.B`V...1.1`x",
"aw`K`.`O.r.maC.o.R.X`H`H.l`P.W.R.0`2`T.z.X.X.X`W.X`R.X.F`2`T.F`2ay.MaQ.F`R.X.l.o.r`K`a.#`..1.1`x",
"`0.1.m`..m`K`x`V.R.X`H`H`H.Xay.W.R.X`R.t.t.t`H.x`H.t.t.t`R.Fay`W.M.R.X`R`R.F.W`v.5`K`K...m.1.1.r",
"aw`K`K`K.m.m`.`S`P`T`H`R`R`H.t.t.t#y.t.t.t.t`HaA`H.t`H.t.t.t.t`H`H`H`R.X.Xa7.p.#`.`K.m.m`K`K`K`x",
"`0`K`K.m.m.m.m`0`F`P.l.F.F.X.X`H`H`H.t.t`H.t.X`8.X.t`H.t`H`H.t.X.F.F.Fa7`6`P.V`0.m.m`K`K`K`K`K`x",
"aw.m`K`K.m`K.m`g```V.y#UaJaX`P.F`H`H`H`H`H.taEaS.X`H`H`H`H`H`Ha7.M`P#Uau.P`d```a`K.m.m.m`K.m.1`x",
"aw.m.m`K.1`.`0`7`n`````n`n.h.V.W.F.X.X`R.X.X`W.oay.F.X.X`R.F.F.W`V.B`n`n````.h.h`x`K.1.m.m`K`K`x",
"`0.m.m`K..`g`n`k.7.i``.h`n````.PaZ`za7a7.R.M`m``.n.Wa7a7a7a7`z.3````.h`````n.7.i``az`..1`K.m`K.r",
"`0`K.1.5#H`n#R#maY.7``.V.y#`.B``aSauaXaX.3`y``````.o.y.paX#c.P.h.h`sab`n``.G#Rak`7#faa.r`..1`K.r",
"`0.m`a#e#X.7.T#R#R#P`7.3`6`G`#`d``.h`n.h``````.h``````.h`n.h```n.P`i`i`y.i.T#R.Tak`O#h#f`g..`K`a",
".SaC`b#haF`k.T.T.T.g.i.u.X.8aZ#U.kaG.h`n.o`V`s.k`s.V.o`n`n`y`N#U`6`z.8aG.7.T.T.T.T`S#M#6.f`O.5.r",
"`C`Y#e#f`naT.Gak.Z.Z.i`Z.xaVaA.3.PaT.n.naT`saT.VaT.naT.n.n.P.P.w`8#GaV`y.7.Zak.Gak.i#H#E#E#H`C`C",
"`A`O`va5a5a5a5a5`va8a8`S.i`SaGaG`V`Qa8`Q.caG`S`S`S`Sa8aFa8a8aGaGaGaG.ia5`Sa5`S`Sa5.S`7`C.N`Ca5aF"
};
