/* XPM */
static char *w11_xpm[] = {
/* width height num_colors chars_per_pixel */
"    48    73      256            2",
/* colors */
"`` c #050406",
"`. c #09877b",
"`# c #842214",
"`a c #064845",
"`b c #868528",
"`c c #c8c630",
"`d c #491113",
"`e c #84551a",
"`f c #c4921c",
"`g c #06292f",
"`h c #482b18",
"`i c #574727",
"`j c #84c2dc",
"`k c #cc9e74",
"`l c #c76341",
"`m c #280a11",
"`n c #bc4624",
"`o c #898b8f",
"`p c #d7a71b",
"`q c #766624",
"`r c #a9536f",
"`s c #c7c8ce",
"`t c #8a1f8d",
"`u c #5a275c",
"`v c #c9e5f7",
"`w c #896d1f",
"`x c #682c23",
"`y c #2a231e",
"`z c #291716",
"`A c #48104c",
"`B c #75858e",
"`C c #873728",
"`D c #98a5a9",
"`E c #4d4f5a",
"`F c #fae708",
"`G c #e98b5b",
"`H c #076860",
"`I c #05a38e",
"`J c #eac389",
"`K c #c9a67c",
"`L c #c9704a",
"`M c #08161b",
"`N c #24342c",
"`O c #6b1239",
"`P c #a85437",
"`Q c #a6391f",
"`R c #483714",
"`S c #68481f",
"`T c #eab916",
"`U c #e4a274",
"`V c #271a34",
"`W c #f8c57b",
"`X c #4c6674",
"`Y c #fce79e",
"`Z c #67392c",
"`0 c #d07098",
"`1 c #a8a030",
"`2 c #a7aeb4",
"`3 c #874635",
"`4 c #481e1a",
"`5 c #a67a1c",
"`6 c #f4c7dc",
"`7 c #f9a8c3",
"`8 c #282733",
".` c #6f6c72",
".. c #284c30",
".# c #371917",
".a c #ab871b",
".b c #ebc910",
".c c #e99862",
".d c #280930",
".e c #099983",
".f c #e9edf1",
".g c #472d2e",
".h c #893597",
".i c #755815",
".j c #a99179",
".k c #fcd791",
".l c #b16343",
".m c #e9d718",
".n c #c9895c",
".o c #24aab0",
".p c #1a140f",
".q c #782c24",
".r c #dc6e4c",
".s c #346a64",
".t c #17090c",
".u c #0b7360",
".v c #0db6a1",
".w c #e8ba7e",
".x c #b2865e",
".y c #370b13",
".z c #073833",
".A c #8a513c",
".B c #8995a3",
".C c #d89761",
".D c #d6a768",
".E c #065a53",
".F c #fcf50c",
".G c #eaa668",
".H c #582b1d",
".I c #a1238f",
".J c #382617",
".K c #08aa9e",
".L c #b0b9bf",
".M c #c9d4db",
".N c #cd7a50",
".O c #29373b",
".P c #059d8d",
".Q c #90345c",
".R c #665260",
".S c #a76f4d",
".T c #f69b62",
".U c #6b483b",
".V c #5e7485",
".W c #fab979",
".X c #4c1144",
".Y c #983a2b",
".Z c #513b32",
".0 c #8c4a4c",
".1 c #581d1d",
".2 c #fafdfb",
".3 c #8d624b",
".4 c #ae2464",
".5 c #c32b75",
".6 c #691866",
".7 c #94b4c9",
".8 c #6b201b",
"#` c #181921",
"#. c #877169",
"## c #d75687",
"#a c #f586a8",
"#b c #a47274",
"#c c #c03c7c",
"#d c #bbc6cd",
"#e c #b4327c",
"#f c #dcba7c",
"#g c #722b77",
"#h c #f06da2",
"#i c #872b22",
"#j c #989258",
"#k c #956d4d",
"#l c #ac88b8",
"#m c #384652",
"#n c #585624",
"#o c #b172b1",
"#p c #cab411",
"#q c #79772f",
"#r c #ad4732",
"#s c #7a7976",
"#t c #e96399",
"#u c #79138c",
"#v c #525a62",
"#w c #d93381",
"#x c #df3e8b",
"#y c #88660c",
"#z c #bcb227",
"#A c #a9971f",
"#B c #884698",
"#C c #fa97b5",
"#D c #881e54",
"#E c #c4bab9",
"#F c #7c4a8c",
"#G c #887e98",
"#H c #9c2cb8",
"#I c #dcde3c",
"#J c #f4b76b",
"#K c #685830",
"#L c #fcf6b0",
"#M c #8d2990",
"#N c #703b38",
"#O c #84762c",
"#P c #a8905c",
"#Q c #ac7953",
"#R c #47453e",
"#S c #88a8c8",
"#T c #a056a0",
"#U c #f7b7c7",
"#V c #bcdae4",
"#W c #d9b567",
"#X c #f4d0e1",
"#Y c #b09ab4",
"#Z c #722034",
"#0 c #e75395",
"#1 c #fbda0b",
"#2 c #183533",
"#3 c #959b9c",
"#4 c #79664f",
"#5 c #ac365c",
"#6 c #481c54",
"#7 c #7490a0",
"#8 c #947e74",
"a` c #a737ac",
"a. c #984e2c",
"a# c #394e37",
"aa c #f27baa",
"ab c #f6d077",
"ac c #94794c",
"ad c #6f7a8a",
"ae c #581310",
"af c #1a2624",
"ag c #186654",
"ah c #b5553d",
"ai c #7c4224",
"aj c #5f6971",
"ak c #b9adbc",
"al c #f7c914",
"am c #582d32",
"an c #d5dade",
"ao c #7c1757",
"ap c #d9b815",
"aq c #b7a314",
"ar c #9939a4",
"as c #771f7f",
"at c #a02c92",
"au c #dcd224",
"av c #dae7ea",
"aw c #fbca8a",
"ax c #3a1839",
"ay c #37292f",
"az c #380b37",
"aA c #d98859",
"aB c #985540",
"aC c #185b50",
"aD c #383a3e",
"aE c #7a4639",
"aF c #99769c",
"aG c #79553b",
"aH c #594a41",
"aI c #99abc6",
"aJ c #097972",
"aK c #782c8a",
"aL c #998719",
"aM c #987018",
"aN c #593b18",
"aO c #1cb69c",
"aP c #b86d4c",
"aQ c #4c5e84",
"aR c #dc478f",
"aS c #bb9713",
"aT c #987b18",
"aU c #bc9664",
"aV c #782e3c",
"aW c #f7a96a",
"aX c #981e56",
"aY c #f9ac76",
"aZ c #cf9d1c",
"a0 c #e07c53",
"a1 c #c73579",
"a2 c #3c5068",
"a3 c #3a3418",
"a4 c #783a26",
"a5 c #591d61",
"a6 c #5c1664",
"a7 c #d7a479",
"a8 c #964733",
/* pixels */
".P.P.P`I.P.P`I.P`I.P`I`I.P`I`I`I.P.P.P.P.P.P.P.P`I`I`I`I.P.P`I`I`I`I`I`I`I`I.P`I.P`I.P`I.P.P`I.P",
"`I.P.P.P.P.P.P.P`I.P.P`I.P.P.P.P.P.P.P`I`I.e`.`.aJ`.`..P.K.v`I`I.P`I`I.P.P`I.P.P.P.P.P.P.P.P.P.P",
".P.P.P.P.P.P`I.P.P`I.P.P.P`I.P.P.P.K.e.E.z`M`M#`#`#``M`M.z`H.e`I`I.P.P`I`I.P`I.P`I.P.P.P.P.P.P.P",
"`I.P.P.P`I.P`I.P`I`I.P`I`I.P.P.K.e`a`M.J.iaSap.b.b.bapaS.i`y`M.E`I`I.P.P`I.P.P.P`I.P`I.P.P.P.P.P",
".P`I.P`I.P`I.P`I`I.P.P`I.P.P.K.u`M`haq`F.F.F`F`F`F`F.F.F.F`FaL`z`g`..K.P`I`I.P`I.P`I.P.P`I.P`I.P",
"`I.P.P`I.P`I.P`I.P.P`I.P`I.K`a`MaT`F`F`F`F`F`F.F`F.F.F`F`F`F.F.m`S`MaJ.K.P`I`I.P`I.P`I.P.P.P.P.e",
"`I.P`I.P`I.P`I.P.P`I.P.P`I`a.##p.F`F`F`F.F#1#paq`1aq#p`F.F`F`F.F.FaT.taJ`I.e`I`I.P`I`I`I.P.P`I.P",
"`I.P`I.P`I.P.P`I.P`I.P`I`a`h.b`F`F#1.F`F#z#jakan`san`D#4#A`F.F`F`F.FaL.taJ.K.P`I`I.P.P`I.P.P.P.P",
"`I.P`I.P`I.P`I`I.P.P.K`a`h.m`F`F`F.F#p`x#G.2.2`6as#E.2.f#F.U#z.F`F`F.FaL`M`.`I.P`I`I.P.P.P`I.P.P",
"`I`I.P`I.P`I.P`I.P.K`H`z.b.F#1`F#1`qas#H#B.2avar.IaK.f.f#T#e.X#O`F`F`F.F`w`M.e.K.P.P`I`I.P.P.P.P",
"`I.P`I`I.P`I`I.P.KaJ.t#p`F`F`F`F.aak#Tar#u#Y#l`t#H`t#o#o.I.I#o#3aS.F`F`F`F`S`g.P.P`I`I.P`I.P.P.P",
"`I`I.P`I`I.P.P`I.e`M.a.F#1#1`F.F#p#E`saKar#M#Har#B.I#H.Iat.Qav.j.b`F`F`F`F.m.J`a.K.P.P`I.P`I.P.P",
"`I`I.P`I.P.P.P.K`g.i#1#1#1`F#1`F#1#P.2aF`t.h#u#lavaK`tataoakavaT`F#1#1`F#1`Faq``aJ.K.P`I.P.P.P.P",
"`I.P`I.P.P.P.K.E`z.b#1`F#1`F#1#1`Faq#E.f#g#u#F.2.2anas#uaF.2`oap`F#1`F#1`F#1`F#y`M`I`I`I.P.P.P.P",
"`I`I.P`I.P`I.e`M.a`F#1#1#1#1#1#1#1#1ac.2#Gaz`B`2#3.L.R`m#Ean`1`F#1#1#1#1#1#1`Fau.J.E.K.P`I.P.P.P",
"`I`I.P`I.P.K.zaN#1#1al#1al#1#1#1.b.a.H`E.`#G`o#3#Y`2`D#G#vaDaN`5.b#1alal#1al#1#1.a`M`..K.P.P.P.e",
"`I`I`I.P`I`.`MaZ#1.b`Tal`Tal`p#y`i.`.L.f.2.2.2.2.2.2.2.2.2.f`2aH`R#y`p`T`T`Talal.ba3`a.K`I.P.P.P",
"`I.P.P`I.K.z`Sal`T`T`T`TaZ.i`R`o.f.2av`2.`#m.O`8af`NaD#v`B.L.f.2an.``haM`p`p`p`TalaL`M.e`I.P.P.e",
"`I`I.P`I.e`M`f`T`p`p`paM`h#s.f.f.B#m.t``````````````````````.p#v`2.2#da3aN.a`faZ`Tap.J.E.K.P.P.P",
"`I`I.P.K`H.Jap`paZ`f`ea3`Danaj`M````.t`m`d`d`d`4`d.1`4`d.y.t``````af`o#V.``h`5`5`fap`q`g.K.P.P.P",
"aJ.K.P.K.z`S`paS.a`S.J`Dad```````z.1.8.8.q#i#Z#i#Z.8#Z#Z.q.q.1.#.t````#`.B.V`h`w`5aZaL`M`..K`I.e",
"a#.P`I`I`g`waSaM.H.J#7.O``````````.H.Y#rah`L.N`L.N.laPaP#r`C.q.q.y`````````E#v.#`e.a.a`VaJ.K.KaJ",
".3`H.K.P`M`qaT.Z`zaj`M````````````.t.xaY.C.caW.c`G.c.T.c`L.n.C.H````````````#m`N.J`e`5`zaJ.K.P`a",
"`k.O`I.P`M`i.i.p.p`M.t`d`m#`.O`M````.J.w.k.G.D`W#J#J.G.N#J.k.x```````````z`z```y.taN.i.paJ.KaJa#",
"aw.UaJ.K.z`R`i.p```m.8.q.p.VaI.V#``````Raw.k.G.x.k#JaP#J.k#Q``````#2ajafay`C.y.t`M.J`R`M`..K`H#.",
"aw.C.z.v.E.ta3``.#.8.Y`C`8.7av`v`D#`````.Z#f`k.H.kaU`S`J#k``````#m`D#V.V.p`P.1.1```y`h`g.e.v.z`K",
"`Waw#KaJ.P.z`````C`#a8.q#m`v.2.2.2`2`M````.p```y.k.x```z``````ajav.f.f.7af`P.8.Y.y.p``.E.v`.a#.k",
".n.k.n#2.P.e`yae`Q`#a8`C#mav.2.2.2.2`s#```````#kab.D``````#`#3.2.2.2.f.7`8.l.8`Q.8.y`N.P.v.E#8`Y",
"`x.Waw.Z.u.u.H.8`Q`#a8#r`y#V.2.f.2.2.2an#R```RawaP#JaE``#Ran.2.2.2.2.f#7#RaPae`n.1#iaD.v`I`N`Jaw",
".8.3aw.n`g`g`Qae#i`C.y`P.tad.2.2.2.2`o`8#daDam#k`4#K.J`E`s#2`B.2.2.2`va2aH`x`d#r.y`Q`4.u.u#K`Ya7",
"#r.ya7`W.g`m`Q.y`m.8aN.3aB.t#7.2.2.2#R```o`o```4#N.1``.B`2```E.2.2.f`X.J#k.Sai.1.t#r.8`N#2`kawaE",
"ah.1.H.k.3`d`#.t`i.Caw.k.k.n.#aDak.2`D.`#EaD.0#C`7#a`r`z#3#.#d`s#saD`Z.Cawaw.G.l.#.8`C``.3.k#b.y",
"`P#r.J`Z.3`d.y`Z`G.G`W.k.k.k`J.3amaH#8.M#R#i#C#U#U`7#C.Q`z#E#s#n#4`kaw.kawawaY.T.l.y#i.#`J.x`m.q",
"`Pa8.n.t```m``.3.T`W`W#Q.k.k.k`Y`Y.j.H.R`4##`7`6`6`7#a##.J#4`Z#k.k`Y.k.k`Ya7a7.TaA`x`4`4.U.t.1a8",
"`l`x.T`3``````.p.Cab#k#``J.k`Y.k.j#N#bamae#h`7#X`6`7#a#h`4.8`0`raE`J.k.k.k.Z.ZaYa0.#```````xah.Y",
".N.8.N.N.t```````Z#k````ac.Waw`kam`7`6`0#Z#h#U#X#X`7#a#h#Z###C`7`raEaw`U.j.t``.3#N```````za0`Qa8",
".n#i.3.T`x.t````````````ay.N.r.U.Q#haa#h#5#h#C#X#X`7#a#t#c#0#haa#c.1#Q#Q#R``````````````a.`G.8.l",
"#.a.`3aW`C`d`m````````````aE`r`h`O.5#x#0#x#t#C`7#U#C#a#t#w#x#x#eao.d.U.j````````````.t.t`L.r.8aA",
".V`Ea8aWa.`d.q````````````.pam.taz`OaX.4.5#0aa#C#C#C#h#0#w.5#D`O`d```y`y````````````.H`4`G#ra4.x",
"`jaQaBaW`P.y.Y`4```M.V.O``````````.d.y`O.4#x#haa#aaa#h#0.4`O.y`m``````````#m.V`M```4ai`d.c`Pa8#4",
"`v`B.n#J.l`m.Y.l```X.7aj``````````````.t`O#waR#h#h#t#t#w#Z``````.t`M```````B.7.O`y`3.q`4aW`L`Z#3",
"`j.V#J.WaA`d.qa0`xaf#S#7#````8aj`M``#RaD.y.4#waR#0###x#e.yaH`8``#vad#```.O.7.V`MaBah`x.H`W`U.H`D",
".oaH.W#JaW.H.8.T.l``a2aIa2`8`D`2ad`EaI.B.d`O.4.5a1a1.5ao`z`o.BadaI#d.B#2.B#S`M`zaP`l`4ai.W`WaBad",
".oaD.C.WaWa4.8`GaA.t``#m.VaI#d#V.M.B.L#d#v`m`OaXaXaXao.y`E.LaIaI.f.fanad.V#```aGa0`l.#`P.W.W#b.s",
".v`HaN.N`Gai`4.T.G.#````.ta2.M.2.2.L`vanaI#v.#.y.y`m`za2.Ban.Man.2.faI#```````.x`G.l`m.laWaW#4`H",
".v.K.E`4`Z.H`d.c`W`h``````````a2.B#3.f.2an.L.B#v`8.V`BaIav.2ak`D`o`8``````````a7`Ga..H`L.N`SaC.e",
".K.v.E`iac``.8aWaw.H````````````````aDaj.`#v`E#m.O#vajaj.`#R`M``````````````.#.w`G.8`z#Q#Q`M`.aO",
".K.e.##Wac.t.8aWaw`Z```M````````````````````````````````````````````````#```.Z`W.c`4```4`J#R.uaO",
".vaCai`J`S.y.q#J.kaN#m.M`o```E`E```````````````````````````M````aD#s.Oaj.2#v`Saw.c.#.t`x.caG.EaO",
".K...i#W`x`m`C#J.kaE`E.2.L`o.2.2#v`Dan`oaj.Man`B.`.M.M`o.`.fanaj#d.2`s`o.2adaE.k.c`m.t`3.S.S`a.K",
".KaC.H.i.#.p`naW`Y#kaD.f`D`2.2.f`B.2.2an`2.2.2.Mak.2.2an`2.2.2.L.L.2#E`Bav#m#Q.k`G`4```x.H`3.z`I",
"`IaJ.#`m.t.H`L`G.kaw.H#3.B`D.2av.B.2.2an`2.2.2an.L.2.2an`2.2.2.L`D.2#d.V.`aG.k`Wa0.q.p`y.J`h`g`I",
".P.Pag`H`8.l.c`Law`Y.w.U.g`o.2av.B.2.2av.L.2.2an.L.2.2av`2.2.2#d`D.2#saD.x.kabaW.l.l#``H#2.J`H`I",
".e.e.K.eay`G#J`PaA.k.k.k#k.U#8ad#s.2.2.M`D.2.2.L`o.2.2.L#3.2`s.``E#.#Qab.kab.Wah.N`G`h.u.e.u`I`I",
".P.e.P`H#NaW.WaA`Qa0`W.k#L`J.xai.Z#K#..R`4.ZaG.g.#.U.Uam.Z.3.3#Q.Dab`Y.k`W.G`P`P.W.c.q`a`I.P`I.e",
".P.P.P.E`3aW`Waw.C#r`P.N#J.k#L`Y.k.w.G#W.Da7.D#W.w.w.w`Wawab`Y`Y.kab#J.nah`PaP.W#J.Ta.`g.P.e.P.P",
".P.P.P`a`3aW.W`W.k`WaA#r.YaP.G`W.k`Y#L#L#L#L#L#L#L#L#L`Y`Y.kaw#J.c.la4.Y`L.Gaw`W.W.T`P`M.P.P.P.P",
".P.e.K`a`x`GaW`Wawab.k#J.l`#`#a8`LaA.c.c.D.C`U.C.naA.CaA.C.N.lai.1`x`P.cab.k`W.WaY.caE`g.P.P.P.P",
".P.e.KaJ.d.l`GaYawaw.kaw.W.Na8.8`daeaeaeaeaeaeae`d`d`d.yae`d`d.8a8.raY.kaw`Waw.W.c.N.g.z.K.e.P.P",
".P.P.P.P.z.1.r`GaW.W`Waw.k`WaW.CaP`PaBaB`P.l.SaP`LaPaP.l.l.l`LaA.G#Jabaw`W.WaY`G.N.0.p`..P.P.P.P",
"`I.P.P.P`.`M.1aha0`GaW.Waw.k.kabaw.kabab.k.k.k.k.kaw.kawawawawab.kawaw.WaY`G.N.l.Q.p.E.P.P.P`I.P",
".P`I.P.P`IaJ#``4`Cah`l`G.caY.Waw.k.k.k.k.k.k.k`Wa7.k.k.k.k.k.k.k`WaY.TaA`L.la8`x`M`a.e.e`I.P.P.P",
".P.P.P.P.P.PaJ.z`m`4.8`Ca8.la0.caw.k.k.k.k.k`Y.w.n.k.k.k.k.k.k`WaY.Na8`x`x.1az.t`a.e.e.P.P.P.P.P",
".P`I.P.P.e.e`.aC````.p.d`m`z`xa0aY`Waw.k.k.k.k.DaP.k.kab.kawaw.W`Ga4`m.t.t.p.t```H`I.e.P.P.P`I.P",
".P.P.P.P.e.eaJ`g``````.t`````mah.TaYawaw.kab.k.x.Aabawawaw`W.W.TaP`m````````````.z.e.P.P.P.P.P.e",
".P.P.P.P.e.e`a``.d.t```````````x.r`GaY.W.W.W.W.A`haWaY.W.WaY.T.Nai``````````.t.d``.u`I`I.e.P.P.P",
".e`I.P.e.P`H`M`A`A.d.d```m.t``.t`C`la0`G.T`G.l`m```3`G`G.ca0`L`3`m``.t````.d.d`A.daf.u`..K.e.P.P",
".P.P`I`.aC#2`Aas.6.X.d``.1#Z`m````.1`C`3ai.H.t```````4`3a8ai.H.t```m.1`z.taza6.6.6.p`ba#`H`I.P.e",
".P.KaJ.z`b`h.6`t`tas#6`M`3#r#i`d.t``````````````.t```````````````4.q`P.#.d.6`t`t.h.d`baua3`a`I.e",
"`IaJ`g#A#zazaK`t`taK#g.d#Qa0ah#iae.y`m.t.t`m`m.y`m`m`m.t.t.t.y.q.Y`na0.gaz`t#MaK#Ma5`i#I`ca3.z.e",
".E..aq.F#q`A#M`t.h#M.h`V.xawaW`G`l.Y`C#i#Z.q.q.q.q.q#i.q#i#i#r`la0.TaYama6`t#Mat#M`t`y`c`F#I#n.z",
".t#K`b#qayax`ua5`u`u#6#`aG.S.3.l.0#N`Z`Zamamam`x`Zam.1am`Z`Z`3.0aB.S.3ax#6a5`u`ua5a5`V`q#j`b#q`M",
"aD`8#``8`V`8`8`Vaf`y`8`V#``Vax`Vax.g#6.Jay.#`z`z.p`V.#ayay.#ax.#axax`z`8`Vayax`V`y`8`V`M#``M`MaD"
};
