/* XPM */
static char *w12_xpm[] = {
/* width height num_colors chars_per_pixel */
"    48    73      256            2",
/* colors */
"`` c #060406",
"`. c #09877b",
"`# c #8a1c3c",
"`a c #a0891a",
"`b c #084949",
"`c c #c4c62c",
"`d c #450d15",
"`e c #c69716",
"`f c #884633",
"`g c #94cae4",
"`h c #cc4478",
"`i c #05292d",
"`j c #494217",
"`k c #482c19",
"`l c #cc968c",
"`m c #845688",
"`n c #e8c78c",
"`o c #8e6916",
"`p c #280b0f",
"`q c #496239",
"`r c #878688",
"`s c #c7a61b",
"`t c #fce59b",
"`u c #0bb3a2",
"`v c #652a6f",
"`w c #672c26",
"`x c #8ba7b9",
"`y c #c52b75",
"`z c #480a58",
"`A c #a96936",
"`B c #4f8597",
"`C c #882b29",
"`D c #4c4e58",
"`E c #fae709",
"`F c #292626",
"`G c #09171c",
"`H c #e8ba1b",
"`I c #281813",
"`J c #c66948",
"`K c #aa4a38",
"`L c #671231",
"`M c #862797",
"`N c #e6885c",
"`O c #44626c",
"`P c #086761",
"`Q c #cfcdd1",
"`R c #d1e4ec",
"`S c #04a08d",
"`T c #684911",
"`U c #c86886",
"`V c #523a1e",
"`W c #c4a284",
"`X c #e1c364",
"`Y c #aaa698",
"`Z c #32352a",
"`0 c #e8a86d",
"`1 c #b1aa2c",
"`2 c #a79289",
"`3 c #8c551c",
"`4 c #6d3a1e",
"`5 c #c7895d",
"`6 c #a47529",
"`7 c #f0efeb",
"`8 c #27182f",
".` c #686a7e",
".. c #354650",
".# c #89684b",
".a c #f6b770",
".b c #17090a",
".c c #9c865c",
".d c #471c19",
".e c #78580c",
".f c #eea982",
".g c #ca9a60",
".h c #eac411",
".i c #98dcec",
".j c #8a3529",
".k c #191610",
".l c #c77850",
".m c #fcd78f",
".n c #8a9790",
".o c #381816",
".p c #4d3b3b",
".q c #ead611",
".r c #2e0c3a",
".s c #2ca197",
".t c #05383a",
".u c #aaaab6",
".v c #44b2c4",
".w c #fce674",
".x c #b22970",
".y c #360a0d",
".z c #fcf509",
".A c #682021",
".B c #07a893",
".C c #e6bb84",
".D c #2c8698",
".E c #095649",
".F c #a7694e",
".G c #67483a",
".H c #d4a56a",
".I c #d2d7db",
".J c #f9fcf9",
".K c #68777e",
".L c #887460",
".M c #481c38",
".N c #772b26",
".O c #3a2820",
".P c #099383",
".Q c #bbc7d0",
".R c #4ca4b0",
".S c #303842",
".T c #581d1c",
".U c #a13925",
".V c #aab9ca",
".W c #572c23",
".X c #744e64",
".Y c #a95a40",
".Z c #f6a86b",
".0 c #90583f",
".1 c #d87953",
".2 c #191821",
".3 c #914751",
".4 c #843e6c",
".5 c #d8885b",
".6 c #180c1f",
".7 c #8fb5bf",
".8 c #515b64",
"#` c #fbda0a",
"#. c #88768c",
"## c #840894",
"#a c #de4890",
"#b c #6ac5d7",
"#c c #671b6b",
"#d c #b47abc",
"#e c #6f6523",
"#f c #f989b6",
"#g c #b04a78",
"#h c #ee66a0",
"#i c #ccb0d0",
"#j c #30bbbe",
"#k c #ca3a7e",
"#l c #738690",
"#m c #b7e0e7",
"#n c #769ca7",
"#o c #b9981b",
"#p c #ac2464",
"#q c #b0a868",
"#r c #b88655",
"#s c #a492ac",
"#t c #09786e",
"#u c #3c5250",
"#v c #646860",
"#w c #5cd0dc",
"#x c #8f781c",
"#y c #c9b61e",
"#z c #dcb381",
"#A c #e65898",
"#B c #c85e48",
"#C c #d9d719",
"#D c #ec9966",
"#E c #bcbe7c",
"#F c #e2f6f9",
"#G c #a41b5c",
"#H c #7a2a8a",
"#I c #aa7655",
"#J c #f8a8bf",
"#K c #f4bcc4",
"#L c #a631b4",
"#M c #891998",
"#N c #b7891c",
"#O c #f1d8e4",
"#P c #71789a",
"#Q c #fb97c2",
"#R c #fbc989",
"#S c #547682",
"#T c #a09854",
"#U c #efc5d7",
"#V c #b446cc",
"#W c #b9b727",
"#X c #713931",
"#Y c #75563c",
"#Z c #6dd1e1",
"#0 c #fbc679",
"#1 c #f279a6",
"#2 c #781b88",
"#3 c #481148",
"#4 c #51473e",
"#5 c #8f9aac",
"#6 c #a1d3da",
"#7 c #94265c",
"#8 c #7792a2",
"a` c #7c4294",
"a. c #df3b89",
"a# c #bfd1e1",
"aa c #7c7628",
"ab c #b5905f",
"ac c #a89c94",
"ad c #898ba1",
"ae c #f0d9b0",
"af c #d72779",
"ag c #8c50b4",
"ah c #34aacc",
"ai c #365870",
"aj c #247274",
"ak c #fcf1a5",
"al c #781435",
"am c #9827b2",
"an c #97674a",
"ao c #d99665",
"ap c #d8b613",
"aq c #b9e7f1",
"ar c #e8ceb4",
"as c #89369a",
"at c #546260",
"au c #dcc70f",
"av c #19262a",
"aw c #99a6b9",
"ax c #d7678c",
"ay c #997655",
"az c #b9b8bb",
"aA c #b6593b",
"aB c #12bc9f",
"aC c #54135c",
"aD c #bc9678",
"aE c #4ec2cc",
"aF c #c4bcc6",
"aG c #dcaf6f",
"aH c #34969c",
"aI c #5c0a2c",
"aJ c #564916",
"aK c #b86539",
"aL c #d66a4c",
"aM c #596876",
"aN c #7a4b19",
"aO c #f8cc11",
"aP c #969794",
"aQ c #193934",
"aR c #085c60",
"aS c #774935",
"aT c #78797c",
"aU c #776755",
"aV c #d1b6a7",
"aW c #b97554",
"aX c #a9c4ce",
"aY c #bcaa9c",
"aZ c #781f1f",
"a0 c #bc9ad4",
"a1 c #743a8c",
"a2 c #954730",
"a3 c #978d81",
"a4 c #d8a71a",
"a5 c #e1e7eb",
"a6 c #361436",
"a7 c #fab97f",
"a8 c #b86849",
/* pixels */
"`S`S`S`S`S`S`S`S`S`S`S`S`S`S`S`S`S`S`S`S`S`S`S`S`S`S`S`S.B`S`S.B.B`S.B`S.B`S`S`S`S`S`S`S`S`S`S`S",
"`S`S`S`S`S`S`S`S`S`S`S`S`S`S.B`S`S`S`S`S`S`S`S`S`S.P`S`S`S`S`S.B`S`S`S`S`S`S`S`S`S`S`S`S`S`S`S`S",
".P`S`S`S`S`S`S`S`S`S`S`S`S`S`S`S`S`S`S.P`S`S.B`S.B.B.B.B.B`S`S`S`S`S`S`S`S`S`S`S`S`S`S`S`S`S`S`S",
"`S`S`S`S`S`S`S`S`S`S`S`S`S`S`S`S`S`S`S.B.P#t`PaR`b.EaR#t.P`S.B.B`S`S`S`S`S`S`S`S`S`S`S`S`S`S`S`S",
".P`S`S`S`S`S`S`S`S`S`S`S`S`S`S`S`S`S#t.t`Gav.O`jaJ`j.O.2`G`i`P`S`S`S`S`S`S`S`S`S`S`S`S`S`S`S`S`S",
".P`S`S`S`S`S`S`S`S`S`S.B`S`S`S.B#t`i.6.e#o.q`E.z.z.z.z.q`s.e`I`G#t.B.B`S`S`S`S`S`S`S`S`S`S`S`S`S",
".P`S`S`S`S`S`S`S`S`S`S`S`S`S.B`b.6`o.q.z.z`E`E`E`E`E`E.z.z.z`E`o.6`b.B`S`S`S`S`S`S`S`S`S`S`S`S`S",
".P`S`S`S`S`S`S`S`S`S`S`S`S`S.t.Oap.z`E#``E`E.z`E.q`E.z.z`E`E.z.z#y.O.t`S`S`S`S`S`S`S`S`S`S`S`S`S",
".P`S`S`S`S`S`S`S`S`S`S`S`S`i`T#`.z#``E.z`Eau#o#q#E#q#T`s`E.z.z`E.z#``V.t.P.B`S`S`S`S`S`S`S`S`S`S",
".P`S`S`S`S`S`S`S`S`S`S.B`i`T`E`E#``E.z#y.caY`Ra5#da5a5aPaU#o.z.z.z.z`E`V.t`S`S`S`S`S`S`S`S`S`S`S",
".P`S`S`S`S`S`S`S`S`S.B.t`4`E#``E`E#C`o#2ag.J.J#d###d.J.Ja`#caSau.z`E.z.q`V`b`S`S`S`S`S`S`S`S`S`S",
".P`S`S`S`S`S`S`S`S.B`b.O#``E#``Eau#v`v#V#M#i#Uamam#M`Qa0am#La1aU#y.z#`.zau.OaR.B`S`S`S.B`S`S`S`S",
".P`S`S`S`S`S`S`S.B`P`I.h`E#``E.z#oaz#5`M#Las#L#Masam#Lam#L###i.u#N.z`E`E.z`s`G`..B`S`S`S`S`S`S`S",
".P`S`S`S`S`S`S`S`.`G#o`E#``E#``E.q`2.J.Xasam#Ma`#s#2amamam`m#F.c`E`E#``E#``E#x`G.P`S`S`S`S`S`S`S",
".P`S`S`S`S`S`S.B`i.e`E#`#`#``E#``E`a.I.I`vamaCa0.J`m##am`v`RaF#o`E#``E#`#``E#``j`b.B`S`S`S`S`S`S",
".P.B`S`S`S`S`S`P.OaO#`#``E#`#`#``Eap.c.Jad`z#..J.J`7a1`zac.Jay.h#`#`#`#`#`#``E`s.k#t.B`S`S`S`S`S",
".P`S`S`S`S`S.P`G#N#`#`#`#`#`aO#`aO#``oaF#s``adaw#l#l.`.6azaF`a.zaO#`#`aO#`aOaO`E#e`i`S`S`S`S`S`S",
".P`S`S`S`S.B.t`VaOaOaOaOaOaOaOaOap`o`V.S.`adawac.u.u#iac#v#4`V`oapaOaOaOaOaOaOaO`H`I`P.B`S`S`S`S",
".P`S`S`S`S`.`G`e#`.h.h`H.h`H`e`T#4aT`Q.J.J.J.J`7`7#F.J.J.J.J`QaT`VaN`e`H`H`HaO.h#`#e`i`S`S`S`S.P",
".P`S`S`S.B`b`VaO`H`Ha4`H`e`T`jaw.J.J`RaP#v.S`8.2.6.2.2.Sat.n.I.J#F.n`kaN#N`ea4ap`H`s.k#t.B`S`S`S",
".P`S`S`S.P`G`6aOa4a4`e`6`kaT#F.I`r.S``````````````````````````aQaT#m`R#v`k`o#N`ea4`HaJ.t.B`S.P`S",
"`.`S`S.B#t.2`sa4#N#N`T`Z.uaXat``````.b`p`d.d.y`d`d`d.d.d.o`p.b``````.8aX#n.O`3`A#Na4#x`i.P`S`S`S",
"aR.B`S.BaR.O`s#N`o`T`Zaw#S``````.o.A.T.A.N.ja2.j.N.N`CaZ.N.A.A.d`p``````at#n.O`T`o#N#o.2`..B`S`S",
".p`P.B.B`b`j#N`o`4.O#l`Z`````````p.WaA`K`J.l.l.1.5.5.5a8aA.j.U`w.b````````aQ#v`F`4`o#N`I`..B`S.P",
"aoaQ.P.B`b.O`o.G.k#uav``````````````.0#D.5`N#Da8.1.l`Nao`J.5a8.b````````````.2`Z`IaJ`o`F#t.B.B.E",
".C.G#t`u`b.2#e.O.b.b``.k`G.S.2````````#Y#R`0a7.f#Da7#0.5#0.a`F```````Z.S```G.b.b.b.O`3.k#t`u`...",
".Cab.t`u#t.b`V.k`````4.p`G#P`xat`G``````.p`n#R`0#r.mao`0#0.O````.2`B`x#5aM`G.O`G``.o`k`G`S`u`bab",
"aGa7.p.P.P`i`I`G.y.Wa2.W`8..aXaX#5.2``````.O.CaWan#R#Y.gaJ````av`x.Q.Q.V.7aM`8.d``.o.d`b`u`.#u#R",
".g`tay.E.B#t.k```4`C.U`w..`8#8a5#F.Qav```````Z`Iay#0`p`I````.2aX#F`7#F.Ja#ai.O`w.y.b`I`.`u`b#r.m",
"#r#R.C.S.P`SaQ.y.j.j.U.T`r`2`G.Q.J.J.I.S``````.k.ga7`I````aQ.I.J.J.J.J.I.S.p`Z`C.A`p`b`u`..p#0#R",
"`4#0.m.0aR.PaJaZ.N.U.j`waU`7`2av.Q.J.J.I.p````.c`0.a.#``#4a5.J.J.J.JaP.S#lac`Ia2.TaZ`j`u`b`6.m`0",
".T#I.m.g`i`b`CaZ.d.U`d`C.Gaeak.u`8#l.J.Ja5...b.CaWaW.F.k`R.J.J.J`Q`D#v`Q`7.#.W.j`p`C`w.E`V.a#RaS",
".U.oaG.m.G.b.U`d`p`w.0`f.o.c#O.Jae.p`Faw`7aw```I.d.o`p#v.J`7aFat.paY.J.J`W.O.d`L.y.N.U```6.m.F.y",
"`K`d`ka7ab`p`L.o`Jao#0#R#r.oaSaDaeakaP.X.K#4.o.W.3#X`p#v`r.G#4ac.J.J`7aV.p.Wan.0`V`d.U`I.Cao`p.A",
".Y`f`k`Ian`I.b`A.Z.Z.m.m`t.C.0`k.o`k.G.G`I`p`U#J#J#Q`U.y#4.Lacaz`Ya3.G.O`4.C.m`5.Y.d.o`j#r.k`w.j",
"`JaZ`l.O``````.l.a#RayaD`t`takae.C`W#I.F`I.3#Q#K#K#J#f#g``aJ#Y`T`V`V#Y`W`t`naG`5`5.#.b`I``.Wa2.j",
".laZ`Aa8```````ka7.g``.G`t.m`t`t`naU.G.##Xax#J#K#U#J#Qax.dayanab`takak`t`tab#Y`n.C#4``````.l.N.Y",
".l.ja2#D`I``````.p.O``.kaG#R#R.g.W#d#J.X.T#1#J#O#O#J#f#h.O`v`U.4.G#0#0.m#0.O``aDay```````4.1.T.1",
".#aA.N.Z.W``````````````#Y`5.g`4#g#Q#Q`UaZ#1#J#O#O#J#f#h.N`U#f#f#c.0#0aG#r`````I`I``````a8`J`C.5",
"..an`4.Z.j.o.b```````````I#I`A`k.x#a#A#A#k#h#Q#K#K#J#1#h#k#h#h#h.x.W.Ya8.p`````````````I`N`Ka2#Y",
"`Bai`f.a`f`d.T````av..````aJ.O```L#Gafafaf#A#f#J#J#Q#1#ha.a.#k.x#7.banay````````````.o.d#D#B`V#8",
"#baM#I#0aK.ya2.b`G#n#8`G`````````paC`L`#af#a#1#f#f#f#1#Aaf.x#Gal.r``.p`8````...b``.T.W.W.aao`V`x",
".RaM.H#0.5.y`K`f```B.7.S``````````.6`p`d#Ga.#A#1#f#1#h#a#p`L`p.r``````````.S#n.2`k.0`daS.Z#R.0`B",
".D`D.a.a#D.d.NaL`kav.7#S`````D`D``````.2`Laf#a#A#h#h#A#kal````````````````#l..`4.1`K`p.Ya7a7.#aj",
".D..`0.a.Z.A.T`N`A``..#nav.8aX.V`F.2adat`p#G`ya.#a`h#k#G`d.S`F``.8aM````..`B.k`5.1a2.ba8.f.f#Y`.",
".s`.#e`5aK`4.T.1#D.d``..aM`x.V.Vawad.Qawa6aI#p`y`y.x.xal`Fad#P#P.V#5#Pav#naQ.W.Z.l.T.Wa2#r.0`baB",
".s`u.t.O`e.0.yaK.ZaNav.8.S`Oawa#.V#5aF.V#P`8`dal`#al`d`8.`.Vaw.V#Oa#.V#8ai``an.ZaA.oaU#D`f.k#taB",
".s.P`Z.g`X`F.baA#0`3`D.V.`.8`Dad.Qawa5.I.u#P.S.2.6`8.S.`awa#.Va#.Ja5#P.S...b.F.aaA.b.E#r.a`V`PaB",
".PaQ`3.w`T``.b.Y#0`A.``R#8aw#5.8.S.pa#.J`7aXaw#lai#8#5.Q.J.J.V.u#5`O`O#S`x`F.F.a.l.b`P#u.Z.#`baB",
"`Bav#r`X.k`q.baK#0an`r`7#5`R#F`Q`F`````F`D`D`D`F.S.8.`#l`r.``I.2#Saw#6#S#n`D.##0#D.W`iai#I.g`i`S",
"`B`F#N`Tav`O`pao.m`3.``R.7.J.J.J.`````````````````````````````at#F`7`7`x`xaM.G#0.a`o`GaR.eaKav`.",
".K`F.#aUaX#u`k#0#0aS.KaM.K.J.J.Jat`d```````pa6.d.o.o`8````````.K.J.Ja5#l.K#5.pa7.a.C.Q.naa`4`G#t",
".ua##maq#F.n#r.m#0.G.Iaz.p#l.u#l.L`#`4`w.N.j`C`C`C`C`C.N.T.o.O.p`r.K#5.``Ya5.p.g.m.m.J`R#6#q#vaH",
"aq#Zah#Z#m`W.a.w.a.p.IaFaF.Iadac#z.0`t.Y`#`#`#`#aZ`#aZal`CaWar.Yana3.J`Q.na5`Dab.m`0ara#aE.i.J#m",
"#w#jaEaq`x`5#R.m.m`4#5aw.I.J.Ja3a2`0#z.T.AalaZaZaZaZ`wal`Lanar.Y.1aV.J`QaT.V.G`n.w.faV`R.v#j#6`R",
"aq#w.ia#aT#Da7#R.waG`k`Zaz#O`Q.2.y`faS.Aa2.0.Y.Fayayan.G`w.d.#`w.ya3`7.Qat.p#r`t.m.a`la5#b#Z#b#m",
"a5.i.i.7.0ao.Z#0.m`t#z.0`V#YaSaSay.g#z.m`takakakakakak`tae#zaD#I`4#4aU.G`V#I`t`t#RaoaW.Q`g#F#m`g",
"aq.i#w`.#X#D`Nao#R.m`t`t#R.m.m.w`tak`t.m#R`0#D.5ao`l#Da7#R`takak`t#R.CaG.m`t`t.m#DaWa8ad`gaq#6#w",
"aHaE`u`.`Fa8`N.1.1#D#0#R.m.m#0#R.aao.l`K.N.N.A.A.A.A.AaZ.j.0.l`0#R.m`t.w.m#0.Z.l#B.l.Yav#w#b#b#Z",
"`..P`S`S`ba6aA`N.1#Ba8aK`J.1`J`K.j.ja2.Y`5aoaG.a.C.a.H`5aWa2.j.ja2aA`J`Ja8aA`K#B.1.0`I`b`uaEaE#j",
".P.B`S`S.P`b`p.Aa2`J`JaAaKaA`AaW#D.C.m.m`t.m.m.m#0.m.m.w.m.m#0`0ao`JaA`K`KaAaA.0.W.b.E`S`S`S`S`S",
".P`S`S.P`S.P`P`i.6`p.d.W`w`w`J.a#R.m.m.m.m.m`t#R#r#R.m.m.m.m.m`t.m.a.5a2#X.A.o.b`i#t`S.P`S`S`S`S",
".P`S`S`S`S.P`S.P`P`G````.b.y.j`Na7#0.m.m.m.m.m#0.0#0.m#R.m.m#R#R#0`N`f.T.6````aR.P.P`S`S`S`S`S`S",
".P`S`S`S.P`S.P.PaR````````.b`da8.Z.a#0#R#R#0.m#D.W`0a7#R#R#R#R#0.ZaW.d.b.b````.E.P`S`S`S`S`S`S`S",
".P`S`S`S`S.P.P#t`G````````````.NaL#D.Z.a.a.Z.Z.0``.0.Z.Z.a.Z.Z#D.1#X.b`````````i`.`S`S`S`S.P`S`S",
".P`S`S`S`S`S.P`i`p.r``````````.b.j#BaL.1.1.l`f.k``.b.U.1`N`N.1`J`f`p````````.b```P`S.P`S`S`S`S`S",
".P`S`S`S`S`.`b`paC#3.r``.o.d````.b.T.N`f`4.o.b````````.d.ja2`f`4.6````.b```pa6.bav`..B`S`S`S`S`S",
".P`S`S`SaR`q`FaC#2#c#3``.o.j.T.b````````````````````````````.b````.b.d.o``.r#c`z.b`q`b`P.B`S`S.P",
"`..B.P.taa#xa6#M#2#2#c.6`k`J.U.A`p```````````````````````````````p.A.U.M``aC#2#2.raa#W`Z.t`..B`S",
".P.P`i`o.qaJ#c#2#2`M#H`8.G.ZaL`K`C`d`p`p.b`p`p.y.y`p.y`p`p`p.y.T.j.UaL#X`p#M#2as`v`k#C#C.e`G#t`S",
"`PaQ`a#C`c.O#2`M`M#H`M#3#Ya7.a`N`J`K.j.N.A.A.A.A.A.A.A.A.A.N.j`K#B.1#D.XaC`M`M#Has`8#W.z.z`a`i`P",
"``#e`1`1#ea6#H#c`v`v`v.r.pao`5`5.l.F.3`f#X.N#X#X.N#X.j.j.j`f`K#B.l.l.5.p#3`v`v`v`v.r#e#W#T#Waa`G",
".2.2.k`F.k.6`8.6.b`I.6.2.6`p`p.y`8.y.o.o.y.b.b.b`p.6`p`8`I.ya6.ya6.y`p`p`p`p`8`p.b.6`G.6```G.k.2"
};
