/* XPM */
static char *w13_xpm[] = {
/* width height num_colors chars_per_pixel */
"    48    73      256            2",
/* colors */
"`` c #050306",
"`. c #108a5c",
"`# c #91194d",
"`a c #8c8726",
"`b c #084745",
"`c c #d0c81a",
"`d c #46111b",
"`e c #d28a3a",
"`f c #875123",
"`g c #062728",
"`h c #94c4b8",
"`i c #d492a8",
"`j c #534638",
"`k c #c45224",
"`l c #472d1a",
"`m c #260a14",
"`n c #d1a919",
"`o c #8c547c",
"`p c #e8c696",
"`q c #606618",
"`r c #bc462c",
"`s c #89720f",
"`t c #868994",
"`u c #fce79a",
"`v c #5a285f",
"`w c #871d8f",
"`x c #18b29c",
"`y c #672c24",
"`z c #6a8692",
"`A c #e4e824",
"`B c #4f145c",
"`C c #2a241b",
"`D c #4b4b52",
"`E c #281416",
"`F c #dba66a",
"`G c #ab5439",
"`H c #86a6b6",
"`I c #096763",
"`J c #08181d",
"`K c #ec894f",
"`L c #d0cfd9",
"`M c #04a08f",
"`N c #6c181a",
"`O c #d0a884",
"`P c #8b382b",
"`Q c #d0ca74",
"`R c #cb6f46",
"`S c #674813",
"`T c #313624",
"`U c #f1a466",
"`V c #496576",
"`W c #dee6ea",
"`X c #2d1935",
"`Y c #523914",
"`Z c #a67915",
"`0 c #9ca744",
"`1 c #471e19",
"`2 c #723a25",
"`3 c #e9ac81",
"`4 c #765614",
"`5 c #d28857",
"`6 c #a6aab3",
"`7 c #f4ca10",
"`8 c #8a5442",
".` c #371817",
".. c #8c3697",
".# c #9f372c",
".a c #dc7096",
".b c #3caa99",
".c c #f8b86f",
".d c #a78922",
".e c #28472c",
".f c #2c2734",
".g c #69686f",
".h c #fceec4",
".i c #f9a9c4",
".j c #18070b",
".k c #fcd68f",
".l c #06a996",
".m c #af256c",
".n c #a9623d",
".o c #191612",
".p c #c79869",
".q c #270b32",
".r c #346a40",
".s c #af9b89",
".t c #063840",
".u c #8f9596",
".v c #fcc6d2",
".w c #8d4730",
".x c #8e6243",
".y c #aa8962",
".z c #482d2e",
".A c #d2b915",
".B c #892a90",
".C c #d4e238",
".D c #097970",
".E c #6f4734",
".F c #b26f45",
".G c #762a20",
".H c #6ca64c",
".I c #735954",
".J c #f6bb80",
".K c #b0c8c4",
".L c #fad90b",
".M c #e4f62c",
".N c #ec9a61",
".O c #2c8b8c",
".P c #380b0e",
".Q c #cf794e",
".R c #c0d5da",
".S c #571f1a",
".T c #94796f",
".U c #6f1380",
".V c #d6dbdf",
".W c #6a7887",
".X c #ad7a54",
".Y c #561219",
".Z c #c62d7a",
".0 c #281c1a",
".1 c #f4ac6b",
".2 c #181827",
".3 c #0c877b",
".4 c #ac2162",
".5 c #87b9d7",
".6 c #4b3a37",
".7 c #a4be8c",
".8 c #fafdfb",
"#` c #8e9aac",
"#. c #5cb69c",
"## c #d44f87",
"#a c #4ca6bc",
"#b c #5cded4",
"#c c #cc3f7a",
"#d c #fac57a",
"#e c #b0406c",
"#f c #ac6a8c",
"#g c #73762f",
"#h c #f688af",
"#i c #ac6070",
"#j c #e85e99",
"#k c #948a64",
"#l c #287e6c",
"#m c #7a2a86",
"#n c #b4a929",
"#o c #c4aac7",
"#p c #926e4e",
"#q c #597a8f",
"#r c #79a2b4",
"#s c #776734",
"#t c #8b291f",
"#u c #34544e",
"#v c #e0d914",
"#w c #485418",
"#x c #af971d",
"#y c #f16ea1",
"#z c #3cbaac",
"#A c #a870b0",
"#B c #a8985c",
"#C c #76858e",
"#D c #075853",
"#E c #dfb76a",
"#F c #f697a4",
"#G c #4a585f",
"#H c #fbd77b",
"#I c #b4b53f",
"#J c #896218",
"#K c #244a64",
"#L c #847e8c",
"#M c #ebb919",
"#N c #9856a8",
"#O c #e2428e",
"#P c #fcb9cf",
"#Q c #f7d9e2",
"#R c #ca9b1c",
"#S c #fce65c",
"#T c #689688",
"#U c #6f1639",
"#V c #705680",
"#W c #b8c7d4",
"#X c #581f5f",
"#Y c #d4b690",
"#Z c #681f75",
"#0 c #cc5e84",
"#1 c #a44ab0",
"#2 c #a466b4",
"#3 c #c56340",
"#4 c #7693a6",
"#5 c #6b3838",
"#6 c #d52e7f",
"#7 c #b0b9c2",
"#8 c #e0f2f8",
"a` c #947c48",
"a. c #a527b0",
"a# c #3c6284",
"aa c #33393f",
"ab c #099183",
"ac c #7c3c88",
"ad c #5f663f",
"ae c #775941",
"af c #a77e64",
"ag c #8c9d61",
"ah c #f67cab",
"ai c #997c1f",
"aj c #992bb4",
"ak c #dec710",
"al c #fbcb88",
"am c #186a6c",
"an c #b98917",
"ao c #595926",
"ap c #7cd2c4",
"aq c #9c6274",
"ar c #f0eff3",
"as c #c4bec4",
"at c #985424",
"au c #1a272e",
"av c #fcf09a",
"aw c #951ca2",
"ax c #5a666d",
"ay c #f8ae81",
"az c #a6412a",
"aA c #d9975f",
"aB c #1a3a3c",
"aC c #b8895a",
"aD c #787982",
"aE c #3c728c",
"aF c #6a201d",
"aG c #b86442",
"aH c #662132",
"aI c #77adbf",
"aJ c #b4a254",
"aK c #6090ac",
"aL c #572a1d",
"aM c #dfa71c",
"aN c #fbe809",
"aO c #382619",
"aP c #9ba7b6",
"aQ c #e58b63",
"aR c #774917",
"aS c #b8acb8",
"aT c #985339",
"aU c #394637",
"aV c #78686c",
"aW c #370d3c",
"aX c #572837",
"aY c #bfcab9",
"aZ c #99b8c4",
"a0 c #7c7254",
"a1 c #b89470",
"a2 c #f798b7",
"a3 c #394654",
"a4 c #9776a4",
"a5 c #fcf40a",
"a6 c #575d6a",
"a7 c #771d84",
"a8 c #1c464c",
/* pixels */
"`M`M`M`M`M`M`M`M`M`M`M`M`M`M`M`M`M`M`M`M`M`Mab`M`M`M`M`M`M`M`M.l`M`M`M`M`M`M`M`M`M`M`M`M`M`M`M`M",
"`M`M`M`M`M`M`M`M`M`M`M`M`M`M`M`M`Mab`Mabab`M`M`M`M`M`M`M`M`M`M`M`M`M.l`M`M`M.l`M`M`M`M`M`M`M`M`M",
"`M`M`M`M`M`M`M`M`M`M`M`M`M`M`M`M`M`M.l.l`Mab.D.D.D.Dab`M.l`M`M`M`M`M`M`M`M`M`M`M`M`M`M`M`M`M`M`M",
"`M`M`M`M`M`M`M`M`M.l`M`M`M`M`M`M`M`M`I.t`g`J.2.o`Cau`J`g`b.D`M.l`M`M`M.l`M`M`M`M`M`M`M`M`M`M`M`M",
"`M`M`M`M`M`M`M`M`M`M`M`M`M`M`M.l`I`J.o`S.d.Aak#v#vak`nai`Y.o`J.D.l`M`M`M`M`M`M`M`M.l`M`M`M`M`M`M",
"`M`M`M`M`M`M`M`M`M`M`M`M`M`M`M.t`m`s`7a5a5a5a5a5aNa5a5a5a5ak#J.j`b`M.l`M`M`M`M`M`M`M`M`M.l`M`M`M",
"`M`M`M`M`M`M`M`M`M`M`M`M`M.3`J`S`7a5a5aNaNa5a5aNa5a5a5aNaNa5a5akaL`g`..l`M`M`M`M`M`M`M`M`M`M`M`M",
"`M`M`M`M`M`M`M`M`M`M`M`M.3`J`Za5a5aNaNaNa5ak#x#n#n.A`7a5a5aNaNa5aN`4`Jab`M`M`M.l`M`M`M`M`M`M`M`M",
"`M`M`M`M`M`M`M`M`M`M.l.D`J#xaNaN.LaNa5`c.y`6`L`L.V`L.yaiaka5a5a5a5a5#J`J.3.l`M`M`M`M`M`M.l`M`M`M",
"`M`M`M`M`M`M`M`M`M`M.3`JanaN.LaNa5`caT#Var.8ar#1#2.8.8a4.U#s#va5a5aNaN`s`Jab.l`M`M`M`M`M`M`M`M`M",
"`M`M`M.l`M`M.l`M`M`M`J`ZaNaNaNaN#x`Baj...V.8#Na.`w#o.8#2aj.U`j.Aa5`Aa5aN`4`g`M`M`M`M`M`M`M`M`M`M",
"`M.l`M`M`M`M`M`M`M`g`4aN.LaNaN.A.ua4a.a.#A#oawa.aw#1#Aawaj..`L.xaNaNaNaN#v`Y`b`M`M`M`M`M`M`M`M`M",
"`M`M`M`M`M`M`M.l`b`l.LaN.LaNaN#va1araca.aja.a.#N.Bawawa..U#o`L#xa5aNaNaNaNak.0`I.l`M`M`M`M`M`M`M",
"`M`M`M.l`M`M.l.D.o.AaN.LaNaN.La5#x.V`La7ajawac`W#o.Ua.aw#V.8#k#vaNaNaNaN.LaN#x`J.D.l`M`M`M`M`Mab",
"`M.l`M`M`M`Mab`J`Z.L.LaN.LaN.LaNak`t.8a4.U#X#W.8.8#A.U#X.V.VaiaN.L.L.L.LaN.LaN`S.t`M`M`M`M`M`M`M",
"`M`M`M`M`M.l`baL.L.L.L.L.L.LaN.LaN.d.Var.q#V`L#7#7`6`m#V.8.uakaN.L.L.L.L.L.L.Lak`E`I.l`M`M`M`Mab",
"`M`M`M`M.l.D`J`n`7`7.L`7.L`7.L.L#M#J.z.g#GaD.g#LaD.TaDa6.IaO`s`n`7.L`7`7.L.L`7aN`s`J`M`M`M`Mab`M",
"`M`M`M`M.l.taR`7`7`7`7`7`7`7#R`4`l.g#7`W.8.8.8.8.8.8.8.8arasa0.6`San#M`7#M`7`7`7ak`C`I.lab`M`Mab",
"`M`M`M`M.3.o`n`7`7#MaM#M#RaR.6#`.8.8ar`L.u#C.ga6axaxa0.u#7#8.8.8`6.6`YanaMaMaM#M.L#J`g`M`M`M`M`M",
"`M`M`M.l`b`Y`7#MaMaM#R#J`1.u.8araP#G.o`````````````````````Ja3`t.V#8.u.`aR`eaMaM#M`n.0`I.l`Mab`M",
"`M`M`M`M`J`Z#M`nan`Z`Y`j`L.Vax.o```````E`E.``E`E`E.``E`E`m.j``````#G.K.RaU`1`Zan#R.A`S.t.l`M`Mab",
"`M`M.l.D.2#R#Ran#J`lad#W.g```````E`d.Y.SaF.G#U`NaH#U.G.GaF.S`d.`.j````#GaZ#G.``f`Z`nai`g`M`M`M`M",
"`M`M.l`I.0#R.d#JaO`D#`.2``````.jaL`2`P`GaG.F`R.FaG`GaT.##t.##t#taH.S`m```J`z#G.`aR.dan.2.3.l`M`M",
"`M`M.l`b`T`Zae.``Tax```````````````8`3.F.Q.N`5.N`U.1.c`U`UaQ#3az#t`P`l``````aU`C.``4ai.o.D.l`Mab",
"`M`M.l#D.0#s`Y``.e`J````.j`J````````afal.FaA.1.NaA.1.Q`5.1.1.1.J`3`y``````````.2.o`Yao.o.D.l`M`M",
".D.l.l`I.j`SaO`````1`EaB#q#4ax.2```````O.kaA.c#d#H.1.p.c`F.c.kalae``````````.j``.j`C`Y`Jab`M`M`I",
"aB`M`M.3`J`l`C```daF`E#q.5#W#W#raB````.0`p.k.n.1.k.X#E#H#H`u#E`T`````````J.o.G.```aO.`.t`M.l.D`D",
".x#D.l`M.t.j.o`m.#.Yau.5`W.8#8#8as.f````aO.T.o`F#H.E`F`u#d.X.o``````au#4#G.zaF`P.j`E.j.D.l`M.t`O",
"`3.zab.lab`J.P.G`k.Yau#War.8.8.8.8.R.f``````.0.c#daO`laf`Y`````````V.R#8.Waa`1`k`d.j#D.l.l#Da0`u",
".k.F`b.l.laU`NaF`kaF`C#`.8.8.8.8.8.8`L.2````a`.c.N.x``````````.2#`ar.8`W.W`X`y`k.Y#t.e`xabaBalal",
".kalaL.D.O.G#t`m`P.G.Eau.K.8.8.8.8ar.8#W.f``.y.naR.X.j``````ax`W.8.8.8aP`D.P.waF.j`r.Y.D#Daf.k`O",
"`F.kaC`gaU#t.Y.0aR`G`8.`au`t.V.8.8.8.8.8aP```1aL.z.````D#C.V.8.8`W#7.g.f`8.X`G`f`E#t#t`Jaa.JalaT",
"#5alal.6`E.Y`YaCaA.JaC.J.TaL.z`D.g`t#``6aa.S.a#F#F#0aO#C`6aDad`D.6`jaq`iayayayayaCaL`P.j.Xal.X.`",
".`#5.k.p.j`1.paAaA.p.k`u`u`u#Ya1#p.x`f`l`dah.i#P.i#F#j.j`laf.s#Y`p.iar#Q`p.k`3.x`U.n.Y`1.J.X.j`2",
".G.0aLaC.j`S`3.caC`C`pal.k.k`uav`p#p.x.I`8#F.i#Q#P#FahaH.I.Tae#Y.h#F.i.a.ial#p.z#YaA`1.o`j.j`l.w",
".GaG.0````.o.p.c.6``.Tay#Y.k.k.p#5#f`o.j#ia2.v#Q.va2ah#e.jaq#faH.y.k.a#y#H`paO``#Ba1.j`````j.w.w",
"`2`G.n``````aO`j````.o`3`5.N`F`y`i#Pa2aH##a2.v#Q.va2ah#e#5#P.i.a.S`O.k.k#E.I`````TaO````.j.Q.GaG",
"at`P.Q`1``````````````ae.F`kaTaH#jahah#c#c#F#P#Q#P#hah#c#0ah#y#j.Y.xaf.Ea1.j````````````aR`RaL.Q",
"af`y.Q.w``````````````.0`laTaT.Y.m#6#O#O#cah.i#P.i#h#y#O#O#O#6.Z`dae`l`C.6````````````.j.Q`G.w.X",
"`z`2`R#3.``E``````au````.o`m.0`m`#`#.m#6#6#y#ha2#Fah#y#O#6.Z.4`#.j````au````au```````m`1aQ.w`Ga0",
"#a.6`e.Q.S`y`````VaIau```````````E.Y.Y`##6#j#yahah#y#j#c`#.YaW.j``````````.o.W#u```E`y`l`U.FaR#r",
"aI.6ay.N.S.G.G.ja#.5`V````````````````.P.4#O#j#y#y#j##.m`d````````````````#G#r`V.2.w.S`2.c`5.6.K",
"aKa0al`U.GaL#3`y`JaI#4.2````a3``````.f.j#U#6#O###j###c`#.qau`````C.f`````J#4aK`g.E#3`d`f.c.cae#T",
"aE#p#d.1at.``R#3`E#K.5#K.o#C#Wax``a3aPa3.P`##6#6.Z.Z.m`BaaaPaa`J`taPa6```VaIaB.P.Q#3.P.F#d.J.X#l",
"am`S#H.1.n.PaG`K.w```V#q`H#7aZ#7#q`6`L`t.q.Y`#.4.4.4#U.j#LasaP#C#7#W#W`t#4aa```8`K`G.P.F.1.c#p.3",
"#l#u.E`eaA`y`f`e`e.Pau`D#`.V`W.V`H#W.V.RaD`X.qaWaW.P.q.W#7`L#WaZ`War`W`z#uaa.j`5.N#taR.N.n`SaU.b",
"`x`.aU#Eae.j`2`K`U`y.g#4`V`taZ#7#C`W.8ar`L`H.W.f.fax#`#7.R.8#WaP.V`6.W#q#4`zaa`U`KaL`maR#M.xaB.b",
"ap`I#E.X`m``.``e.cat`t`H.V.V#7aP`V#L#`aP#`#`#`a3ax#`#``taP`6.W.WaP#7.V.V#r`H.I.c`K`m``.j.y#H`T.b",
"`h.r#E`yaF``.jaC#H.F#L#W#8.8.8.8#W`L.V#W`6`ta6.qaB.W`tas#W`W`L`W.8.8.8.8aP.5ae#d.Q.j.0`4`Y`u`j#l",
"ag#s`R`P`2````.FalaCa3`zar.8.8.8#W.8.8.8.8.8.8`tas.8.8.8.8.8ar.V.8.8.8.V`z#Cae#HaQ.j``#J`l#E`a#T",
"`0`Y#t`P.P`J``.n#HaC.I`6#`.8.8.8#War.8.8.8ar.8#7.V.8.8.8.8.8`W.V.8.8.8#`aY`6.E#H`F`E``aL`S#Jae.7",
"ag`YaF`1auau``.n#H`5.g.8#L.V.8.8aY.8.8.8.8.8.8#W`W.8.8.8.8.8ar.V.8.8.V#4.8#7`S#H.J`1.tau.S.`ao.H",
"aJad.`.f#u`V.0`e.kaA.6.8as`t.8.8`6.V.8ar`W.V.V#CaS.V.V`W`War#7aZ.8`W#`aY.8.g`f.kal.na8.O#uad#g.e",
"#u#Iaoa#agaJaL.1.kal.E#L#L.f.g.I.z.6.Iaeaeae`8.E`f`8.x.x`8.x.E.Ea0.E.6aV.T.E#Y#Hal.N`Y.O#b#.#l.D",
"`g`a#S#I`Q#p.nal#H.k`p.X.x.X.y`F#E.J#d.k.k`u`u`u`u`u`u`u`u.k.k.kal`p#d#E#E.k`u.k.1.c.naB#z`x`M.l",
".e`QaJ.d`Q`P.1.J.1#d#Havav`uavavavavav`u`u.k.k#H.kal.k.k#H`u`u`u`uav`u`u`u.k.J`K.N.caQ`Xab`x.l`M",
"aYaI`gau`Y.w.c#d`U`R.N`3.c#dal.J.c.1aA`5.FaTaR`2`P`2aR.waT.n`R.QaQ`5`5`5.QaG`G`Ray.J`U`l`I`x`M`M",
"`h.D.Dau.j`G.1.J#daQ`kazazaz`Paz#t.G.S.Y`1aL`y`2`y`yaFaF.S.Y.Y.Y`NaF#t#t`Paz`5.c.J.1.N`1#D.l`M`M",
"`Mabab`b.Y.#`Kay.cal.c.NaG`GatataT.F`5aA.1.c.J#d.J.J.c.1.1#EaA`e.Q`R.Q`5`U.c#d#d`U`U#3.o.D`M`M`M",
"ab`Mab`b.S.Yat.Nay.c#dalal#d#dal.k#Halal#d#d#d#d#d#d.c#d.cal#H.kalal#d#d#d#d.1`U`K.Q.S.t`M`Mab`M",
"`M`M`M`I.S.j`m`P`RaQ.Nay#dalal.k.k.k.k.k.k.kal#dal.k.kal#H.k.kal#d#d#d.1`U.N`K`R`G`d`J.3ab`M`M`M",
"`M`M`M#D`E#D#D`J.P`y`P.w`G.FaQ.Jal.k.k.k.k.k.kaCal.k.k.k.k.kal.k.c`5aGaGaT`P#5`1``.t.3`M`M`Mab`M",
"`M`M`M.D#Dababamau``.j.j.j.P`G.1#dal.k.k.k.kal.n#d.k.kal.kal.k.J.N`P`m.j.j````.j#Dabab`Mab`M`M`M",
"`M`M`Mab`M`.ab.3`g```````````y.N.J#dalalalal.J.E`3alalalalal#day.Q`d```````````J.3ab`Mab`M`M`M`M",
"`M`M`M`M`Mab`M`b``.j`````````maG`Uay#d.J#d.c`F`d`5.J.J#d#d.J.1aQ.w```````````````b`M`M`M`Mab`Mab",
"`M`M`M`Mab`M.D.o`maW.q````````aF.Q`K.N.N.N`UaT```yaQ`U`U.N`KaQ`G.`````````.q.q.q.j`I`M`Mab`M`M`M",
"`M`M`M`Mab.D`T`X#ZaW`E.j.j.```.j`y`G#3#3aG#5.j`````y`G#3`R`G.w`1````.P```maW#X.U.q.e.r.D`M`Mab`M",
"`M`M.l.D.e`s`C#X.B#m`B.q.j`P`d`````m.`.`.j````````````.`.``E.j``.j.S.G``aWa7a7`w`BaO#I#w.t`M`Mab",
"`M.l`IaB.Aai.q.B#m#m#m.``m`G.#aH`m``````````.j.j.j`````````````E`yaz`8.j#Z`w`wa7.B`X`0`Aao`g.3`M",
".l`I`T#n#vaU#Z#m#m#m.B`v`1.p#3.#.G.Y.P`m.P.P.P.P.P`d.P.P`m`d`N#t`G.Q.F`Xa7`w.B`w.BaWao.C#v`q`g.D",
"#D#w`c#v`c.za7.B#m..#m#m`d`3.J.N.Q`kaz`P`P`P`P`P`P#t`P`P`P`G#3aQ`U.Jaf`B.B.B.B.B.Ba7.6.C`A.M#g`g",
"`J`q`s`aao`X#X#X#X`vaX#X.q.I.F.F.x`8#5.E#5aX#5#5`y#5aX#5`2.E`8.xaq#p#5`X#X#X`vaX#X#X`Xad#g#g#g`J",
".z.2.2.f.2`X.f.f`C.f.f.f.f.q`X`X`XaXaO.z`XaO`E.o.2.0`C.`.f.`.``1`X.``X.f`X.f`X.f`X.0au`J.2.o`J.f"
};
