/* XPM */
static char *w14_xpm[] = {
/* width height num_colors chars_per_pixel */
"    48    73      256            2",
/* colors */
"`` c #060406",
"`. c #078c7e",
"`# c #8d164f",
"`a c #064846",
"`b c #948e2c",
"`c c #d8c516",
"`d c #4e0e11",
"`e c #cb9a1b",
"`f c #945228",
"`g c #5c430e",
"`h c #e4828c",
"`i c #06282d",
"`j c #c65e45",
"`k c #94ccd4",
"`l c #492d1b",
"`m c #5c6214",
"`n c #caa816",
"`o c #8e4e79",
"`p c #dcc89c",
"`q c #85878d",
"`r c #280a0e",
"`s c #8a691a",
"`t c #5e2876",
"`u c #4a4853",
"`v c #fce9a0",
"`w c #682c25",
"`x c #c22b72",
"`y c #59858f",
"`z c #541254",
"`A c #26281f",
"`B c #97a2a7",
"`C c #87352e",
"`D c #e4ae19",
"`E c #6b181b",
"`F c #e6895c",
"`G c #e0e624",
"`H c #d4a782",
"`I c #081821",
"`J c #086a5e",
"`K c #04a38f",
"`L c #684e51",
"`M c #ca6f46",
"`N c #d0c7d3",
"`O c #a96b31",
"`P c #486878",
"`Q c #281716",
"`R c #543a17",
"`S c #292e38",
"`T c #686677",
"`U c #a6523a",
"`V c #8c309a",
"`W c #e9a86c",
"`X c #c98759",
"`Y c #a6a69d",
"`Z c #e1e7ed",
"`0 c #481d18",
"`1 c #674924",
"`2 c #e9a984",
"`3 c #fac678",
"`4 c #67392b",
"`5 c #a6871b",
"`6 c #ca935e",
"`7 c #d76d8c",
"`8 c #f5b872",
".` c #697886",
".. c #208a94",
".# c #384533",
".a c #695611",
".b c #fcd790",
".c c #faa7c5",
".d c #aa3822",
".e c #059d8d",
".f c #b79929",
".g c #a7afbf",
".h c #18090d",
".i c #48565d",
".j c #301444",
".k c #eceaf1",
".l c #28322c",
".m c #90422d",
".n c #381814",
".o c #50184c",
".p c #af918c",
".q c #af7b1c",
".r c #a88561",
".s c #572b21",
".t c #181718",
".u c #591d18",
".v c #f5cb10",
".w c #d2a56b",
".x c #8a1f8f",
".y c #92503b",
".z c #063940",
".A c #8f6a48",
".B c #7a2b28",
".C c #705b54",
".D c #896e73",
".E c #73193f",
".F c #cb7b4e",
".G c #79482e",
".H c #d7895c",
".I c #ebb781",
".J c #b1bac4",
".K c #065756",
".L c #296a6c",
".M c #513b39",
".N c #fadb0b",
".O c #20aca8",
".P c #d4d9df",
".Q c #895f49",
".R c #8995a3",
".S c #370c11",
".T c #50aeb8",
".U c #392619",
".V c #f6a96c",
".W c #fcf409",
".X c #0ab09c",
".Y c #b05e43",
".Z c #722120",
".0 c #776a73",
".1 c #f588ab",
".2 c #dd518d",
".3 c #a1dfe1",
".4 c #ea9964",
".5 c #273b3e",
".6 c #d2ba14",
".7 c #a96949",
".8 c #fcd7ad",
"#` c #f8fbf9",
"#. c #71bbc1",
"## c #ce407e",
"#a c #ac3078",
"#b c #ac746e",
"#c c #54a0a8",
"#d c #afc4d1",
"#e c #ac606c",
"#f c #743a4c",
"#g c #6a1f77",
"#h c #8c261b",
"#i c #d9b681",
"#j c #b42568",
"#k c #364552",
"#l c #747214",
"#m c #ec698f",
"#n c #ba8ebe",
"#o c #f898ab",
"#p c #bce4e4",
"#q c #44583c",
"#r c #9ab7be",
"#s c #057871",
"#t c #b444a4",
"#u c #b49a6c",
"#v c #fac988",
"#w c #4c3e54",
"#x c #9c1f54",
"#y c #84865c",
"#z c #ccbdc2",
"#A c #dbf4f8",
"#B c #d4627c",
"#C c #798697",
"#D c #307e84",
"#E c #927d16",
"#F c #597584",
"#G c #471141",
"#H c #efd6e7",
"#I c #732a81",
"#J c #985aa0",
"#K c #b8d6dc",
"#L c #f07b9c",
"#M c #79653f",
"#N c #f7bbd1",
"#O c #f4cbde",
"#P c #54bec8",
"#Q c #ac78b4",
"#R c #365569",
"#S c #855f13",
"#T c #dcaac4",
"#U c #903e96",
"#V c #fc98ca",
"#W c #e04084",
"#X c #bcf2f8",
"#Y c #6f0d77",
"#Z c #fae808",
"#0 c #dc3274",
"#1 c #b17950",
"#2 c #d8948c",
"#3 c #977449",
"#4 c #b49ec4",
"#5 c #af9124",
"#6 c #872892",
"#7 c #fcf3a5",
"#8 c #249cac",
"a` c #44463c",
"a. c #84aac4",
"a# c #d46a6c",
"aa c #72543a",
"ab c #a435ac",
"ac c #747c4c",
"ad c #8d796f",
"ae c #ccd22c",
"af c #ba8f67",
"ag c #94425c",
"ah c #695d71",
"ai c #953524",
"aj c #794a54",
"ak c #faa99e",
"al c #767884",
"am c #575a65",
"an c #fab982",
"ao c #7a1b84",
"ap c #df7c4f",
"aq c #b0b094",
"ar c #a4a624",
"as c #fcc9b2",
"at c #ac5ea4",
"au c #988a94",
"av c #eaba17",
"aw c #fad17a",
"ax c #d99864",
"ay c #b9afc0",
"az c #1c3838",
"aA c #18554e",
"aB c #979ba4",
"aC c #6ecbce",
"aD c #177771",
"aE c #77382c",
"aF c #b8881a",
"aG c #ea5d98",
"aH c #6c6254",
"aI c #385040",
"aJ c #174b47",
"aK c #19262d",
"aL c #58464c",
"aM c #bc6e3c",
"aN c #f48bc4",
"aO c #590b2e",
"aP c #b9855d",
"aQ c #975d3c",
"aR c #383b42",
"aS c #79909e",
"aT c #d8a719",
"aU c #576774",
"aV c #b65234",
"aW c #785a0e",
"aX c #3a3523",
"aY c #b86c4b",
"aZ c #c4cbd4",
"a0 c #9a8b6a",
"a1 c #594631",
"a2 c #97a7b7",
"a3 c #972984",
"a4 c #e4ce04",
"a5 c #e050a8",
"a6 c #ee6ca1",
"a7 c #986c28",
"a8 c #761a1e",
/* pixels */
".e.e.e.e.e.e`K`K.e`K`K.e`K.e`K.e`K.e.e.e.e.e.e.e.e.e`K.e`K.e`K`K`K`K`K`K`K`K.e`K.e`K`K.e.e.e.e.e",
".e.e`K.e`K.e`K.e`K.e`K.e`K`K.e.e.e.e`K.e.e.e.e.e.e.e.e.e.e.e`K.e`K.e`K.e.e.e`K.e.e.e.e`K.e`K`K`K",
"`K.e`K.e`K.e`K`K`K`K.e`K`K.e`K.e`K.e.e`K`K`K.X`K`K.X`K.X`K`K`K.e.e`K`K.e`K`K.e`K`K`K`K.e.e`K`K`K",
"`K.e`K.e`K`K.e`K.e`K`K.e`K`K.e.e.e`K.X.e`.`J`a.z.z.z`a.K`..e.X`K.e.e.e`K.e`K.e`K.e`K`K`K`K.e`K`K",
"`K`K.e`K.e`K`K.e`K.e`K.e`K.e`K`K`K.e.K`i.h`Q`g.aaW.a`1.U.t`I`a`.`K`K`K.e`K.e.e`K`K.e`K.e`K.e.e`K",
"`K.e`K.e`K.e`K`K`K`K.e`K.e.e`K.X#s`I.U#E`c#Z.W.W.W.W.W.W.v`5.U.h.K`K`K.e`K.e`K.e`K`K.e`K`K`K.e`K",
".e`K.e`K.e`K.e`K.e`K`K`K.e`K.e.z`r`5#Z.W.W#Z#Z#Z.W#Z#Z#Z#Z.W.W#5`Q`i.e`K.e`K.e`K.e`K`K.e`K.e`K.e",
".e`K.e`K.e`K`K`K.e`K.e.e`K.e`i`Ra4.W#Z#Z#Z.W.W.Na4.N.W.W#Z#Z#Z.W.N.a`I`.`K`K.e`K.e`K.e`K.e`K.e`K",
".e`K.e`K.e`K.e`K`K`K.e.e.e`IaW.W#Z#Z#Z.W#Z`n`ba0`Ya0#5`n#Z.W.W#Z#Z.W`s`I`..e.e`K`K.e`K.e`K`K.e.e",
".e`K`K`K.e.e`K.e.e.e`K.e`I#S.W.N#Z.W.W`n.ray`Z.kay#``Z`Y#3.f#Z.W#Z#Z.W#E`I`.`K`K.e`K.e.e`K.e`K.e",
".e`K.e`K.e`K.e`K.e`K`K`i.a#Z#Z#Z.W.6`fao#n#`#`#4#Y#n#`#`#4aoaE.6#Z#Z#Z.W`s`i.e`K.e`K`K.e`K.e.e.e",
".e`K`K.e`K`K`K.e.e.X.z`R.N#Z.N.W`naLaoabab.P#`#Uab.x`N.k#Uabao`o`n#Z#Z#Z#ZaW`i.e.e.e`K`K.e`K.e.e",
"`K`K.e`K.e`K.e`K.X.K.U.v#Z.N#Z.W#5aZ#Q`Vab#J#na3`V.xat#Q.x#6#n#z.q.W#Z.N#Z.NaX`a`K`K`K`K`K.e.e`K",
".e`K`K.e`K.e.e`K#s.h`n#Z#Z#Z#Z#Za4aq.k#Iabab.x#U`B#6.x.x#6`L.kada4.N#Z#Z.N#Z.6.t#s.X.e`K.e`K.e.e",
".e`K.e`K.e.e`K.e`I#E#Z.N.N#Z.N#Z.WaF`Zayao`V#gau#`.Dao`V`t`NaZ`5.W.N.N.N#Z.N#Z#E`I`.`K`K`K`K.e.e",
".e`K`K.e`K.e.X`a.s.N#Z.N.N.N.N.N#Z.6au#`#J#Yaj#`#`#``o#Yau#`adav.N#Z.N.N.N.N.N.N`l.K.X.e`K.e`K.e",
".e`K.e`K.e`K`.``aT#Z.v.N.N.N.N.v.N.W.r`Zay.h.0.J.R.g.D.j#4ay`5#Z.N.v.v.N.N.N.v#Z.f`I`.`K`K.e`K.e",
"`K`K`K`K.e`K.zaW.N.v.v.N.v.v.v.Nav`5`gaRaU`qaBaB`YaBaB`qam`SaXaW`e.v.v.v.v.v.v.v.N`1.z.X.e`K`K.e",
".e`K.e`K`K#s`Q`D.v.v.vavav.vaTaWaX.C.g.k#`#`#`#`#`#`#`#`#`#``NalaX`g.q`D`Davavav.v`n.t`.`K`K.e`K",
"`K.e`K`K`K.zaW.vavavaT`D`e#S.Uad`Z#`#A#z#yam.#`S.l`S#k.i.``B.P#`#`aBa``l.qaTaT`Dav.v`R`a`K`K`K.e",
"`K`K.e`K`..t`eav`D`e`e.q`l.0#A#``Ba`.t````````````````````````.l.`.P#A.R`A.G.q`e`eav`5`I.e`K.e.e",
"`K.e`K.X.K`lavaT`eaFaWaXa2`Zac.t``````.h.n`0`0`0`0`0.u`0`0.S.h``````.##r#daX.sa7aF`e`n`Q`J.X`K`K",
"`K`K.e`K`iaW`DaFa7`gaX.g.R`I`````Q.n.u`w.B.Z.Z.Z`E.Z.Z.Z.B.Z.u.u.n.h````#q#r.#`0`s.q`e`R`a.X`K.e",
"`K`K.e`K`i`s.f`s`RaX.R.#````.n.u`C`C.m`UaY.F.F.H.H`X`XaYaY`UaE#h.B`E`0`r```I.`.l`0`faF`g`i.X.X.e",
".e`K`K.e`I.Q#S`R`Q.i.t```r.u.B.m`j.4`W`3#vawanan`8`8`8#v#v`8.4.M.n.s`C.B.u.h`I#q.h.U`s`1`i.X`K.X",
"`a.e`K.e`I`g.G`Q.t.h``.h`waV.F.4`8`8#v`8ax.V`3`W.V`W`8anax.4.A```````Q`Cai.B`r```I.n`1`l`i.X`K.e",
"`1`J.X.e`iaX`R.h`````````r.7#v.b`3.4`W`W.H.H#v.b#v.baw`Xax`3`A````````.h.s.y`w`r.h.h`l.U`a.X.X`J",
".waz.e.X.K.t.U```r.u.h``````.Uaf.b.b.V#v.b.bax#v.b.b`W`8.b.r``````````````.n.n.Z`Q.h`A.h#s.X`Kaz",
".b.Q`J.X`.`I.h`Q.Z.m`w`I````````aX#u`8.b`v#7#1af#7`2afawaw.U````.Dau`u.t`I`4.yai.Z.h.h`a`K.X.K#3",
".b.I.5`..X#s.h`Eaiai`jaL.t``````````.U#3`H.r.t.Q#7.r`g`3#3````.C.1#N`N`y.z`4`U#h.m`d`I`..X`..#`3",
"`8.b.A.K`KaA.Za8ai.m.Y`S.L#RaK````````````````.r#7af```l.t```lakaG.1.P`k.K`4.y.m.m`E`0`.`K`a.raw",
"`X#v.IaX#saR#h`daiai`U`Q.T#K#r`yaJ`I````````.U#v`3`8.U````.h#B#o#T#2#r.3#D.s#h`U.sa8#haA`.`Raw`8",
"aE.I.b#3`i.u#h`d#h`w`f`I#.#A#`#A#X`k#FaK.t``#M`3aM`8.Y````#bap#z#``Z#K.3.L`0.m.m.h`d.daX`i.raw`6",
".u`O.b`2`Q.u#h.h`E`waYaK..#X.k#`al.g#XaCaA.n`laj`0`R.G.t`raq#`#d#C.k.3#P.z.GaY.m`4.S.d`d`A`3`8`w",
"`C`0.Iawaa.Z`E.U#1af`H.Q`i.T#X`Z`i#C#XaCaR#baX.n#f`0.h`H`L.L#A#r#k#d#P.K`S`2`W#1`M`l`d`d#Mawa7`r",
"aV`r.s`8.H.S.nax.V#v.8.b.y`i#D#.aCaC#caK.D`4ag#V#o#o#e.saP.t.L#.#caD.zaL#i`v#van.V.F`0.n`X`6.h`0",
"aV`C.t`QaQ.h`1ananaw#v`v.8afa`azaz.5.U#ea1#f.1.c.c#o#Vag`4.A.naRa`aH`H`v`v.b.I#v.V.4`1`r.G.t`l.B",
"`jaE#3``````.U.V`3#vaa`p`v`v`v#vaP`l#waL.n#B#V#N#O.c#L`7`0ajaj.s#u#7`v.b`v.w.U`p#v.4.n`````Q`U#h",
".F.Z`F`4``````.G`3.C``.raw.b.b`paj#n.c`o.n#m.c#O#H.c.1a6`0#f.caN`w#u`v.b#v`1```l`2`1```````faV.B",
"`q`w`Ma7``````.h`l`````A`6.H`8aa`o#VaNa6.E#m#o#O#H.c.1a6#x`7aNaN#t.s`6`W`X.h`````Q``````.hap.m.m",
"#8`PaM.F.S.h````````````.MaMap.s#aa5a5aG##aGaN#N#O.c.1#m.2a6a5aG#a`0aY.F`4``````````````.U.4.m.y",
".O`P.4ax.u`0`````````````A.n.yaXaO#j#0#W#0.2.1.c.c#o#LaG#W#W`x#j#Y`Q#1.y``````````````.n`w.VaY.u",
"#8#M`3.4.s.B.n````.5`S```````````raOaO#x`x#Wa6.1#o.1a6aG#0#x.EaO`r``.h``````#k.5````.s`0.G`8.H`0",
"..#3`3`8aE.u`U``aKa..`````````````.h```r`##0aGa6.1a6#m.2`xaO.h.h``````````.h`yaS.t`Q.Y`raQanan.7",
"#s.A`3`8`O.n`M`f.t#F.g`S````.t.h````.t.taO`x#WaGaGa6.2##.E.h.h``````.t````.5a2`P.t.Y`f.S.Fanan`X",
"`.aL.V`8aM.S`japaE`I.R.```#k`BaU``aK#C.i.S`##0###W.2###a`daRalaK``#C.R`S``.RaS``ajap.m.n.Han.V.Q",
"`KaJ.m.F.m`r`U.4.F``azaU.i#d#d#r.`a2#za2`AaO#x`x`x#a#j`#.h#C.ga2#F.g.J#d.`aU`i```6apaE`0`M.V.Y.l",
"`K.e`S`d`R.U.B.V.4`Q`P.`#k#R.g#Ka2.P`Z.Jal.haO`#`#`#.E.h.i#4.J.P.J#da2aU#k#C#R.j.Iap`d`R#1.G.h`J",
".e.e`..Laq.t.s.V`W`Q.g.J#C.RaSaSaU.g#H.P.gal#w`r.j`Q.jama2ay#d.g.`ala2`B#F#d#F`Q`3.F`r.t.w.w`A`.",
"`K.e.e.Oac``.u`8.4.taS.ka..k#``Za2`B#C.`amamam#k``aKaUaUaU#C#Ca2.R.P#``Z.g#d#R.U#v.F.h`A`g`va7aD",
"`K.e.e.e.5.s`0`3`6aR.``qaS.k#`#`.P#`.k.P.R.R#C#CaR.i#Ca2.R.J.k#``Z#`#``Z.``T`B`uan.F``aH`R.w.waI",
"`K.e.e`.aX.s.saw`X.0#``u`Ta2.P#`aZ#`#`#``Z`Z#`.k#C.g.k#`aZ#`#`#`.P.P.J#Cah.``Zam`8.H``#M#l#M`3`A",
"`K`K`K#s`1`0.G.baP.0`Z`Y#`aHaj.Dam`q#z.PaZ`Y.P`Z.Ra2.PaZ`BaZ#zau`L.D.G.D#`aBaZaH`8ax``aX.A`R.f`A",
"`K.e`K.K.G.S.q`vaPac.P`B#``La#ak`Haf.pafau.D.D#b.D.D.Dad.r.p.p`6`2#oa#.C#`.R.JaH`8.4`Q`Q#E#E`R.#",
"`K.e`KaA.G`d`W`v`H`L.JaB#`.0.Za#`2ak#N#vasasasas.8.8as.8#Nanak.c`h#B`EaH#`a0aBa1aw`8`0.Z.u.aacac",
"`K.e.e.#`4`w`3.b.b`1#w`Y#``Y.SaO.Za8a8.E.B.Z`C`C`C`C`C.E.B#h.E.Z`E.u`r`Y.k`q#w`O`v`8`1`Eai`ra``p",
"`K.e`..#.s.G`8.b.b.I`0aX`Y`Y`r`Ea8`E`Ea8#h`Cai`U`U`U.y.mai.Z.Ba8a8`d.n`Nad.n#Mawaw`3aQ.S.u`I`J.L",
".e`K`.`l.u.m.V#v.b`vaw.r.A.AaaaQ.Y.F.w.I.I.8#7`v#7`v`v.b#v.Vax`XaY`U.yad.A`H`v.baw`8`f.S`w`I`K`K",
"`K`K`.aX.s`4.F.4aw.b`v`v`v`v.8#7#7#7#7`v`v.b#vananan#v.8`v#7#7#7`v#7`v`v#7`vaw`3`8.4aE`0.m.t`.`K",
"`K`K`.aKaW`d`f`j`F.4`8#v#v.bawawanan`W.HaY.m`w.u.u.u`waE`U`X.4`8`3`3#v`3an`8.V`FapaV`r.u.d.U`.`K",
"`K`K`K.z`R`4`r`w.m`j`j`M.Fap.H`MaY.m`w`d`0.u.B.G.m.GaE.Z`d`d`d.B.maV`j`M`M`M`jaV`C.S``.n.daX`..X",
"`K`K`K`.`i.t`I```r.S.u`waE`w`w`0.S.n.Z`U.H`Wakan`3#van.VaxaM.y.u`d.S.n`0.u.u`0`r`I`a`JaK#haX.e`K",
"`K`K.e`K`J.K#R`I```````````````Q.s`U`F#v#v.b.b.b#v#v.b.b.b.ban.H.m`0.h````````.h`J.e`K`.`A`a`K`K",
".e`K`KaA`LaXaK`r.h`1#b.n.U`Q````.u`Man.b.b.b.b.b`W.b.b.b.b#vaw.V`j.s.h``````````.K.e.e`K.e`.`K.e",
".e`K.K#M.8`U.Aan#fax.8.7.I`X`0.M.SaYanaw.b.b.b#v`Xan.b#v.b#v#v.V.y.S````````````.t`.`K.e`K`K`K.e",
"`K.eaX`W`2.yanan.Y`H`8`O.V.H#1as`w.m.V#v#v#v#van`f`8#v.b#v#van`F`w````````.h.j.S``aJ`..X.e.e.e.e",
".X`J#1anaY.7an.H.7#v.4aYan.FaQ`8.G.u`F.Van`8`8.4`l.Hananan`8.4`j`Q```r.h``#G`z#g#G`Q#q`J.e`K.e.e",
".eaI.w#v`O`W.b.F`6.8`WaP.b.H.7`3aQ.h`U`F`F.4ap.G```4.4.4`F`FapaE``.haE.n.h`z#gao#I.h`b#l`i`..e`.",
"#saa`3.V`O#v#vaYan.b`Xax.b`X.H#v.A``.SaE.y.G`0```````0.y`U.y.u```r`CaV`0`r#6#I#6`V.j`m`G#laK#s.e",
".K.A`vax`X.b#v`X#v.b`X`W.b`6`2.b.7.h````.h````.t`r.t```````````0`U`jap.s.o#6#6#6`V`t.lae`G`b`A`J",
"``aPaw#1ax`3axaP#v.I#1.I#v#baxan.G`0`w.u.n`0`w.BaEaE`E`0.S`0aEaQ`j.F#2.U`z#I#g`t`t`t.tar`cae#l`I",
"aRaa.Q`L.C.C.CaL`L.C`L`L.CaL.C.C#w#w#w#waL.MaLaL.M#w#w.MaLaL.MaLaL`Lah#w#w#w#waL`u`u#w.#`u`m.ia`",
"al`TaUal`Tah.`ahahah`T`Tahahah.0.D.D.0.0.0`T`Tahah`T.0.0al.0.0.D.Dahah`T`T`T`T`T`T`Tahamahah`T`T"
};
