/* XPM */
static char *w2_xpm[] = {
/* width height num_colors chars_per_pixel */
"    48    73      256            2",
/* colors */
"`` c #050305",
"`. c #088879",
"`# c #881e20",
"`a c #064644",
"`b c #a2871a",
"`c c #ddc50c",
"`d c #46121b",
"`e c #c88c1c",
"`f c #905033",
"`g c #05272e",
"`h c #f888a4",
"`i c #afc6d1",
"`j c #594614",
"`k c #472b1b",
"`l c #c65b56",
"`m c #c8a718",
"`n c #270a0f",
"`o c #b42a14",
"`p c #886278",
"`q c #5c6651",
"`r c #ebc58c",
"`s c #896917",
"`t c #878889",
"`u c #443a54",
"`v c #2a261c",
"`w c #871f85",
"`x c #662d2a",
"`y c #448ebc",
"`z c #281412",
"`A c #fce698",
"`B c #501356",
"`C c #e6b316",
"`D c #ea8a55",
"`E c #fbe708",
"`F c #48474a",
"`G c #8ea8bc",
"`H c #066964",
"`I c #04a18f",
"`J c #89341f",
"`K c #08181e",
"`L c #681414",
"`M c #2a363d",
"`N c #ac6a24",
"`O c #a75234",
"`P c #e8a567",
"`Q c #2b1735",
"`R c #c76e47",
"`S c #496771",
"`T c #dcb080",
"`U c #543b0d",
"`V c #a13625",
"`W c #d4ce4c",
"`X c #ebb56f",
"`Y c #683a33",
"`Z c #dcc6d4",
"`0 c #274339",
"`1 c #381513",
"`2 c #b99e11",
"`3 c #c88657",
"`4 c #ba256e",
"`5 c #b2aca4",
"`6 c #d9e6e8",
"`7 c #501e18",
"`8 c #282a3a",
".` c #6c4b0f",
".. c #e89856",
".# c #093a3a",
".a c #cbdde5",
".b c #676a73",
".c c #c8976c",
".d c #170709",
".e c #d77999",
".f c #f2c712",
".g c #645244",
".h c #07ab98",
".i c #f1b37d",
".j c #059787",
".k c #896b4c",
".l c #532e36",
".m c #370d2f",
".n c #b2861d",
".o c #89503f",
".p c #972ea8",
".q c #075852",
".r c #c3c7cc",
".s c #fcd790",
".t c #b28ebe",
".u c #38281b",
".v c #bc3694",
".w c #380b0f",
".x c #18171b",
".y c #a86c4a",
".z c #f8a969",
".A c #faa7bf",
".B c #0a7868",
".C c #8c422a",
".D c #e9f4f6",
".E c #77570e",
".F c #d7a570",
".G c #899697",
".H c #fcf508",
".I c #f59a63",
".J c #f9da0c",
".K c #475765",
".L c #aa5e41",
".M c #b37a51",
".N c #782e24",
".O c #08a49e",
".P c #661f1c",
".Q c #373a3b",
".R c #df7b4b",
".S c #c6d0d8",
".T c #ac266c",
".U c #a0b5c1",
".V c #371c17",
".W c #d98756",
".X c #173937",
".Y c #572b20",
".Z c #281b14",
".0 c #a24229",
".1 c #77392e",
".2 c #4c1f34",
".3 c #e7996a",
".4 c #697980",
".5 c #957a50",
".6 c #190a1f",
".7 c #b98661",
".8 c #d53877",
"#` c #54a7bf",
"#. c #8c7294",
"## c #d75486",
"#a c #f78db6",
"#b c #742679",
"#c c #69859f",
"#d c #7aaabc",
"#e c #8c1650",
"#f c #68176b",
"#g c #89569c",
"#h c #a18d69",
"#i c #d49e8c",
"#j c #d7dbe1",
"#k c #e6559a",
"#l c #f36ea2",
"#m c #b44131",
"#n c #776721",
"#o c #30575e",
"#p c #cab1c8",
"#q c #545b31",
"#r c #a82062",
"#s c #497797",
"#t c #fac478",
"#u c #723b4e",
"#v c #d82e74",
"#w c #cab51e",
"#x c #b5bcc4",
"#y c #a763b9",
"#z c #cc9a14",
"#A c #a85e78",
"#B c #86611a",
"#C c #917a17",
"#D c #735a4e",
"#E c #7c9aac",
"#F c #e4ce04",
"#G c #fbb7cd",
"#H c #905d44",
"#I c #909438",
"#J c #f49c90",
"#K c #a731a7",
"#L c #b1aa29",
"#M c #520f3e",
"#N c #899bb3",
"#O c #ac78c0",
"#P c #bd2f57",
"#Q c #a03060",
"#R c #7c6651",
"#S c #8e22a6",
"#T c #9e23a6",
"#U c #ea6394",
"#V c #cd7a4e",
"#W c #d7407b",
"#X c #c46650",
"#Y c #6f1f7d",
"#Z c #948a9f",
"#0 c #781240",
"#1 c #a95254",
"#2 c #684633",
"#3 c #8c3450",
"#4 c #b6915e",
"#5 c #94281a",
"#6 c #4f3a2e",
"#7 c #77b9c9",
"#8 c #d0d438",
"a` c #442254",
"a. c #a0acb5",
"a# c #175657",
"aa c #585c65",
"ab c #94465c",
"ac c #fbfdfc",
"ad c #f4dae9",
"ae c #acd2ec",
"af c #ece63c",
"ag c #b1afbc",
"ah c #775835",
"ai c #f999b7",
"aj c #16453b",
"ak c #dc8444",
"al c #1b262b",
"am c #5c8294",
"an c #3a4752",
"ao c #da985a",
"ap c #7c4c56",
"aq c #798798",
"ar c #8e223e",
"as c #f578ab",
"at c #dc5e74",
"au c #f7bc80",
"av c #781f1c",
"aw c #7c1584",
"ax c #577391",
"ay c #943ea0",
"az c #d4667c",
"aA c #fccf7a",
"aB c #a4920c",
"aC c #fac7d2",
"aD c #baa12c",
"aE c #561318",
"aF c #596876",
"aG c #3a293b",
"aH c #7c6a64",
"aI c #976c4a",
"aJ c #994f45",
"aK c #979699",
"aL c #d8ba10",
"aM c #1c9aa4",
"aN c #b55e3e",
"aO c #995c2e",
"aP c #a87a14",
"aQ c #b49114",
"aR c #d7a71a",
"aS c #fbcb88",
"aT c #9c6d17",
"aU c #988c80",
"aV c #574e4f",
"aW c #176969",
"aX c #b84a2c",
"aY c #3a1b3c",
"aZ c #f8b870",
"a0 c #e7eaee",
"a1 c #b96a44",
"a2 c #78777c",
"a3 c #774534",
"a4 c #dcb172",
"a5 c #0a7b78",
"a6 c #52463a",
"a7 c #862888",
"a8 c #ebbd19",
/* pixels */
"`a.#`a.#.#`a.#.#.#.#.#.#.#.#.#.#.#.#.#.#.#.#.#.#`g.X.#.#.#.#.#.#.#.#.#.#.#.#.#.#.#.#.#.#.#.#.X.X",
".O.j`I.O`I`I.O`I`I.O`I`I`I`I.O`I.h`I`I`I`I.j`I`I`I`I.j`I`I.O`I`I`I`I`I`I`I`I`I`I`I`I`I`I.O`I`I.j",
"`I`I`I.j`I`I`I`I`I`I`I`I`I`I`I`I`I`I`I`I`I`I`I`I`I`I.j`I`I`I`I.O`I`I.O`I.O`I`I`I`I`I`I`I`I`I`I.j",
"`I`I`I`I`I.j`I`I`I`I`I.j`I`I`I`I`I.j`I.O.h`I`I.j`I.O.h.h.O`I`I`I`I`I`I`I`I`I`I.j`I.j`I.j.j`I`I.j",
"`I`I.j`I`I`I`I`I`I`I`I`I`I`I`I.j.O.h.j`H`a`g`g`K`g`g.#.qa5.O.h`I`I`I`I`I`I`I`I.O`I`I`I.O`I`I.j.j",
"`I`I`I`I`I`I`I`I`I`I`I`I`I.j.O.O`.`a`K.Z.`#CaBaBaB#C.E.u`K`K`H.O.O.j`I`I`I`I`I`I`I`I`I`I`I`I.O.j",
"`I`I`I`I`I`I`I`I`I`I`I`I`I.O.O.q`K`k`2.J.H.H.H.H.H.H.H.H`c#C`z`g`..h.O`I`I`I`I`I`I`I.j`I`I`I.j.j",
"`I`I`I`I`I`I`I`I`I`I`I.j.O`I.#.V`2.H.H`E`E`E.H.H.H.H`E`E.H.H`E.E```H.h`I`I`I`I.j`I`I`I`I.j`I`I.j",
"`I`I`I`I`I`I`I`I`I`I.j.O.j`g.`.J.H.J`E`E.H`EaLaLaL#F`E.H`E`E.H.H`m`z.q.h`I`I`I`I`I`I`I`I`I`I`I.j",
"`I`I`I`I`I`I`I`I`I.j.h.j`g`s`E`E`E`E.H.JaD#h`5`i.r`5aD#w`E.H`E.H.HaL`z.q.O`I.j.O`I.j`I`I`I.j`I.j",
".O`I`I`I`I`I`I`I`I.O.j`g#B`E.J`E.H.J`bap#x.Dac#y.tac`6#.apaD.H.H`E.H#w.Z`H.O`I`I`I`I`I`I`I`I`I`.",
"`I`I`I`I`I`I`I`I`I`I`g.E`E`E.J`E#L.l.p.p#jac#O#T`w`Zac#O#S#f#naf`E.H.H#w.x`H.O`I.j`I`I`I.j`I`I.j",
"`I.h`I`I`I`I`I`I.O`a`U.J`E`E`E#FaU.t.p.p#y#p#T#T#S#y.t#S.payag#C`E`E`E`E`b`K`..h`I`I`I`I`I`I`I.j",
"`I`I`I`I`I`I`I.h`H.Z.f`E.J`E`E`E#h.D#g#K.p#T#T#gay#S#S#Kawag.r`b.H`E`E`E.H#B`g`I`I`I`I`I`I.j`I.j",
".O`I.h`I`I`I.h`.`KaQ.H.J.J`E.J.H#L.r#ja7#K#S#b`6.taw#K#S#gac.5#F.H`E`E.J`E.J.u`a.h`I`I`I`I`I`I.j",
"`I`I`I`I`I`I.h`g.E`E.J.J`E`E.J`E#F#hac#Zaw#Y.racac#gaw#Y`6.S`b`E.J.J.J.J.J`E`m`K.B.h`I`I`I.j`I.j",
"`I`I.h`I`I.h`H`z`c.J.J.J.J.J.J.J.HaD.rac.m`u#x`5#x#Z.6aaac`t`c`E.J.J.J.J.J.J`E.E`g.O`I.j`I`I.j.j",
"`I`I`I`I`I`I`KaT`E.f.J.J.J.f.J.J#z.EaG.b.b`taKa.aKaKaUa2aa`kaPaL.J.J.f.J.J.J.J.f`v`H.O`I`I.j`I.j",
"`I`I`I`I.h.q.V.f.f.f.fa8.f.faQ`j`FaU#jacacacacacacacacacac.ra2#6.`aRa8a8a8.f.f.JaT`g`I`I`I`I.j.j",
"`I`I`I`I`I`KaP.J.f`C`C`CaQ`j.g.racac.r`taa.Q`8.xal`M`FaFaK`6ac.DaK`k.E#z`CaRa8.fa8.Z`H.h`I.j`I.j",
"`I`I`I.h`H.Va8a8aR#z`e.E#6`5ac.S.b`8`````````````````````````0a2`6#j.b`kaT`e#zaR#F#n`g.O`I`I`I`.",
"`I`I`I.O.#.Ea8aR.naP`U`F.Sa..Q``````.d.d`1`1`z`n`n`1`1`z.d````````.K.U.G.Z.E.n`e`C`2.x`..O.j`I.j",
".O`I`I.j`K`b`maPaT`U`q#x.Q``````.6`d.P.Y.P.N.1.N.N.N.P.P.Y`d`1````````aF.G.V.`aT`e#w`v`H.O.j.O`.",
"`I`I`I`..x.n.n#B`7`F`t`K`````````7.1`J`Oa1.LaN#V#X#1aNaN.0#3.d```````````M.4.Z`UaO`m`U`a.O`I`I`.",
".B`I.h.B.Z#C`s.u.Q`q``````````````#2.3.W.W`P`3.Ma1ao.3#V`3`k```````````````8.Q.Z.``b`j.#.O`I`Iaj",
"`0`I`I.B.x#n`j```F```z`1.d`K.d``````#4aSaoao.sau.saZaoaS.k``````an`S`K`1`7``.x.x.V#n`U.#.h`Ia5`F",
"a6.B.ha5`K`j.u.d```z.0aE`8#caq`M`````na4.s.M`X`Aa4.M.s.F.d````ax#N`G.K.x.1`x`n.d`z`U.Z`a.h`I`a#h",
"aI.q.h.j`K.V`v```7`x#m.waxaeae.U`u`````k`A.g.k`A.5.`au.u````ax`i`i.S.Ual.1.0.P.d`z.u`n.B.ha5.K`r",
"au.Q`..h.q.x.x`z`Vav.0.x`G.Daca0`i`M`````v``ah`A.5.d.Z`````S#j.Dac.D.a`S.l.0av`d```7`g.j.h`a.7`r",
".saI.q.h`I.#.w`LaX.P`V`8.Sac.Dacac.S`Q``````#4.fao.d````an`6.Dacacac`6#s#u.Cav`o.d.Z.B.h`..Q`rau",
"aS.i.Q`..h#o`#`L`Oav.C.u.aacacacacac.Sal```v#t`NaZ#H``an`6acacacacac.D#s`Y`J.N`V`L.u.j.h.#.y.s.c",
"`r.s#A`a.j`k`o`n`Jav.N`za.acacacacacac.S`8`vaI.w#B.g.x.Sac.Dacacacac.a.K`Y.w`V.NaE.0.B.B#6#t.i.Y",
"#V.s`P.u.#av#5.d`7.C`f.Y.Kacacaca0`Q.4aca.``.Yab#u.d.Qaca..da.acacac`i`8#2apav.d`7.0`M`g.M.s.y`7",
"`1#i.saI```J.w`U`PaS`A`P.x#Nacac#j.K.ba0a6#1ai#G.A#U`7a..San`5acac.D#o.l#t.s`Pa3`n`J`7`k#tao.w`O",
"`d.V.Fau`7.w`k.iaSau`r`A.7.xaa#xa.`qaUaV.N#a.A#G#Gai##.V.4aV#x.SaK`F.l`r`Aa4#t.z`Y.P`kaI.z.V`1aO",
"`J`k.6.7`k``#VaZaA#D.5`A`A`X#H#6.u#6aH.Z`lai#Gad#G#aas.P`v.g.Z`kah.c.s`A.s#6.5#t..`7.w`j.Z.u.CaN",
"`J#Va6``.d``aIaA.F``a6.s.s`A`A.M#u.e#u.waz.AaCad#G#aas#Q.V.e#A.Y.s`A`A.s`r`Q`z`X.F`z````.V`R.C`R",
"`J.L.I`z````.6.7.u``.6#i`r.s#4`xai#GasarataiaCad#G#a#l#Qab#a.A#A`Y.s.sau`p````#2#6``````a1`R.Nak",
"aJ.N.z.o``````````````#R`3#J#2#Q#kas#l.8###a#GaC#G`h#l#W#U#l#U##`z.M.R.7aG`````````````v`D.0.1ao",
"`R.P..#V.d````````````.Z#HaJ`Q#0#r`4.8#v#W`h.A.A.A`h#U#W.8#W#r#e.ma3#3#D``````````````#2.I.NaO`D",
"`D.P`R.W.2.V```````M````aGaG``.m#0#0#e`4#W#l`h#J`has#k.8`4#e#0.m````#D`8``.x.x`````z`1aO`D.P#V.y",
"`3.1a1.3`7.C.d```S#7.Q```````````n`n`n#e#v#W#lasas#l#k`4#M.6`n.d``````````aF.4`K```Y`d`N`D.1`3`k",
".4.C.y.I`7`f`J``ax#7am`````````````````n#r#W#k#U####.v#0.d```````````````M#Eaq`M.Y`O`1#Vak.CaI`S",
"`y.Q.W.z.P.1a1.Y`K#d#d`M```Kaaan```K.4`Q#0`4.v#W#W.v`4`danan``alaa``````am`G.K.u.LaN`d`3.3.N.4#`",
"#`.K.I.z.1.Y#VaN.d#o#7am`K.4#x.Uaaaq`iaF.w#e#r`4.T.T#0`Qaq#Nax#N.raq.6an.Uam``aI`R`O.wao#t.1`S#7",
"#sapaZaZaO.V.R#V#2``.K#d#E.S`6.D`i`i#ja.`M.w#M#0#e#M`n.K#x#ja.a0.D.aaq#d#N.x`v#V.RaO`d.zau`3a##`",
"a#.o#t.z#V`d.Wak.M````al.4.Dacac.S.Sac`6a..K`8.6.6`8.4#xa0.D#xacacac`i.Kal``#Daoak`Y.YaZau..`0aM",
"a5#u.zaZ...w.7`D.3`k```````F`t.r.U.Sacaca0`i#NaF.4a..aacacacag.D.ra2.Q``````.7.W..`7#H.z.ia1.X.O",
".j.XaN`D.R`1aO.z.3#R``````````````aa.r.S#j.S#x.b#N.S#j.S.r.Gal.x```````````z`T.W.W`naO.R`R`d.B.O",
".O`.al.Y.Y```Y.z...c````````````````````.d.x.x``.6`K.6````````````````````a6aZ.W.M```n.V.x.q.j.j",
".j`I`.`H.q`a`1.Iaoau.V````````````````````````````````````````````````````#h.z...C`K.B`H`..O`I`I",
"`I.j`I.j.ja5.d`3..au#H``````````````````````````````````````````````````.d`Xao..`7`g`I.h`I`I`I.j",
"`I.O.j`.`I.q.daO...i#4``````````````````````````````````````````````````#6.sak.W.V.Y.q.h.j`I`I.j",
".j.j.j.Oa5`k`L`k...I`r.V`````````````n.w`n.d`````````n.w`d`n````````````.kaAak.M`n.0.V`.`I`I`I.j",
".j`I.j.O.X.CaE`nak...s#2.x`8````.war`4#P#P#P.P.d.war#P#P#P#Par`n``.x`M``.F#t.Rah.d`V`J.#.O`I`I`.",
".j.j.O`H.1.NaE.d`Nak.saIaVa0aa.d`#`4#W#W#W.8.8#P.8#W#W.8.8#Par`dal#x#x.V#taZ.R`k`navaX.P`H`I.O.j",
"`I.Oa5.Q.NaE#5`n.Y..#t.7`ua0`6a.#p#H.Y.1`Y`Y`Y.l#u#u`Y`Y.P.laU`Z.U.D.U.laA`Xa1.d`dav`L.0`v.j.h.j",
".j.j`IaW.w.P#5.w.Vak#t.F`k#j`i.Dac#j.Ga0.D.Daca..aac.D.D.S.Gacac.S.Sa.`YaA.z.0``aE#5aE.u`M`..h.j",
".j.j.O.q.w`V`V.w`n`R#t#t.l#x#xa0ac.S.racacacac#xa0acacacac#xa0ac.S`G.bah.s`X.N.d.P`J`V`z`.`I`I.j",
"`I.j.O.q.P.0#5.w`7ak#t.saIaG#Zacac.r.Sacacacac#xa0acacacaca.`6ac.S.K`ka4.s.z.0`z.Y`#aX`7`H.h`I.j",
"`I`I`I`a#5#m`L.d.L.z`P.s.saI#6`t.ra2aK.D#j.r#x.g`t.r.S#j#j.ba.`5aV#2`T.saA...R`k`1av.0`J`a.h.h.j",
"`I`I.jaj#5av`n`n..aZ..aZ.s`Aau.c.5#Rah#R.k.k.5.5.5.5.k.kahah.5.7.F`A.saA.z.I.z`f.d.P`J.0aj.h`I.j",
".j`I`I`0`L`K`K`1.zaSaZ.I.z#t.s`A`A.s.s.s.s.s`A`A`A`A.s.s.s`A`A`A`A#t.i`P.IaZaZaN``.V`7.N.X`I`I.j",
"`I`I`Iaj`v.B.q`k.z#t#tau.z`D....`P`XaZau#taZ#t.F`X#t#t#taZaZ`X....ak...z#taZ.z`O`gaW.X.wa#`I`I.j",
"`I`I`I`.`.`I`..Z`l.zau#t#tau.i`P`PaZ#taAaAaA.sa1ao.saA#t#taZ`P..`PaZ#t#taZ.zao.P.q`I`.`H.B`I`I.j",
"`I`I`I`I`I`.`I.#`d#X`D.zau#taAaAaAaA.saA.s.s.s.y.c.saAaSaAaA.saAaA#taZ.z.I#V.N`K.B.j.j`I`I`I`I.j",
"`I`I`I`I.j`I.j.#```1.NaJ#X.W.3#t.saS.s.s.saA`AaO.c.saS.s.saS.saS.z.W`R#A.C`1```K`.`I.j.j.j`I`I.j",
"`I`I.j.j`I.B`g.d#M``````.d`n`7.3aSaSaSaA.saSaAa3.MaS#taSaSaSaS#t#H`1`n.d````.m.daj.B`I`I.j`I.j.j",
"`I.j`I`I.q#q.x#f#f`B````.d````aN.z#t#t#tauau`P`z.o.iau#t#tauau.I`7````````.m#f#M`z`qaj`.`I.j`I.j",
".j.h`I`a#C#n.m`w#Y#f`Q.d.C`x.d`7#V...I.I.z.W`Y```naN`D.I.I.I`D.o``.2.1.d`n`B#f`w.m#n#Lal`H`I.j.j",
"`I.j.##n#8`M#Y`waw`waY.daN`l.Y```7.C#1`O.C`z``````.d`xaJ.LaJ`x.d`1aJ#m`n#Maw`w`w#Yal#8#w`v.q`I.j",
".Baj#n#8#I`Qa7`w#b`w#Y.6#V`D`l`x`n``.d````````.d````````.d``.d.2#1###1`n`B`wa7`wa7`Q#Iaf#L.x.q.B",
".x`k.Q#q`0`Qa``QaYa`aY`Q`Yap#u`x.V.x.d`z.Z`1.l`x`x.2.V`z`z`z`1.l.N`x.laYa`.2a`.2aY`Q`M#q`U`v`v.X"
};
