/* XPM */
static char *w3_xpm[] = {
/* width height num_colors chars_per_pixel */
"    48    73      256            2",
/* colors */
"`` c #060305",
"`. c #08847b",
"`# c #87261d",
"`a c #064848",
"`b c #8f8529",
"`c c #d0c42c",
"`d c #471219",
"`e c #905128",
"`f c #c48a14",
"`g c #08292b",
"`h c #524416",
"`i c #dc828c",
"`j c #b0c5d3",
"`k c #6f1c6c",
"`l c #c84a44",
"`m c #482a16",
"`n c #c4246e",
"`o c #c9a916",
"`p c #646420",
"`q c #26040d",
"`r c #945470",
"`s c #e9c387",
"`t c #8c1c94",
"`u c #886c1c",
"`v c #878a8f",
"`w c #494c5a",
"`x c #692b24",
"`y c #fce498",
"`z c #262725",
"`A c #873428",
"`B c #688494",
"`C c #66181a",
"`D c #e4e438",
"`E c #281613",
"`F c #0a665a",
"`G c #e98e59",
"`H c #84a8c4",
"`I c #e8b816",
"`J c #04a08f",
"`K c #09171c",
"`L c #cca67f",
"`M c #b07228",
"`N c #4a1546",
"`O c #ac502c",
"`P c #654811",
"`Q c #ca6a3e",
"`R c #693926",
"`S c #ab3720",
"`T c #373522",
"`U c #e9a665",
"`V c #d4d4da",
"`W c #fac678",
"`X c #486474",
"`Y c #491c19",
"`Z c #f6b772",
"`0 c #513818",
"`1 c #a49f22",
"`2 c #d68859",
"`3 c #dfe8ed",
"`4 c #f8ac7d",
"`5 c #244840",
"`6 c #f5c812",
"`7 c #6a4c5f",
"`8 c #271539",
".` c #b4ab7f",
".. c #686b77",
".# c #685808",
".a c #de6994",
".b c #370934",
".c c #782d20",
".d c #894337",
".e c #18080b",
".f c #89523d",
".g c #89319f",
".h c #c79665",
".i c #f6d40d",
".j c #380b17",
".k c #391714",
".l c #348aac",
".m c #fcd790",
".n c #87694b",
".o c #f9fcfb",
".p c #05373a",
".q c #ac987c",
".r c #3876a4",
".s c #f9aac5",
".t c #069182",
".u c #06a795",
".v c #ab1e5f",
".w c #c13967",
".x c #252d36",
".y c #087b70",
".z c #e89a5d",
".A c #482c3c",
".B c #c9dbe3",
".C c #8897a2",
".D c #18181a",
".E c #a66c4c",
".F c #f8a96e",
".G c #aba9ba",
".H c #055957",
".I c #677882",
".J c #fcf50b",
".K c #935d41",
".L c #b28d1b",
".M c #4b5a5d",
".N c #392818",
".O c #a7b8c6",
".P c #8c154c",
".Q c #c0c9d2",
".R c #571f19",
".S c #f9dc09",
".T c #581421",
".U c #562b1b",
".V c #8c3648",
".W c #af5f40",
".X c #cf7b51",
".Y c #293339",
".Z c #887e40",
".0 c #b1784f",
".1 c #74113e",
".2 c #f5bb81",
".3 c #782c40",
".4 c #e6446a",
".5 c #18282c",
".6 c #270c12",
".7 c #674437",
".8 c #edeef1",
"#` c #f787b1",
"#. c #867983",
"## c #679daf",
"#a c #d44a78",
"#b c #d4a46e",
"#c c #cca6d4",
"#d c #68267c",
"#e c #f26ca2",
"#f c #b0266c",
"#g c #b42e7f",
"#h c #d49c7c",
"#i c #b79865",
"#j c #394850",
"#k c #b45674",
"#l c #6f575a",
"#m c #a48254",
"#n c #f6c9dc",
"#o c #ca991c",
"#p c #cfb964",
"#q c #770f97",
"#r c #c46248",
"#s c #9874ac",
"#t c #e75d95",
"#u c #ac3d5a",
"#v c #b48ac4",
"#w c #d7bc14",
"#x c #53778a",
"#y c #b28556",
"#z c #f99aba",
"#A c #c496cc",
"#B c #875f0f",
"#C c #245274",
"#D c #8f62a1",
"#E c #88267c",
"#F c #75573d",
"#G c #785694",
"#H c #ac30ac",
"#I c #53463c",
"#J c #b89b18",
"#K c #fbe808",
"#L c #94b7c6",
"#M c #703840",
"#N c #bcbe9c",
"#O c #f579ac",
"#P c #e6508c",
"#Q c #927518",
"#R c #7ba2b9",
"#S c #503932",
"#T c #cc2e70",
"#U c #511d4e",
"#V c #d87688",
"#W c #972156",
"#X c #893d9c",
"#Y c #c04280",
"#Z c #e04c64",
"#0 c #e03f8a",
"#1 c #d4bad9",
"#2 c #989028",
"#3 c #a97c1e",
"#4 c #909050",
"#5 c #9427a1",
"#6 c #dcb181",
"#7 c #e2c60c",
"#8 c #ac4125",
"a` c #5c4f21",
"a. c #6c201a",
"a# c #f9b6c4",
"aa c #a462ac",
"ab c #17494c",
"ac c #7a8691",
"ad c #576b76",
"ae c #3c4430",
"af c #776b76",
"ag c #9a503e",
"ah c #d8975c",
"ai c #153832",
"aj c #76787d",
"ak c #f1d6e7",
"al c #da853e",
"am c #b4d2e4",
"an c #776544",
"ao c #984238",
"ap c #97329a",
"aq c #d23b76",
"ar c #f59c65",
"as c #701b42",
"at c #544f47",
"au c #b8a42c",
"av c #b442b4",
"aw c #94668c",
"ax c #97361c",
"ay c #99a8b5",
"az c #794721",
"aA c #382644",
"aB c #572f33",
"aC c #9799a3",
"aD c #b96d4e",
"aE c #185458",
"aF c #b6b9bd",
"aG c #dc4f92",
"aH c #962719",
"aI c #a08218",
"aJ c #189294",
"aK c #575d64",
"aL c #9c7952",
"aM c #37555c",
"aN c #b7915c",
"aO c #d9aa17",
"aP c #fbca89",
"aQ c #978c91",
"aR c #77465c",
"aS c #3a1844",
"aT c #7a5811",
"aU c #996c4b",
"aV c #373b42",
"aW c #794737",
"aX c #78297d",
"aY c #a826a0",
"aZ c #d44478",
"a0 c #05696a",
"a1 c #a75240",
"a2 c #cc6f54",
"a3 c #a4969c",
"a4 c #0c8991",
"a5 c #966c12",
"a6 c #591341",
"a7 c #783a27",
"a8 c #dbdde5",
/* pixels */
".x.5.5.5.5.5.5.5.5.5.5.5.5.5.5.5.5.5.5.5.5.5.5.5.5.5.5.5.5.5.5.5.5.5.5.5.5.5.5.5.5.5.5.5.5.5.5.D",
".t`..t.t.t.t.t.t.t.t.t.t.t.t.t.t.t.t.t.t.t.t`.`..t`..t`..t.t`J.t.t.t.t.t.t.t.t.t.t.t.t.t.t`..t.y",
"`J`J`J`J`J`J.u`J`J`J`J.u`J`J.u`J`J`J`J`J`J`J`J`J`J`J`J.u.u.u`J.u.u`J.u`J`J.u`J`J`J`J`J`J`J`J.ua4",
"`J`J`J`J`J`J`J`J`J`J`J`J`J`J`J`J`J`J`J`J`J.u.u.u.u.u.u.u`J`J`J`J`J`J`J`J`J`J`J`J`J`J`J`J`J`J`J.y",
"`J`J`J`J`J`J`J`J`J`J`J`J`J`J.t`J`J`J`J.t.y.H`a`a`a.Ha0`..u.u.u`J`J`J`J`J`J`J`J`J`J`J`J`J`J`J`J`.",
"`J`J`J`J`J`J`J`J`J`J`J`J.t`J`J`J`Ja0.p`K`z`0a`.#.#`h`z.D`K.H.t.u`J`J`J`J`J`J`J`J`J`J`J`J`J`J`J.y",
"`J`J`J`J`J`J`J`J`J`J`J`J`J`J.u`.`g`E#B`o.i#K.J.J.J.J#K#w#Q.N`K.H`J.u`J`J`J`J`J`J`J`J`J`J.t`J`J`.",
"`J`J`J`J`J`J`J`J`J`J`J`J.u.u.H.D`u.i.J#K#K#K.J#K#K#K#K.J.J.J#J.k`g`J`J`J`J`J`J`J`J`J`J`J`J`J`J`.",
"`J`J`J`J`J`J`J`J`J.u`J`J.u`a.N#w.J#K.S#K.J#K.S#7.S#K.J#K#K#K.J.S`P`K.t.u`J`J`J`J`J`J`J`J`J`J`J`.",
"`J`J`J`J`J`J`J.u`J`J`J.u.p`h.i#K.S#K.J#K#wau.`#N.``1au.i.J.J#K.J.J`u`K`..u`J`J`J.t`J`J`J`J`J`J`.",
"`J`J`J`J`J`J.u`J`J`J.u.p`0.S#K.S#K.J#J#l.G.8.o#s.Q.oaFafaI`D.J.J.J.Ja5`K.t`J`J`J`J`J`J`J`J`J`J`.",
"`J`J`J`J`J`J`J`J`J.u`a`0.i#K.i#K`c#Fap`tak.o#v#q#X.8.o#D#qaB#J.J#K#K.J`u`K`J`J`J`J`J`J`J`J`J`J.y",
"`J`J`J`J`J`J`J`J.u.H.k.i.S.S#K#7`v#GavaYaa#1#5.g#5#c#A`t#5.g#.`1.J.S.J#K`P.p`J`J`J`J`J`J`J`J`J`.",
"`J`J`J`J`J.u`J.u.y.D`o#K.S#K#K#7.qa8#d#H#5#H#5#X#5#H#5#H#q#1aF.L.J.S.S#K.S.N.H.u`J`J`J`J`J`J`J`.",
"`J`J`J`J`J`J.u.t`KaI#K#K#K#K#K#K#2`3.G`t#g#5#d.Q#D#q#H#qaw.oaL.S#K#K#K.S#K`o`K.y.u`J`J`J`J`J`J`.",
"`J`J`J`J`J`J.u.p`R#K.i.S.S.S.S.J#waQ.o#G`t`k.G.oak#d#5#d.8.Q.L.J.S.S.S#K.S#K#Q`KaJ.u`J`J`J`J`J`.",
"`J`J`J`J`J.ua0`E#w.S.S.S.S.S.S.S#K#m.8`V.b`7a8`Va8#s`qaQ.o#4#7#K.i.S.S.i.S#K.i`T`a.u`J`J`J`J`J`.",
"`J`J`J`J`J`J`Ka5#K.i.i.S.i.S.S.S`6aT`wac`wajajacajaj`wadaK`P#7.S.i.i.i.i.i.i.S#J`K.t`J`J`J`J`J.y",
"`J`J`J`J.u.H`T`6`6.i.i.i`6`6aO.##S.I#Na8.o.o.o.o.o.o.o.8aFaf#S`P#o`6`6`6`6`6.i.i`h.p.u`J`J`J`J`.",
"`J`J`J`J`J`K#3.i`6`I`I`I#oaT#Iay.o.o.8aF`v.IaK.MaK..`vaFa8.o.o.G#S`h`faO`I`I`I`6#J``a4.u`J`J`J`.",
"`J`J`J.ua0.N`I`I`IaO#oa5`0aC.oa8`vae`K````````````````````aeaca8.8aC`m#B`faOaO`I#7`T`a.u`J`J`J`.",
"`J`J`J.u`gaT`6aO#o`f`Pat.Q.Q.M````````.e.6.6.6.6.6`E.6.e````````aM#L.Q#I`0`M#o#o`6`u`K`J`J`J`J.y",
"`J`J`J.t`K.LaO.L#3`0at#N.M```````q.k.R`xa.a7.3.c.ca.a..T`d.j.e``````#j#L.M`m#B#3#o#J.D`..u.t.u`.",
"`J`J`J.y`z#J.La5.U#I.C.5``````.ka7`A`A.WaD#r.W#r#ra1aoa1ao.ca..k``````.eacaM.Naz#3`o.ka0.u`J.u.y",
"`J`J`J`F`z.L#B.U`Tad`````````````m`2ahaDah`U`2`MaD.z`U`2.Xal.f.e``````````aK.N`m#B.L`m.H.u`J.u.y",
"`J`J.u.H.N`uaz`K`T.D``.e``````````.N`saP.hah.maP`W.m`UahaP.0````````````````.Y.D.U`u`m`a.u.u`J`a",
".H`J.ua0.D`p.N.e``.6`x.j`K#j.5```````m.m`yaU`s.m.m`Z`U`yaN.e`````K.Y.5`K#S`E``.e`EaT`E.H.u`J`.#I",
"`z`..u.y.eae`z``.e.c`S`z#x`j`H#x`K````.A.`.N#i`y`s.L.m#6.D````#j.C.C`B.D#S`A.k```E`0.e`..u`J`5#i",
"aU.H.u`J`g.k.D.e`#`A`A.x`H`3.8.B#R`K````````#m`y.h.7#6.N````.M.Q.B.BamaM.A`A`#`q.D`Y`g`J.ua0an`s",
"`4aV`..u.y````a.ax.c.caV`3.o.o.o.o.G`g````.e#p`W.h`E`E````.M.B.o.o.o`3#xaB`R`#a..e`E`F.u`Jai#6`s",
".maU.H.u.uab.R`##8.c.c.M.8.o.o.o.o.o.Q.Y``#I.mal`U`E````.M.8.o.o.o.o`3#x.7`x`S`#.T`zaJ.u`F#F`y#b",
".m.2`T`..t`0aH.R`S.c`##j`3.o.o.o.o.o.oa8`K#Fah`R`U`0``ad.o.o.o.o.o.o.BaM.7`x`l.j`#a7.y`J.Y`U`y.W",
".2.m.E.p`F`#aH.6aH`d.3.e#L.o.8.o.o.x#..o`B``.k`Y`m.eaM.oac`w.8.o.o.o#L.5a.`#a..e.caH`5`a#B.m`U`Y",
"aU.m.2.A`Kax`d.k.KaN#6`0aV`3.o.oa8`waK.oat`A`i#z#V.RaV`3.I.5.Q.o.8ay.xaB#6.h.K`x.6`S.N`E`U`Waz.U",
"`qaL.maL.e.T`Y#baP.m`yaP#IaA..aQ`vaj`vaK.3#z.sa##z#``#aK.CajajaK#I`T.n.m`y`yaP`2.k`#`YaTaPa5.6a1",
".c.eaU#b.6.eah`Z`Wa``s`y.m#baU.E#F`R.K.k.a#za##n.s#`#e.j#Fanan#p`s`y`y`y.m#l#6`W.Xa.`E#y.0.ea7ao",
"ao.f``.N``.D`U`W.n```L`y.m`y`y#yaR`r`Y`Y#V.s#naka##`#O`x.6`r#MaU`y`y.m.m`s``#F.m`Z`m``.N``aza1`e",
".c`2aW``````#F.h````#F.maP`yaN#M.s.s#ka.#O.sakak.s#`#e.3aR#z#`.3aL.m.maP.n````aN.n```````0.X`A.E",
".c.W`G`E``````.e````.D#h`U`4aB#Y#O#`.a`n#e.s#n#n#z#`#e.w.a#e#eaZ.R`Uar#haA````.e````````.X.W.d.X",
"`A.d.Faz``````````````#F.E.KaS#f`naGaG#T#t#`.sa##z#`#taZ#0#0#0.v`N.K.dan``````````````.U`G`A`e`2",
".Wa.ara1`E.e`````K`K``.D#l`z.ea6.P.v`n#T#P#`#z#z#`#O#t#0#T`n.P.1.e`maQ`z````````````.6.f`Ga..X.0",
"ala.ah.W`Y.U```Kad.I````.D````.ea6.j.1`n#0#t#O#`#O#eaG#f.Pa6.T.6``.e.x````.M`w`````m`d.K`G`x.z.7",
"#.`AalaD`Ya1`q.5#R#R.Y``````````````.e.1#T#P#t#e#t#taq.P.e``````````````.5#R`B#j``ag`daDalao.0.5",
".r#S`G.X.k`O.d.e`X#L`X``````.x````.e.5.j.v#TaG#t#a#a#g`d.D``````.D``````..ay#x.5a7.W.jal`2.f..#x",
".l#l.F`2`dag#raB`K##`H`g``..`j`w`K.I.C.e.1.v#T.w#Y#f#W.6af..``.MayaV``.5`H.C.5.k.W.W.6ah.F`Y##`H",
".raU`Zar`Y`e`QaD``.5`H.I`X.O.Q.O.I.Q`jaK`q.1.P.v#W.1.b.YaF`j`v`j.Q.OaKac.OaV``aU`Q`O`Ear.F.f#x##",
"#C#y`Z.Fa7`R`2`2aB``.D#x.Qa8a8.QaC`3.8`j.M`8.b.j.b.6.Y.Ca8a8.O.8.8`3.O.C#j``.N.X.Xaz.U`Z`4`2aMa4",
"ab.0`W`Z.K.R`G`2.E``````.M`V.o.o.Q`3.o.8`jac`w`zaVad.G.B.8.8.Q.o.o.o.I``````an`2`G.U`e`Z`Z`2`5aJ",
"a0a7ar.F`Q.j`2`G#h`E`q.6```KaVaj`v`3.o.o.o`3.Qadaya8.o.o.o.8acayat.D````````.h.X`G.kaD`Zar.daEa4",
"aJ.p`A.Wa7.ea2.z`Z.7`q.1.6````````aV..aj`vaCacaVacaC`vacaj#j``````````````.N#6`2`2.e.da1`x.5.ta4",
"`J.t`a`g.5``.f`U`4#m.e#Wa6````````````````````````````````````````````````an`4`G.W``.p`g`a.t.u`.",
"`J`J`J.t`J.p.U.z`U.2.6.1.P````````````````````````````````````````````````#i.z.z`x`a.u`J.u`J`J`.",
"`J`J`J`.`J`g.j`2ah.maBa6#f.6````````.e.6.6.e.e``````.e.e````````````````.D.2`2ah.k.5`J`J`J`J`J`.",
".t`J.t`Ja0.N`qaU.z.maU`d#f.j````.e.R.T.T.T`d.j.e`q.j.j.j`d.6.e``````````.7aPal.X`E`C.H`J`J`J`J`.",
"`J.t`J`JaiaH.ea7.z`W#b.j.v`N``.6.1`C`q``````.e.e`````````qa6.T`````````KaLaP`2.K.6#8`Ea4`J`J.u`.",
".t`J.u.Ha7aH`q.kal`Z`s.U#W`d``.T`C`q.e.6.6```````````q.e.e`qa6`d````aK#I`L.2al.U`q#8`A.p.u.u.u.y",
"`J`J.y#Saxa..T.e`M`ZaP.7awaf``.T.j`d#u.4aq#u`d.ea..waq.w`A.j`d`C.eataF#I`sar#r`E`Ya.#8`x.H.u.u`.",
"`J`JaE`x.T.c`C```ear.m.faj.Q#..D.jaq#P#Z.4.4#Z.w.4.4#Z.4.4#W`q.jaf`3`v.7.m`G`e.ea..c.U.cai`J.u`.",
".t`J`..D`CaHa..e.Rar`y.E`w`V.o`V#l.3aRaR`7.7aRaB`7`7`7#l#MaBafa8.8.BaK.K.m`G.c.e.Rax.R`za0`J.u.y",
".t`J`..k`SaH`#``.c.z.m.zaA.G.8.o.oay.8.8.8.8.8ay`3.o.o.8.o.O`3.o.8.O.N.h.mal.R`Ea.axax`g`J`J.u.y",
"`J`Ja0.R#8`#`C.e`Q.z.2.maW.Aa8.o.oaF.o.o.o.o.oaF.o.o.o.o.oaF.8.o.Q#j.f.m`Wala1`E.c.c`O.N`..u.u.y",
".t.ua0`#`S`#.j`Y.Far`Z.maP.f#Ia3.G..`V.QaF.GaQ#S#.aQa3aF.QajaC`v`7#maP.m.Far.z.k.R`x#8.U.y.u.u`.",
"`J`J.H`#`#`d``.f.2`Z.F.2.m.m#6#yaU#Fan.naU#maN.haN#yaLaU.n#FaL#i`W.maP`Z.F.F.F`R``a.`#`R`F.u.u`.",
"`J`Ja0`C.k`a`K.d`W`Z.2ar`4`WaP`y.m.m.m`y`y`y`y.m.m`y.m`y`y.m`y`yaP`Z`U.F`Z`Z.Fa7`Kai.k.U.y.u.u.y",
".t.ua0.5`F.t.H.R`G`4.2.2.F.F.F.F`Z.2`Z.2`Z`Z`Wah`Z.2`W`Z`Z`Z`Z`Uah.z`Z`Z`Z`Z.z.U.H.t`aai`.`J.u`.",
"`J`J`J.t`J.t`.`Kao.Xar.2.2.2.2`Z`Z`Z`WaP.maP.m.E`Z.m`W`W`W`Z`Z`Z`Z`Z`W`Z.F`G.d.D.t`J`J`.`J`J`J`.",
"`J`J`J`J.t.t`.`g.e.RaoaD`2.F.2aP.m.m.m.m.m.maPaU`Z.m.m.maP.m.m`W`W.Far.X#r`x.e.p`Ja4.t`J`J`J`J`.",
"`J`J`J.t.u`.`g.6.6`````q.6.R.W.2`W`WaP.maP.maPaz`U.m`WaP.m`WaP`WaD.c`x`Y.e````.5.y`J.u`J`J`J`J.y",
".t.t`J.t`Fae.ea6a6.6`````````Yar.2aPaPaPaPaP`4`Y`2aP`WaP`W`W`W.F`Y````````.6a6`q`T.H`.`J.t`J`J.y",
"`J.u.t`aaI`P`N#E`k`N``.k#M`q.e.War.F`4.F.F.Fa1```Rar`4`Z`4`4.F.E`q.e.k``.e`N`k#U`T`baia0.u`J.u.y",
".u.y`g#2`c`8aX#EaX#d```R#r`A.6.ka1a2.X.X.XaW`q````#MaD.X`Ga2.W.k.e`#.V.6`q`k#EaX.6`1`1`z`F`J`J.y",
"`F`T#2`D.ZaSap#5#5.g`8aR`Ga2ao`q.6.T.U.R.6``````````.e`d.R`Y.e`q.V`l#u.easapapap#Ua``D`c`T`a`J.y",
"`K`h`p#2.xaSaSaA`N`N`8`YagaoaoaB.e``````.e`E.k.k.k`E.e```````q`xao#u#M`8aS`N#U#UaS.D`p`ba```aiai"
};
