/* XPM */
static char *w4_xpm[] = {
/* width height num_colors chars_per_pixel */
"    48    73      256            2",
/* colors */
"`` c #050305",
"`. c #07867d",
"`# c #882623",
"`a c #074943",
"`b c #848224",
"`c c #d1c317",
"`d c #481213",
"`e c #c48e1c",
"`f c #865036",
"`g c #05272d",
"`h c #564715",
"`i c #d48ebc",
"`j c #482b1e",
"`k c #afc4d0",
"`l c #cc5848",
"`m c #c7a917",
"`n c #766430",
"`o c #bc2658",
"`p c #28040f",
"`q c #894e8f",
"`r c #fce49f",
"`s c #88288b",
"`t c #8c847c",
"`u c #491757",
"`v c #946c19",
"`w c #4b4e5a",
"`x c #443e4c",
"`y c #66141a",
"`z c #672c20",
"`A c #74823c",
"`B c #2a271a",
"`C c #e4b01a",
"`D c #873625",
"`E c #e58a51",
"`F c #89a7bc",
"`G c #fbe708",
"`H c #faca89",
"`I c #281714",
"`J c #07685f",
"`K c #09171b",
"`L c #04a08f",
"`M c #6d4816",
"`N c #481d1a",
"`O c #eaa765",
"`P c #a9361a",
"`Q c #a94f2d",
"`R c #d8aa7c",
"`S c #c86b45",
"`T c #ccd644",
"`U c #a66d47",
"`V c #ebb773",
"`W c #516974",
"`X c #dacfda",
"`Y c #323619",
"`Z c #cb895b",
"`0 c #683a28",
"`1 c #4e3a0e",
"`2 c #736b73",
"`3 c #dbe8ec",
"`4 c #943156",
"`5 c #073938",
"`6 c #a8abb4",
"`7 c #2f0c33",
"`8 c #64560c",
".` c #e06a98",
".. c #c22e76",
".# c #0aa6a4",
".a c #294634",
".b c #e7c811",
".c c #b48f71",
".d c #8d422f",
".e c #381238",
".f c #fbabcc",
".g c #684e60",
".h c #c79568",
".i c #17090b",
".j c #e89855",
".k c #381812",
".l c #511c42",
".m c #bca514",
".n c #05a895",
".o c #181718",
".p c #fada0b",
".q c #370913",
".r c #306444",
".s c #f7a869",
".t c #e9f6f6",
".u c #c4c7c0",
".v c #3084ac",
".w c #6a1f1d",
".x c #28282e",
".y c #fcd68e",
".z c #876112",
".A c #a74086",
".B c #08776d",
".C c #069182",
".D c #ab2647",
".E c #514537",
".F c #792b1e",
".G c #581e1b",
".H c #f59b65",
".I c #491447",
".J c #19282d",
".K c #525a63",
".L c #ddb781",
".M c #ce7b4e",
".N c #d9a870",
".O c #8e6a4e",
".P c #fcf608",
".Q c #b05e3c",
".R c #b4bac0",
".S c #aa880c",
".T c #ac7b19",
".U c #727675",
".V c #085348",
".W c #582e21",
".X c #8799a9",
".Y c #973723",
".Z c #674835",
".0 c #c9d5dc",
".1 c #c13b77",
".2 c #dd7c4e",
".3 c #270c0f",
".4 c #aa2a7e",
".5 c #189c8c",
".6 c #ea9a68",
".7 c #58544c",
".8 c #f8bb7e",
"#` c #64125c",
"#. c #48c4e8",
"## c #8a7076",
"#a c #738593",
"#b c #e7508f",
"#c c #ac6a64",
"#d c #bc3a27",
"#e c #7c2770",
"#f c #fc9e84",
"#g c #b2845a",
"#h c #a486b4",
"#i c #d84c98",
"#j c #f9c578",
"#k c #a4526c",
"#l c #901450",
"#m c #943cb0",
"#n c #9c8c54",
"#o c #e34169",
"#p c #7c9caf",
"#q c #dc3f5c",
"#r c #b4ba34",
"#s c #394854",
"#t c #fcc8dc",
"#u c #dcde3c",
"#v c #5f7888",
"#w c #f6b8d6",
"#x c #f07aac",
"#y c #6d5b5a",
"#z c #ab422f",
"#A c #946a9c",
"#B c #bc7eb4",
"#C c #d3b710",
"#D c #a49e2c",
"#E c #a99aa7",
"#F c #74168c",
"#G c #f88aa8",
"#H c #386680",
"#I c #e4e43c",
"#J c #735742",
"#K c #a92db4",
"#L c #9c62ac",
"#M c #f4ac98",
"#N c #99b1c3",
"#O c #b09c80",
"#P c #905d40",
"#Q c #b37b53",
"#R c #d06098",
"#S c #9c2ea9",
"#T c #74113d",
"#U c #a43251",
"#V c #c53858",
"#W c #98464c",
"#X c #e95d96",
"#Y c #783a68",
"#Z c #745e94",
"#0 c #445624",
"#1 c #747224",
"#2 c #907a6c",
"#3 c #2b363e",
"#4 c #a4a22c",
"#5 c #d83278",
"#6 c #9b7554",
"#7 c #b4d6e4",
"#8 c #4f392f",
"a` c #b6adb4",
"a. c #fc9cba",
"a# c #ac38c8",
"aa c #922062",
"ab c #39505f",
"ac c #5c226c",
"ad c #fafcfb",
"ae c #de3f8f",
"af c #9c2a14",
"ag c #cf9a19",
"ah c #99523e",
"ai c #dbab14",
"aj c #d7dbe1",
"ak c #d98752",
"al c #163732",
"am c #d9985e",
"an c #959aa0",
"ao c #cf4087",
"ap c #977ea7",
"aq c #bb9914",
"ar c #962f91",
"as c #773b2c",
"at c #791f2b",
"au c #748fa1",
"av c #ac9060",
"aw c #71227f",
"ax c #937414",
"ay c #d46674",
"az c #0c959e",
"aA c #561411",
"aB c #b96b44",
"aC c #f9b770",
"aD c #626a72",
"aE c #e6eaed",
"aF c #74468c",
"aG c #c4ccd3",
"aH c #727b88",
"aI c #3c4630",
"aJ c #e8ba14",
"aK c #701c6e",
"aL c #174a37",
"aM c #382815",
"aN c #775914",
"aO c #ef6d9d",
"aP c #f5ca11",
"aQ c #37282c",
"aR c #570f36",
"aS c #b98717",
"aT c #7a4837",
"aU c #b789b7",
"aV c #373943",
"aW c #bcac30",
"aX c #f4d6e4",
"aY c #868b93",
"aZ c #7c9634",
"a0 c #a75142",
"a1 c #ac2067",
"a2 c #085b59",
"a3 c #f088c8",
"a4 c #9a8718",
"a5 c #fcf0b0",
"a6 c #571660",
"a7 c #99a5b0",
"a8 c #1ca2c4",
/* pixels */
".J.x.J.J.J.J.J.J.J.J.J.J.J.J.J.J.J.J.J.J.J.J.J.J.J.J.J.J.J.J.J.J.J.J.J.J.J.J.J.J.J.J.J.J.J.J.J.J",
".C.C.C.C.C.C.C.C.C.C.C.C.C.C.C.C.C.C.C.C.C.C`.`..C`.`..C`..C.C.C.C.C.C.C.C.C.C.C.C.C.C.C.C.C.C.C",
"`L`L.n`L`L`L`L.n.n.n`L.#`L.#.n.n`L.n`L`L`L`L.n`L`L`L`L`L`L`L`L.n.n`L.n`L.n`L.n`L.n.n`L.n`L.n`L.#",
"`L`L`L`L`L`L`L`L`L`L`L`L`L`L`L`L`L`L`L.n.n`L`L.C.C.C`L`L.n.n`L`L`L`L`L`L`L`L`L`L`L`L`L`L`L`L`L`L",
"`L`L`L`L`L`L`L`L`L`L`L`L`L`L`Laz`L.naz.B`a`g`g`g`K`K`g`5.V`.`L`L`L`L`L`L`L`L`L`L`L`L`L`L`L`L`L`L",
"`L`L`L`L`L`L`L`L`L`L`L`L`L`L`L.n`La2`K.o`ha4.m#C#Caiaqax`1`K`g`J.#.n`L`L`L`L`L`L`L`L`L`L`L`L`L`L",
"`L`L`L`L`L`L`L`L`L`L`L`L`L`L.n`.`KaM.S#u.P.P.P`G.P.P.P.P`G#C.z`I`5.C.n`L`L`L`L`L`L`L`L`L`L`L`L`L",
"`L`L`L`L`L`L`L`L`L`L`L`L.#.n`J.iax`G.P`G`G`G.P.P.P.P`G`G`G.P.P.b`8`K.B.n`L`L`L`L`L`L`L`L`L`L`L`L",
"`L`L`L`L`L`L`L`L`L.n`L`L.n.V`I#C.P`G`G`G.P`G#C`maWaW.b`G.P.P`G.P`G.S.i`J.n`L`L`L`L`L`L`L`L`L`L`L",
"`L`L`L`L`L`L`L`L`L`L`L.n.VaM.b.P`G`G.P`G#Cav`6aGa`.0#O#6.m`G.P`G`G.P`m.o`J.n`L`L`L`L`L`L`L`L`L`L",
"`L`L`L`L`L`L`L`L`L`L.n.V.k.b`G`G`G.P.m`0apadad`X`s#wadaE`q.d.m.P.P`G.P.m.o`J.#`L`L`L`L`L`L`L`L`L",
"`L`L.n`L`L`L`L`L`L.n`J`I.b`G`G`G.p#1aca##m`3ad`q#KarajaE.A.4#``f.p`G`G.Paq`K`..n`L`L`L`L`L`L`L`L",
".n`L`L`L`L`L`L`L.n.B.o#C`G`G`G`Ga4`6#A#S#S#haU#F#S.4#BaU.4ar#hap.T.P`G.p.Pa4`K.C.n`L`L`L`L`L`L`L",
"`L`L`L`L`L`L`L`L.C`K.S`G`G.p.p`G`c.uajaca##m`s`s#Lar.A.A.1#Yaj#O.b`G`G.p`G`GaN`g.5`L`L`L`L`L`L`L",
"`L`L`L`L`L`L`L.n`gaN`G.p`G`G`G`G`G#nadap#Fa##`#hadaFaa.A#e`6`Xa4`G.p`G.p`G`G.p`Y`a.n`L`L.n`L`L`L",
".n`L`L`L`L`L.n`J.k.b`G.p.p.p.p.p`G`m.RadaF#F#Zadad`X#eaa##ad`t`c`G.p.p`G.p.p`G#C.o.B.n`L`L`L`L`L",
"`L`L`L`L`L`L.C`K.S`G.p.p.p.p.p.p`G.p.U.t`2``aYa7ana7.g`pa7.Rax`G.p.p.p.p.p.p.p`G.z`g`L`L`L`L`L`L",
"`L`L`L`L`L.n`a`1.paPaP.p.paP.p.pai`v`B.K`2an.R.R.Ra`.R#E.U`w.W.zai.paPaPaPaP.p.p.b`I`J.n`L`L`L`L",
"`L`L`L`L.n.C`K.SaPaPaPaPaPaPaq`8.EaYajadadadadaEaEaE.tadadadaj#a#8aNagaPaJaJaPaP.pax`g`L`L`L`L`L",
"`L`L`L`L.n`a`1aPaJaJ`C`CagaN.7a`adad.u`t.K#3.o.i`K.i.oaV.K#a.uadadan#8`Magai`C`CaPaJ`B`J.n`L`L`L",
"`L`L`L`L`L`K`eaPaiagag.T`1anadaj.U.o``````````````````````````.xaHajaE.UaM.Q`eagaiaPaN`g.#.n`L`L",
"`L`L`L.n`JaMaiai`eaSaN#8`k.RaI``````.i.i.k.k.q`d.k`d`N`N.k`I.i``````.K`kanaMaN.Taqaiaq.o`..n`L`L",
"`L`L`L.n`a`h`CaS`v`MaI#N.K``````.o`NaA.F.F.d`D`D.d.F`D`#.w.w`d.q.i```````W#p`B`M`vaSaiaQa2.n`L`L",
".n`L`L`L`gaN`e`v`1aQaY.x``````````.WaB.Q`Sak.jakakakam.M.M`Q`Q`z.i````````.a#vaM`0.zaq`M`5.n.n`L",
"az.n`L`L`gaN`v`M`I`w.J``````````````#JaCam.j.6am.M`Z`O`Oak`Oam`I````````````.xab`I`0ax`M`g.n.n`L",
"a2`L`L.C`g`haN.k.o.o``.k.o````````````#g.y`V.N#j.y.y`Vam#j#j.x```````````I`I``.J.o.k.z`h`g.#.n`L",
".E`..n`L`g`j`M.o````.G`DaQ.J#v#s``````.o.L`r`O.h`r.N`e.y`H`Y``````#saD.JaQ`z.G.i``.3`haM`5.n.n.5",
"#Q`a.#.n.V.oaM``.3.G#z`#.J#p#7`k#v```````Y`r.N`Ma5.O#g.y`x````.i#v`F#N#a`Kas.F.G```I`j.3a2.n.n.V",
"#j.E`..#`.`K.o.i`z.w#z.wab`3aE`3`3aH``````.7aM`Y`r.Z`KaQ````.J.X`k.0`3#7.a`0`#.Y.q.i.o`K.C.n`.aI",
".y.c.V`L`La2```d#z`#`P.G#v.tadadad.t#v````````.O.y`U``````.o.KaHajadad`3#v`z.F`Pat`d.i`J.n.n`5.h",
"`H.y.E.B.n`.`y`y`D`D.Y.Gauadadadad.0#3aV.i``aMaCam.saM``aV.aaH`3.tadad.t#v`z`z`P`zat`B.5.n`J`8.y",
"`R.y`Zal.C.r`PaA`z`Q.F`Nau.tad.tadaYaHab#3``.Z`Z.W`U`0#3#s.Jajadadad.t.tab`z.w#z`d`#.wa2.nal`O`H",
"`f`H`H.Z`aaM#d`p.3.F`#`N.J.0adadad.0`FabaH.K```N.l`N``.K.R.0adadadadad#N.J`D.G.F.i.w`P.a`a`f.y`V",
"`d#Q`r.h``.G`#.i.d#g`V.N.ZaQ.Ua7.uaj.0.R.0aQ#W#Ga.#G#k`j.0aE.u`6an`t.K.o.Z`V.N`S`0.3`P`d.o.N`H`f",
".d.3.h.y#8aAaAaN.6#j.y`r`r`R#6#J.Z.ZaI.U`x`#a..f#w.f#G#U.o.O.Z.O#6#6#g`R.y.y`H#j.j`0.GaA`M.y`U.i",
"`Q.G`K#Q`f`pas`O.8.N`n.y.y`r`r`r.L`f.l.q.3aya.#w#t.f#G#X.3.W#Y.E.La5`r`r.y.y#8#O#j.j.W`paT#6.i`N",
"#z.Q.Z```I```0aC#j`M``.L.y`H.y`H#8#L.f#R.k.`a.#taX.f#GaO.G#k#w`i`z`R.y.y.y#O``#8.8`OaM``.i``aT.d",
".Q.F.6`j```````U#6````#y`HaC`H.O#Y.fa3.`#e.`a.aXaX#M#GaO`4a3a3#x`4#J`H#j#j.E````.O.Z``````.Wak.F",
"`S.wakaB````````.i````.i.c`Z#f.Z`4ae#i.`.1#b#G#w#ta.#G#Xae#X#iaeaa`0.6ak#g````````````````#Q`S.w",
".2.F.Qam.k``````````````.7#gaT`I.l#la1#5#5#b#xa.#M#G#x#X#oao...4#T`I`f#6`w``````````````.k.6`Q.F",
"`Z.d`f.H`z`I``````.i`K``.i.K````.3.l.q#T`oae#X#G#G#GaO#b.1#l#TaR.i``.o#y````.J.i````.i`N`0.H.F.Q",
".U`Q`D.H`M`z.k```K#vaD````````````.i.i.i#T#5#baOaOaO#Xaoaa.3.i````````````.iau`W`K```z`z`f.j.Fak",
".v.g.Y.H.d`z.d``#s#N.X#3```````````````K.qa1#5#b#X#R#i.1.I.o````.i````````.K`F#p#3.k`Q.wah.j.d`Z",
"#.#H.Y.sah`j.Q`z`K#a#NaH`````KaYaD`K#3.X`I#T`o#5ao.1..aa.3#ZaV.oau.K`````K#p`Fab.oa0.Q`Nah.s`z.U",
"#..vaBaC.Q`N.M.Q.kal#N`F#s``aH.RaGaYa7`k#v.q#la1a1a1.4aR.xa7#Ean.0#7aH```W#N#a``.Z.M`S.k`UaC.W#H",
"a8.K.j#j`S.k`S`S#P```w`k#p.XaEaE.t.R`kaj`kaV.qaR#TaR.q.oan.0.R.RaE.taEau`F#p.J``#6.2aB.3.M.8.Mab",
"az.EaCaC.j.kaBak`Z.i``#s#aaGadadadaGajadaE.R`W.x.i.o#3.X`3ad`Xajadadad`k.K`K``.iam.2aB.3am.8.8#P",
"az#8aC#j`C.w#P`E#f#8``````#san.uaE.RaGadadad`3#N#Ha7.0`3adada`.RaGan.U.o``````aQ`O`E#P.G.s.8.8#J",
".#`a`QaC.s.W`f.6.6.O`````````````K.o#3aD.U.UaH.UaV.K`2.K`w`w.o````````````````#y.s`E`f`0.s#M.M`B",
"`L`..J`z.d.3.W.j.j.h``````````````````````````````````````````````````````````.c.j.j`j`NaBah.k`J",
"`L`L`.`a`5`g`I`Eam.8.o``````````````````````````````````````````````````````.i.L`E.j`I`g`Bal.B`L",
"`L`Laz`L.5.B.i.M.j`H.E```````````````````````````````````````````````````````j`H.2#Q.i`.`L`L.n`L",
"`L`L.C.Caza2``#P.j.8#6``````.i``````````````````````````````````````.i```````n.8`Eah```J.n.n`L`L",
"`L`L`L`L`.aM`d`0.j.s.N````.3.3`paAatatatat`d`p```````p`yatatat.w.e.q.3.i````.h.s`E`0.G`B.C.n`L`L",
"`L.Caz`L`a`D`y`I`E`O.8`I``.i.q#T#V#o#5#o#o#q#V#U.w#U#q#o#o#o#o#5`o`y`7.i.o`I`V`O.M.k`D.F`a.n`L.n",
"az`L`L`J.W`PaA.iaB`O.y.ZaD`x.q#T`o#V#q#V#V.D.D.D`4.D.D.D..#V#q#V.D#T.i`xan`0`H`O.Q.i.w.Q`d.B.n.n",
"`L.C.C`x`P.w`y.ias.j.y.OaY.u#E#y###y#8aQ`x.7aDaH.7aH.UaD.7.EaQ`w###yan`X#a#J.y.j`0.3`y`D#z.a`L`L",
"azaz.B.W`N.waf`p`N`E.y.c#8aj`3aGadada7`3adadadadaGadadadadad`6ajadaE.R`3`w`U.y.2.k.q.F.G.FaM`..n",
"`Laz`LalaAaf`#.q`p.M#j.y.kan.u`Xad.ta`adadadadad.uadadadadadaGaEadaEa7`6aQ`V`H.M.k.q`D.Y`IaL.C`L",
"`L`Laz.J`#`P`#`p`j.2#j`r.caQ`w`6adadanadadadaE`XaD.RaE.tadad`6aj.t`6`w`w.c.yaC.M`NaA.F`Q`N.B`L`L",
"`L`L.C.x`Paf`y.i#P.s.6.y`r.N`f.Z`2`2#8##`2#y#y#J#JaT#J#y.O.U`x.7`2#J#6`V`r.y.j.s`faA.F`Q.w.V.n.C",
"`L`L`.`N#d`#.k.i`E#j.s`O#j`r`r`H`V.N`R`R`V#j.y`r`r`r.y`H.8`R`R`V#j.y.y.y.8.j.HaC`Z`d.F.Y.YaL.n`L",
"`L`L`.`jaf.k`K.3.HaC.8.s.6`OaC`H.y.y.y.y#j#j`V`VaC`V.8#j`H.y.y.y.y#jaC.j.j.saCaC.6.3aA`z`D.a`L`L",
"`L`L`.`j`d`a.V`pakaC.8#jaC.s.j`Eakakam`O`O.8#j.8.h#j#j`V`Oamamak.M.2`E.jaCaCaC.s`Z.ial.oaA.a.n`L",
"`L`L`L`5`a`L.Calas.HaC.8.8#j#j.8`V#j`H.y.y.y.y`H`U`H.y.y.y#j#jaC`OaCaC.8aC.8aC.6aT`g`L`.aLa2.n`L",
"`L`L`L.C`L`L`L`J.i.FaB`E#f.HaC#j`H.y`H`H`H.y.y#j#P`H`H`H`H.y`H.y#j.8aCaC.s.H.M.d.i.B`L`L.C.C.n`L",
"`L`L`L`L.C`L`L.B`K```p.G.F.d.Q.6#j#j`H`H.y`H.y.8`f#j.y.y`H`H.y#j#j.s.2aBa0as`N```5`L`L`L`L`L`L`L",
"`L`L`L`L`L.C`J`K`p.e````````.i#W.8`H`H`H#j`H`H.N`z`V`H`H.y`H`H#jaC`f.q.3.i``````.o`J.C.n`L`L`L.n",
"`L`L.C.n`.aL`Y.qa6a6`7``.i`p```N.2.s#j#j#j.8#j#Q.3.M#j.8#j#j.8aCak.k``````.i`7`u.i`Y#0.B.n`L`L`L",
"`L`L.n`Jal#4`1aKaw#`.e```N#W`d``ah.2.j.H.H.H.M`j``.Wak.s.H.s`O`Eas```d`z``.3a6aKa6`I#r#0.V.n`L`L",
"`L`La2`B`c#D.Iar`saw`u```0`laf.q.ias`QaB.QaT.k```````dahaB`SaBas.i`N#Wa0``a6#eaK`s`7aZ`T`h`5`L`L",
".C.VaI#r#I`haKararar`s`7`f#f`S#z`d``.i.i.i``````````````.3.3.i.i.Ga0`l#W`p`s`s`s`s`u.E#u#u#1`a.C",
".J.i`h`b#1`I.I.I.I.Ia6`7`N#c#k#W`D`7``.i``.3.k.G.W`N.k.i````.i.k#Y`#`4`0`7`u.I.I`u`u.o`A#1#1`Y`g"
};
