/* XPM */
static char *w5_xpm[] = {
/* width height num_colors chars_per_pixel */
"    48    73      256            2",
/* colors */
"`` c #050306",
"`. c #09897d",
"`# c #852625",
"`a c #074849",
"`b c #9c820c",
"`c c #c4c23c",
"`d c #491015",
"`e c #8a5138",
"`f c #c49119",
"`g c #07282d",
"`h c #57481c",
"`i c #a4c9d7",
"`j c #472813",
"`k c #e48a94",
"`l c #c44a24",
"`m c #280a0d",
"`n c #bf2367",
"`o c #4a6875",
"`p c #a44cac",
"`q c #fac988",
"`r c #8e6a14",
"`s c #66276c",
"`t c #c7a311",
"`u c #67271b",
"`v c #883223",
"`w c #2b2314",
"`x c #878a92",
"`y c #fce69d",
"`z c #07655a",
"`A c #4c4856",
"`B c #7c8244",
"`C c #500e5c",
"`D c #fae809",
"`E c #d7ae7a",
"`F c #08191e",
"`G c #e58956",
"`H c #271715",
"`I c #a47521",
"`J c #681310",
"`K c #4a3516",
"`L c #88a4b4",
"`M c #04a18b",
"`N c #373622",
"`O c #863698",
"`P c #6c4c0f",
"`Q c #a85135",
"`R c #f0aa75",
"`S c #ca6e3f",
"`T c #344a34",
"`U c #d1cdce",
"`V c #ccc448",
"`W c #a83720",
"`X c #e8b81a",
"`Y c #6a530e",
"`Z c #fba4c2",
"`0 c #841a7c",
"`1 c #693828",
"`2 c #e1e8ea",
"`3 c #093839",
"`4 c #3c6274",
"`5 c #18080b",
"`6 c #c86c8c",
"`7 c #c6875c",
"`8 c #75672f",
".` c #bca80c",
".. c #4f1a18",
".# c #08786b",
".a c #e9c910",
".b c #085955",
".c c #e7b880",
".d c #a78d21",
".e c #a5afb2",
".f c #24aea4",
".g c #fada0c",
".h c #462928",
".i c #310b29",
".j c #bc2474",
".k c #27292d",
".l c #241a2c",
".m c #07ac97",
".n c #89402f",
".o c #aa6b4e",
".p c #eaf5f6",
".q c #8a5e24",
".r c #fcd892",
".s c #8a6949",
".t c #685058",
".u c #171818",
".v c #371713",
".w c #c69668",
".x c #360a0f",
".y c #a6885c",
".z c #682933",
".A c #e69861",
".B c #583921",
".C c #cb794d",
".D c #ac9e74",
".E c #2a3640",
".F c #6b573d",
".G c #6a6975",
".H c #069989",
".I c #a4194f",
".J c #bfc8cd",
".K c #156763",
".L c #b45e40",
".M c #f9bb7b",
".N c #ab7953",
".O c #ece25c",
".P c #f1a869",
".Q c #531833",
".R c #782821",
".S c #fcf608",
".T c #d2a45f",
".U c #14373f",
".V c #b4be8c",
".W c #bdd4df",
".X c #49565d",
".Y c #6e1238",
".Z c #14a094",
".0 c #18042c",
".1 c #6a7883",
".2 c #572919",
".3 c #86979e",
".4 c #096a67",
".5 c #66889a",
".6 c #f2cada",
".7 c #8f1946",
".8 c #05a395",
"#` c #6a4738",
"#. c #8c7b87",
"## c #da548c",
"#a c #f48a94",
"#b c #680e7c",
"#c c #c83e7f",
"#d c #bc452c",
"#e c #b22366",
"#f c #ea6aa0",
"#g c #b0a46c",
"#h c #fac67a",
"#i c #a32fad",
"#j c #f886ac",
"#k c #6c3a84",
"#l c #cc9acc",
"#m c #b48bc1",
"#n c #dd3f89",
"#o c #7696a4",
"#p c #245244",
"#q c #c4b7bf",
"#r c #888648",
"#s c #b79519",
"#t c #745c69",
"#u c #a44674",
"#v c #872181",
"#w c #d8ba58",
"#x c #aa422d",
"#y c #98b9c8",
"#z c #641860",
"#A c #e77b99",
"#B c #f998bd",
"#C c #a076b0",
"#D c #bcbe4c",
"#E c #a99551",
"#F c #47484c",
"#G c #7c265c",
"#H c #cfb60f",
"#I c #967a58",
"#J c #e15d99",
"#K c #f2b86c",
"#L c #a6bac0",
"#M c #d1375b",
"#N c #9c365c",
"#O c #784c8c",
"#P c #a425ac",
"#Q c #a49aa8",
"#R c #bc46bc",
"#S c #ecdae9",
"#T c #e07250",
"#U c #904248",
"#V c #ce9d74",
"#W c #987615",
"#X c #dcd210",
"#Y c #d5dade",
"#Z c #284450",
"#0 c #c82d56",
"#1 c #94274c",
"#2 c #fcda77",
"#3 c #b42e54",
"#4 c #798691",
"#5 c #a47b1c",
"#6 c #510f31",
"#7 c #8c5e45",
"#8 c #9723a3",
"a` c #edebef",
"a. c #98503e",
"a# c #1a2728",
"aa c #b7861f",
"ab c #77797c",
"ac c #df7a51",
"ad c #d62c7a",
"ae c #fafdfb",
"af c #ca9c1e",
"ag c #711d18",
"ah c #4c1b55",
"ai c #b65036",
"aj c #78382a",
"ak c #da885a",
"al c #195659",
"am c #b6abb4",
"an c #b98b61",
"ao c #76157e",
"ap c #fbb4cd",
"aq c #347474",
"ar c #ac274c",
"as c #f57caa",
"at c #982428",
"au c #795816",
"av c #b96e4a",
"aw c #966a49",
"ax c #f79861",
"ay c #78573f",
"az c #784a38",
"aA c #f49b74",
"aB c #3a5556",
"aC c #154344",
"aD c #586772",
"aE c #d9aa1b",
"aF c #392616",
"aG c #f5ca11",
"aH c #5a282b",
"aI c #3a2a28",
"aJ c #d89a61",
"aK c #393a3f",
"aL c #58585e",
"aM c #979ba2",
"aN c #e65197",
"aO c #574239",
"aP c #384754",
"aQ c #a446b4",
"aR c #998359",
"aS c #7a2487",
"aT c #9482b4",
"aU c #c96c51",
"aV c #881698",
"aW c #dcc214",
"aX c #d8ba88",
"aY c #b86e3c",
"aZ c #98a6a8",
"a0 c #3a1446",
"a1 c #9a422e",
"a2 c #6f1b37",
"a3 c #ba965e",
"a4 c #b7bbc1",
"a5 c #8a4b5c",
"a6 c #973321",
"a7 c #493733",
"a8 c #7c028c",
/* pixels */
"aC`M`M`M.8`M`M`M`M`M`M`M`M`M.H.8`M`M.H.H.H.H.H.H.H`M.H.H`M.8`M`M.8`M.8`M`M`M.8`M`M`M`M`M`M.H.8.4",
"`3`M.8.8`M.8`M`M`M`M.H`M`M`M`M`M`M.H`M.8.8.m`M.8`M.8.m.m.H`M`M`M`M.8`M.8`M.8`M`M`M`M`M`M`M`M.8.4",
"aC.H.8`M`M`M`M`M.H.8.8`M.H.8.H.8.8.8.8`..4.b`a`a`a.b.4`..m.m`M`M.8`M`M`M`M`M`M`M`M`M`M`M`M`M.8.4",
"aC`M`M`M.8`M`M.8`M.8`M.8.8`M`M.8.H`z`g`F`w.B`Y`Y`h`K`w`5`g.b`M.8`M.8`M`M.H`M.8`M.8.H.8.H.8`M.8.4",
"aC.H.8`M`M`M.H.8`M`M`M.8.H.H.8.#`FaF`r#H`D.S.S.S.S`D.g#H`r`H`F.#.8.8`M`M`M`M`M.H.8`M.8`M`M.H.8.#",
"`3`M`M`M`M.8`M.H.8.8.H.H.8.8`a.u`b`D.S.S`D`D`D`D`D`D.S.S.S`D`r`5`a.8.8`M.H.8`M`M`M.H.8`M`M.8.8.4",
"aC`M`M`M.8.H.8`M.8`M.8.H.8`3aFaW.S`D.g`D.S`D.g.g`D`D.S`D`D.S.S#H`w`3.8.8.8.H`M`M.8`M.H.8`M.H.8.4",
"`3`M`M.8`M`M`M.8.H`M`M.m`3`K.g`D.g`D.S`D#H.d.D.V.D#E.``D.S.S`D.S`D`j`3.Z.8.H`M.8.H.8`M`M`M.8.8.#",
"aC.H`M.H.8.8.H.8.H.8.8`a.2`D`D`D.S`D.`#Iam`2ae#m#Ya`aMay#E.S.S`D.S.gaF`3.8.8.8`M`M.H.8.H`M`M.8`z",
"`3.H.8.8`M`M.H.8.H.m.baFaG`D.g.S#X#7ao`paeae#ma8#Caea``Oaoau#X.S`D.S#X`w`a.m`M.H.8.8`M.8`M`M.8.4",
"aC.H.8`M.8.8.H.8.m`z`HaW`D.g`D.aab#k#RaV#l#S#8#8#8#S#m#P#i#k.saW.S`D.SaW.u.4.8.8`M`M.H.8`M.H.8.4",
".U`M`M`M.8.H.8.8`.`F`f.S`D`D.SaE#gam`O#i#i`p#8`O#8aQ#i#iaoamam`t.S`D.g.S`b`F`..8`M.8.8.H`M`M.8.4",
"aC.H.8`M.8.H.8.Z`Fau`D`D.g`D`D`D#E.p.G#8#8`0aSaTaS#P#iaV#t.p.y`D`D`D`D`D`D`P`g.8`M`M.8`M.8`M.8.4",
"`3.H`M.H.8.8.8.baF.g`D.g.g.g.g`D.``U`2`s#P#b#.ae#OaV#8`s`2#q`t`D.g`D.g.g`D#X`w.b.m`M.H.8.H`M.8.4",
".U.H.8.8`M.8`.`F`t.g.g.g`D.g`D`D.a#Iae#C#b#Oa`aea`#k`C#QaeaRaG.g.g.g.g`D.g`D.d`F`..8.H.8`M.H.8`z",
"`3.H.8`M.8.8`3`P.g.g.g.g.g.gaG.g`D#W`U.J.0aba4aZ#q#t.0`U.J`f`D.g.g.g.g.g.g.g.g`h`a.8.8.8.H`M.8`z",
".U.H.8`M.8.#.u`X.gaG.gaGaGaG.gaG`f.B`N#t.1`x`x#QaMaM#.aL`N`P`f`X.gaGaGaG.gaG.gaf`F`..8.8.8.H.8`z",
".U.H.8.H.8`3au.g.aaG`XaG`X`X#W.B.taM#Saeaeaeaeaeaeaeaeaea`aMaL`K`IaE`X`X`XaGaGaG`h`3.m.H.8.H.8`z",
".U.H.8.8`..u`taG`X`XaEaE#W`j#t`Uae.pa4#4.X.E.ka#.kaK`Aaba4.pae`U.t`j`IaEaE`X`XaG.d`F.H.H.H.H.8`z",
".U.H.8.m`a.BaGaEaEafaf`Pa7a4ae.JaLa#```````````````````````F.X.e.p.eaFajaa`faE`X`XaI.b.8.8.H.8`z",
"`3.H.8.H`F#WaEafaf`I`jaL.p.e.E```````m.x....`d........`d`m``````a#aZ.W#F`j`I#5`f`X`8`g.8.8.H.8`z",
".U.H.8`..u#safaa`r.v.G.J#F`````5`daH`u.R.R`#`#`#`#`#ag.R.Rag.v`m````.E#yaL`j`r`I`f.d`F.H.8.H.8.b",
"`3.H.m.#`w.d#5.q.v.G.3`````5....`#`##x.LaUaJ.PaJ.Aakav.La1`v.R`J.v`5````.1#F`j`P#5#s.u.#.m.H.m.b",
"a#.H.m.4.l#W.qaF`TaD`````j`u`WaiaU.A#K.M#h#K.M.M.M`q`q#h#K.AaU.La6ag.v`5``aB.k`jau`I`w.#.m.8.8`3",
"`5`..m.#.u.F.B`5.k```Hag`vaiac`R`q`q.c#h.M.A.P`RaJ.P#h.M#K.M.M.Pacaia6ag`5``.k.u.Bau.u.#.8.8.4.l",
"`H.b.m`.`F`haF`````Ha.#d#T.M`q#Vay`E`q`R.M.r`q.r.r.r.M#K`q.s..`7.MaxaU`W`v.v```5`j.B`F`..8.HaB#7",
"a7#p`M.H`F.v`w``.v``.B.C.P`E#7`5``ay`y`q#K.M.r.r.r#h`q`yaX`5```5ay`GaAak.n`H`5``aF.2`F`M.m.baR#I",
"ay`8.#.m.4`````H`#..```5`H`5```````5aX`y`q`R`q.r`q.c#2`y#``````````HaIaF``.h.R```H`5`z.m.H.k`q.s",
"ay.w`a.m.m.K`5`ua6aj.2``````````````.F`y`y#V.c.r.T.T`y`E`````F`F````````aIajat.x``#p`M.m.b.s`yau",
"#`.Ma7`..m.4`da6a6`##x.l.UaP`o`oa#```5aX.r`1#g`y#7aw.raO``.uab.5`oaP`Fa7`Qaja6ag`Haq.m.H`N.c`q#`",
"aO`q.y`a.8aCag.Ra6`v#x.k.5`i.W.W#o````aI.t`5.T#2#7`5a7````.5.W.J`i#yaBaK.L.2aiag.2#Z.f`aaw.r.A`m",
"`j.c.M`T.4`N`#..`W`##xa#`iaeae.pa`.1``````aI.c.T.T``````aD`2.pae.p.p.5aIaz.R`W`ma6aF.Ka7#K.r`e`m",
"`m`7.r.N`F`j`W.xa1ag`v.k`iaeaeaeae`2.X````aua3`1aJ`j``.X.Jaeaeaeae.p#o.k`v#d`u`5`W`u```I.raJagaj",
"`m.L#2.c`H..`W`5`5aja.`H#Laeaeaeae.G.uab`FaF#`ayaO`5.1aL``.Jaeaeae.p`4aI`Q.R.x.x`#`#.u`E#2#7.n.n",
"`m`1#h#hay..`u`j.oakaJ.h`o.paeaeae`A``#Y`A```1#7#```.e#4`F`Uaeaeae#ya#aw`7av.C.2`dag`h#2#h`ua1`v",
".x.xaJ#2`7.x`Hav`7.N.o#7`5#o.paeae.pae.W`ma.`k#B#A.zaK.paeaeaeae.W.EaH#V`R.TaY#7`d`d.o#2a3.x#xaj",
".2.v`K#K.P`5`1ax.M`q.r.r.N`5aP.G`x.eaM.k#U`Zapap#Bas`d.X.eaZabaL.ka7.c`y`y.r`qak.n`5.Pa3`H.x`Qaj",
".2`u``.2ak`jaY#h`q`q.r`q.raX#E.y.s.F.saI#A`Z.6.6`Zas#uaF#Iay.Da3`E.r`y.r.r.r`q.M.o`5ay`5`j..`Saj",
".h`1az```5`5.o#h`q`q.c`q`q.r`y.ya5a5aFaH#aap#S.6`Z#j#J.v.za5`1aX`y`y.r`y#`#V.r#K`K````.u`Q..ac.2",
".hag.CaF`````w`R.r#7aO`q.M.r.ya5ap`Z#N.z#aap.6#S#Bas#f.i`6`Z`6.zaX.r`y`E``aF#haw``````az.L`v`G`H",
"`N`u.C#7``````aO.N````#V`q.c.z#f#l#B###3as`Z.6.6#Bas#J#Nas#fas#1#7`q`Raz````aI`5``````.Cai`Q`e`F",
".l.v`SaY`5````````````aO`R.o.Q.j#naN#nad#f#Bapap#Bas#J#n##aN#n`0.hai.o.l```````````5`H`G`Q`eaD.E",
"#Z.t.Cak`d`H````````````.Na5`H#G.I`nadadaNas#B#B#aas###nad.j.I#6`5.o#t`````````````j...P`Q.h.W`4",
"aP.F.A.P.2aH```````F`````w.u``#6#6#6.I`naN#f#j#jas#f#nar.Y#6#6`5```H`5``.u.E````.h`u`K.M.C.h#yaq",
"a##7#2.M`1`u.2``aK#o.l```````````5``.x.7adaN#f#f#f###c.Y`5`5````````````.X.3aP``a...`e.M.Maz.1aq",
"`F#7`q.M`e`j.L`5`o#y.X`````````````5.u#6`n#naN#J###c#3.i`F`````5``````.u#o#o`T`1.L...o.M.M.Lal.K",
".uaz.M.Mav.v`S.R.u#o#o````.E#4`F``aD#4`m.7`n#c#n#c#c.YaI.G.k``#4aD`5``aB#y.XaF.Lai.v.C.P.P#U`z.K",
"`3`Nac#h`G.vav.L.vaP#y.E.k.ea4#4aD#L#L#F.x.I#e`n#e.Y.iaL.J.3.1.W.JaDa#`L.5`F#7.C.L.v`G.Pav.k.H.b",
".b.b`JaY.C`m.oac`e``.X.5#y`2#Y.J.3`2#YaZaK.i#6.Y.i.iaK.e`2#L#qaea`.W#o.1.u`5`7ac.n`5`Q#U.u.4.m.b",
"aC.8`a.u.x```e`G`S.h``.u.3a`aeae.ea`ae#Y`LaDa#.u.EaD#L`2aea4`2aeae.J.E````aO.Aac`1```3`3.#.8.m.4",
"aC.8.m.H`.`3.2.A`G#7``````.k.XabaD.J.p.p#Y.J`LaD.e.W`2.pa`#4.1aD.k`5``````#IaAak.v`3.m`M.8`M.m.b",
".U`M.H.H`M`3.v`GaJ`7````````````````.k.EaK.E.k.laPaK.E.k.l````````````````#VaJ.C.x`w`..8.H`M.m`z",
".U.8`M.H`.aF`m.C.A.caF``````````````````````````````````````````````````aF.c`G.o.v`#`a.m`M`M.8`z",
".U.Z`M.8`a`#.xawax.M.t``````````````````````````````````````````````````ay.M`G.q`m`l.v`..8`M.8.b",
".U.H.8`.`K#d`m`1ax.M.N``````````````````````````````````````````````````.y.P`G`K.x#xa1`g`M`M.8`z",
".U.H.m#pa6ag.x..`G#K#V`````````````````````````````````````````````````5.c.AacaF`Jagai.2.4.8.8`z",
".U.H.4`1`u`J`d`m`S`R.M`H``````````````````````````````````````````````.h`q`G.C`5ag`J.2aj`a`M.8`z",
".U.H.H`N`d`#ag`5a..P`qa7``````````.x.x.i`5`````````5.x.x.x`5``````````ay#2`G`e`5ag`W`d`N.#`M`M`z",
".U.H`M`3ag`W`J`5.RaA.raz````````.x.7.7.7.7..`````5.Y.I.I.7#6`5````````#I#h`G`u`5ag`W`v`w`M`M.8.b",
".U.H.H`w`Wa6`J``.v.A#haw`5`````m#1ar#0#0#0#3a2`5.7`n#0#0#0ar`d````````.w`qac.v.xag`v#daF.#.8.m`z",
".U`M.HaF#dag..```mak.rawaD.JaL`m.7ar#0#M#M#M#0ag#0#M#M#M#0#1.i``ab.J`A#V#2.C`5.v`Jag#x.2.#.m`M`z",
".U`M.#.2`W`d.v```m.A`q#7`xae`2aL#I#t.2..a2`J.Q`d.z`u.Y.Q.z.taO#4aeae#tan#2ac`5`m..`d`v`1`z.m.8`z",
".U`M.#.B`J`F`g``..#K`qazaZae`UaZaeae.3.3.J.J.W.e#Y.Ja4#4a4ae`2aM.pae.G.N.rak`m`5aC.b`m.2.#.m.8`z",
".U`M.H.v.k`..K``aj.M`q.BaMaea4#Laeae#Y`2aeaeae#Yaeaeae#Y`2ae.p#4.J.paLaw.r.A..```..m`z.u.#.m.8`z",
".U.H`M.4`.`M`M`3a.#K`q#7aLaeaMaMaeae.e#Yaeaea`.eaeaeae.J.Wae`2.1.J`UaI`E`q.P`u`a`M.H`M`..H`M.8.4",
".U.H`M.m`M.H`M.Ua1.P`q`q`eaLaFaL`U#S.GaM#Y#qab.v`x#q#YabaM#SaZ#F.taOa3.r#h.P`u`3`M`M`M`M`M`M.8.4",
".U.H`M.H.H`M.K``a1ax#h.r`q.w#7azazay#`az.s.saw.N.s.s#7az.F#7azay.y`q.r#h#Kak..``.#.m`M`M.H`M`M.4",
".U.H`M`M`M`z.u.0.R#TaA.M`q`y.r.r.r.r.r.r`y`y`y`y`y`y.r#2.r#2.r`y#2.r#h#K.A.L`d`5`g.#.H`M`M`M.8`z",
"`3.H`M`M.b`wa0ah`ma1ac`k.M.M`q`q`q`q`q`q`q.M`E`R`R#K`q`q`q`q#h`q#h.M.P`G.L.R`m#z.i`Y`T.4.m`M.H`z",
".U.H`M`a`8`K`s`0.i`m#xaU`GaA.M.M.M.P.AakaY`Q.n`vaja.aY.C.A.P.M#h.MaAac`Q.R`H`C#v`C`h`c`T`a`M.8.b",
"`g`M.b`r#ra0#vao#z`5`maj.LaA#K`q`q#2#h#h#h.c`q#h`q#h#h#h#h`q#h.M.Paka..Q`5.i`0`0`s.l#D`c`N`a.m.b",
".U.b`8#waO`s#8#vaSah``.v#U.A`q.r.r.r`y.r`y`y`y`y`y`y.r`y.r.r.r`qaAaUaH``.0#G#vaS`Oa0`B.O`c`N`z`z",
"`F`w`Y`8`H.hah.Qa0#6`5``.z`Qav`7`7.w.w.wan.y.oaw.N.Nan`7.w`7.w`7avaj`m```ma0a0a0ah.iaK`B`8`8`g`g"
};
