/* XPM */
static char *w6_xpm[] = {
/* width height num_colors chars_per_pixel */
"    48    73      256            2",
/* colors */
"`` c #050406",
"`. c #088571",
"`# c #85261c",
"`a c #8c8634",
"`b c #054744",
"`c c #dec513",
"`d c #49100c",
"`e c #cb9c1b",
"`f c #875339",
"`g c #494414",
"`h c #05272d",
"`i c #8ccae4",
"`j c #dc8c98",
"`k c #48291a",
"`l c #cc4e6c",
"`m c #646e1c",
"`n c #c7a816",
"`o c #85878b",
"`p c #945664",
"`q c #eac88f",
"`r c #27090d",
"`s c #8a680c",
"`t c #bc2e24",
"`u c #77247e",
"`v c #fce598",
"`w c #6a281f",
"`x c #6886a2",
"`y c #464e5d",
"`z c #881f86",
"`A c #8aa4b6",
"`B c #342614",
"`C c #5c025c",
"`D c #e9b918",
"`E c #08685f",
"`F c #04a08e",
"`G c #fbe809",
"`H c #291815",
"`I c #e78d4f",
"`J c #a77a20",
"`K c #883322",
"`L c #09171c",
"`M c #586778",
"`N c #694a10",
"`O c #a4a29c",
"`P c #67132b",
"`Q c #d9a67f",
"`R c #656c79",
"`S c #cfcbd5",
"`T c #aa4f35",
"`U c #4a371a",
"`V c #dee6ea",
"`W c #69361f",
"`X c #e8a86a",
"`Y c #283528",
"`Z c #a8a428",
"`0 c #c96d4a",
"`1 c #a93218",
"`2 c #a4824c",
"`3 c #fac67a",
"`4 c #f4ad7e",
"`5 c #f7b671",
"`6 c #3a483c",
"`7 c #67551f",
"`8 c #a8aab3",
".` c #eeeef2",
".. c #c88858",
".# c #34143e",
".a c #3c8a9c",
".b c #480e40",
".c c #aa6c49",
".d c #913e59",
".e c #687987",
".f c #17040c",
".g c #069789",
".h c #3c627c",
".i c #a8b8c6",
".j c #08786b",
".k c #05af9e",
".l c #371714",
".m c #88422e",
".n c #cc7284",
".o c #f5c813",
".p c #885f16",
".q c #fba9c6",
".r c #c7976c",
".s c #073835",
".t c #a482b4",
".u c #6c5b5c",
".v c #b07b52",
".w c #b2c5d3",
".x c #fcd78f",
".y c #310b3f",
".z c #5a261a",
".A c #c0d0d8",
".B c #085752",
".C c #876f47",
".D c #06a793",
".E c #e99961",
".F c #b7bbc2",
".G c #8997a4",
".H c #360a0e",
".I c #883a84",
".J c #282930",
".K c #181717",
".L c #6a3a31",
".M c #c8a66a",
".N c #f7a96e",
".O c #74aac0",
".P c #4e5b67",
".Q c #f8c6d8",
".R c #4f1b17",
".S c #78291f",
".T c #b38a1a",
".U c #ece64c",
".V c #483a38",
".W c #2a343e",
".X c #fada0a",
".Y c #4e4643",
".Z c #7a97b1",
".0 c #694737",
".1 c #787884",
".2 c #846a64",
".3 c #d5307e",
".4 c #fcf40a",
".5 c #973722",
".6 c #180c0e",
".7 c #b42c74",
".8 c #96b2c6",
"#` c #681170",
"#. c #b85268",
"## c #df4c8f",
"#a c #af1b5d",
"#b c #cc4084",
"#c c #c03a20",
"#d c #ac7a64",
"#e c #e496c4",
"#f c #d0aacc",
"#g c #ef6da1",
"#h c #b0b838",
"#i c #b09a80",
"#j c #8e164a",
"#k c #d94084",
"#l c #a44aac",
"#m c #28595a",
"#n c #9036a4",
"#o c #f789b5",
"#p c #487494",
"#q c #b19651",
"#r c #987aac",
"#s c #c4246f",
"#t c #a09c30",
"#u c #af5d40",
"#v c #c87b4d",
"#w c #d7ba14",
"#x c #713777",
"#y c #491759",
"#z c #cfdae0",
"#A c #915d9c",
"#B c #a7462f",
"#C c #bc3e74",
"#D c #7c5490",
"#E c #771389",
"#F c #91288f",
"#G c #fbbad4",
"#H c #ac9eb4",
"#I c #776759",
"#J c #967818",
"#K c #8f7b52",
"#L c #b07cac",
"#M c #865e46",
"#N c #a03c6c",
"#O c #b89617",
"#P c #f7bb7f",
"#Q c #788899",
"#R c #b8865e",
"#S c #695744",
"#T c #aca66c",
"#U c #4a1b46",
"#V c #847a78",
"#W c #e85b9c",
"#X c #91225c",
"#Y c #711c14",
"#Z c #f579ab",
"#0 c #ac524c",
"#1 c #e4f0f2",
"#2 c #52514a",
"#3 c #fbfdfb",
"#4 c #894d97",
"#5 c #ac3654",
"#6 c #a62baa",
"#7 c #bc42cc",
"#8 c #d7cf21",
"a` c #c66046",
"a. c #9620a5",
"a# c #f4d6e9",
"aa c #fbd07b",
"ab c #3b475a",
"ac c #7cbadc",
"ad c #c8bcc2",
"ae c #701e64",
"af c #c86674",
"ag c #a48810",
"ah c #174541",
"ai c #1c242c",
"aj c #766a70",
"ak c #da8958",
"al c #9798a0",
"am c #76132e",
"an c #ac626c",
"ao c #962719",
"ap c #985133",
"aq c #898da2",
"ar c #583a12",
"as c #393319",
"at c #a78563",
"au c #b96d49",
"av c #d99661",
"aw c #1a3638",
"ax c #553a30",
"ay c #353944",
"az c #784735",
"aA c #f796b1",
"aB c #5a798c",
"aC c #f69c67",
"aD c #761c82",
"aE c #d6a618",
"aF c #5c525c",
"aG c #bc4e24",
"aH c #79381f",
"aI c #795b19",
"aJ c #b8acb4",
"aK c #e4669c",
"aL c #9a6b4b",
"aM c #3a2728",
"aN c #7b3a37",
"aO c #d7a871",
"aP c #ded8e1",
"aQ c #77583e",
"aR c #088b80",
"aS c #e88c62",
"aT c #ac5eb4",
"aU c #56421e",
"aV c #7c7430",
"aW c #996a1f",
"aX c #99a7b4",
"aY c #b8a27c",
"aZ c #5a0d2e",
"a0 c #97432d",
"a1 c #bec7ce",
"a2 c #a432bc",
"a3 c #d57b55",
"a4 c #591b69",
"a5 c #985d41",
"a6 c #9c7b67",
"a7 c #fbca88",
"a8 c #6c2a44",
/* pixels */
"`F`F`F`F`F`F`F`F`F`F`F`F`F`F`F`F`F`F`F`F`F.g.g.g`F.g`F`F.g`F`F`F`F`F`F`F`F`F`F`F`F`F.g`F`F.g`F.g",
"`F`F`F`F`F`F`F`F`F`F`F`F.D`F`F`F`F`F`F.g`F.D.D.D`F.D`F.D`F.g`F`F`F`F`F`F`F`F`F`F`F`F`F`F`F`F`F.g",
".D`F`F`F`F`F`F`F`F`F`F`F`F`F.D`F`F`F.D`F`.`E.B`b`b.B`E`.`F.D.D`F`F`F`F`F`F`F`F`F.g`F`F`F`F`F`F.g",
"`F`F`F.D`F`F`F`F`F`F.D`F`F`F`F`F`FaR`b`L.K`Bar`NaU`g`B`L`h.B.g.D`F`F`F`F`F`F`F`F`F`F`F`F.g`F`F.g",
"`F.D`F`F`F`F`F`F`F`F`F.D`F`F.D.g`b`Lar.T`c`G.4.4.4.4`G#w#J`k`L.B`F`F`F`F`F`F`F`F`F`F.g`F`F`F`F.g",
".D`F`F.D`F`F`F`F`F`F`F`F`F.kaR`har#w.4.4`G`G`G.4`G`G`G.4.4`Gag`H.s`F`F`F`F`F`F`F.g`F`F`F`F`F`F.g",
"`F`F`F.D`F`F.D`F.D`F`F`F.k.j```J`G`G`G`G`G.4`G.X.X`G.4`G`G`G.4#8ar`h.g`F`F`F`F`F`F`F`F`F`F`F`F.g",
".D.D`F`F`F`F`F`F`F`F`F.k`E`HaE.4`G.X`G.4`c#O`2#i#T#t`n`G.4`G`G.4.4.p`h.g`F.g`F`F`F`F`F`F`F`F`F.g",
"`F`F`F.D`F`F`F`F.D`F.k`E`H#w.4.X`G.4.X`Z#i`S#3ad#z.`aJ#M#O`G.4`G`G.4aI`L`F.D`F`F`F`F`F`F`F`F`F.g",
".D`F`F`F`F`F`F.D.g.k.j.K`n`G`G`G`G#t#x#A#3#3aPaD#l.`#3#L`CaQ`c.4`G`G`G`N.s`F`F`F`F`F`F`F`F`F`F.g",
"`F.D`F.D`F`F`F`F.DaR`L.T.4.X`G.X#Ka4#7`z`S#3#4a.#E#f.`#na2#F.Y#w`G`G`G`Gas`b`F`F`F`F`F`F`F`F`F.g",
"`F.D`F`F`F`F`F`F`F`L`s`G`G`G`G#w`O#Ha.#6#4#f#Ea.a.#laTa.#6.I`S#J`G`G`G`G#w.K`E.D`F`F`F`F`F`F`F.g",
"`F`F`F`F`F`F`F.D`bar`G.X`G.X`G`G#q.`#Da.#F#F#E#r#xa.a.#6a4.Fad#w.4.X.X`G`G.T`LaR.D`F`F`F`F`F`F.g",
".D`F.D`F`F`F.D.j`H#w`G.X`G`G.X`G`n`SaPae#F#E#D#3.t#Ea2#`#V#3`2.X.X`G.X.X.X.4`7`h.D`F`F`F`F.g`F.g",
"`F.D`F`F`F`F.g`L#J`G.X.X.X`G.X`G.X#K#3#r#`ae`S#3#3#A#`#x#3aJ#O`G.X.X.X.X.X.X`c.K`E.D`F.g`F`F`F.g",
"`F`F`F`F.g.D`bar.X.X.X`G.X.X.X.X`G.Tad.`.b#D.w`8.iaq.f.1#3#K.X.X.o.X.X.X.X.X`G#J`h.g`F`F`F`F`F.g",
"`F`F`F`F.DaR.6`e.X.o.X.o.X.X.X.X`D`s`k.P.u#V.1`o`o`o.1`y.Yasag`D.X.o.o.o.X.o.o.o`B.B.k.g`F`F.g.g",
"`F`F`F`F.k.s`N.X.o.o.o.o`D.o#OaIaxajad.`#3#3#3#3#3#3#3#3.`aJ#S`U`saE`D`D`D`D`D.X#J`h.g`F`F`F.g.g",
"`F`F`F.DaR`L`e.o`D`D`D`D.Tarax`8#3#3aP`8`R#2ay.Way.Y.P`o.F#1#3#z#I`k.p`e`eaE`D`D#w`H`E.k.g.g`FaR",
"`F`F`F.D`b`U`D`DaEaE#O`s`kal#3`V`o.W```````````````````````L`6`8#1.A.V.z`J.T`e`e`D.p`h.D`F.g`FaR",
"`F`F`F`F`h`s`DaE`e.T`W`U#za1#2``````.f`r.R.R.R.R`d.R.R.l`r``````.K`o#z.e`B.p`J.T`D.T`LaR.D.g`F.g",
"`F.g`FaR`L.TaE.TaW`k.Y.F#2``````.6.R`wa8.S.S#Y`P`w`P#Y.S.S.z.R.6````.K.G`o`HaIau.T`e`H`E.k.g`F`E",
"`F`F.D.j.K.T.TaI`k#2.G.K```````````k.Sa0`Tau#v..#v.c#u`f.S.S.z.6`````````y`R`H`NaW`e`k`b.k`F.g.W",
".g.D.D`E`H#JaI`Bas`R``````````````.fauak`X`5`4.N.NaC`4aSa`#u`H`````````````6`y`H`N`J`k`b.k.k.B#M",
"ah`F.D.j`LaIaU.f.W``.6````.W.J```````U#Pav.E.Nak.E`X.N#v.N`f````````````````.J.6`kaI`B.B.k`Fah#R",
".0`E.kaR`L`g`B````.l`k``.W`x`xab``````at`v`Q`5a7a7.xaS`3`Q``````aiaBab`L`H`H``.6`HaU`r`E.k.j#2#P",
".r.s.D`F`h`H`B``.6aHaH``.e.i#Q.Zab`````H.x.x`4.x`v`4aO.xax````.W.Z.Z#Qaw.l.S`H``.6`U.6aR.k`ba6#P",
"a7ax`..D.j`L```H.R`T`W.W`A.A.A.8`xai````#K`v.r.x`v.v`3.M````ai.Z.8.i.i`yaM`K#Y``.6.6.B.k.gas#P`Q",
"`v.v`b.D`F.j``.S`#a0`Way.w#z#z`S.w`R````.Ka6ara7.xaz#RaM````.e.w.A.w.waBaM.5.5#Y```b`F.D.B#M.xav",
"a7a7.V`.`F`E.R`K.SapaH.P.w#z`V#3#3#zab```````Ha7.x`U.6````.P`V#3#3#1.w`xaM`K.5`#`r.j.D.g.J`Xa7.m",
"`5`v#d`b`Fas`K#Y`##B`Naba1.`#3#3#3#3`Sai````#SaaaaaQ````.W#z#3#3#3#3.A#paMa0.5#Y#Yah.D`EaQ.x...R",
"au.x#P.V`b`k`1`daH`Ka0.W.F#3#3#3#3#3#3`8````.M`3`X#R``ai#z#3#3#3#3#3#z.haM.5.maZ`t.K`.`Y`X.xaN.S",
"`w`5.x#d```w#c`r.l.R`T`B.8#3#3#3#3#3al#z`R`H`5.vap.N.f.G`S#z#3#3#3#3#z.h.l#B.R`d`t.R`h#M.x`X.z#B",
"#Y.v.x#P.J.zao`r`B`Wa0`H.1#3#3#3#3a1```y.i```W`Uax.zaia1ai.K`V#3#3#3.iaiaN`K`H.H`1.R.6aO.x...Ra`",
"`K`w`3.xa5`d.R.0ak.r`XaLai.A#3#3#3.F```Ra1``.R.0a6`kai`Vai.K#1#3#3#3.hax.E#R#vax#Y#Y`U#Paaap.Ra`",
"a0`r.va7av.l.l.cau.vaW#R`kay.A#3#3#3.`#3#V.lan.naf.m.f`8.``V#3#3.`.e`r#Rau.caLap`d.H`f`3#P.R`wa`",
"a0`w`H..#P.R.l.E`3.x.x`Q#d.l.6ayajal`O#Q`Haf.q#G.q#o#Naial`8aq#I.W`H#M`4`q.x`3akaz`r.vaaaQ`r.Sau",
"a0.5aN``.c`kaI`3`3aa`v`v`v`q.rat#qaQ#IaUaN#o.q.Q#G#o#Z`P#I#KaVaY.M`q`v`v`v.xaaaa.E.l`2`f.f`W.S`0",
"`TaHak.6````.Laa`3.x`q`3.x.x`v.x.u`p.L.l#0aA.Qa##GaA#o#N`HazaN#M`v`v.x`v#PaO`va7`X`r.6``aN.ma0#v",
"au`waC.L``````#Raa.xaxat`va7.x.L#L#G`j.R#.aA.Qa##GaA#Z#N`k.q.q.I`f.x.x`va6`Ua7aa.0``````au`Ka``p",
".2`wak#u``````.6aOaQ``.0#P#P#Ra8#o#e#o#5`l#o#Ga##G#o#Z#C#.#o#Z#W.R.r#P`4.V``aQat```````Ba3.5.caM",
"`xaM#vau.H.6````.6``````#RaSazae.3#W#W.3#k#o.q#G.qaA#g#######k.3aZ`fa`aL``````.f``````az`IaH.u#p",
"ac.Vaka3.R.R````````````.0avax`d#a#a.3#s#k#g#o.qaA#o#g##.3#s#s#a.y.z`j.Y`````````````Hap.N.z`x`i",
".O.0`4.E.R.m.f``````````.6.0``.faZ`Pam#a.3#W#Z#o#Z#ZaK#k#a#jaZ#U``.6#2.f```````````k.l.c.N.c.P.O",
"aBaL`3`5.z`K`w````.P`y````````````.6.faZ#s###W#Z#gaK##.7aZ.f.f````````````.P.J````.m`d..#P.E.Y.a",
"#m.c`3#Pap`w#u`Hay.8.Z`L`````````````L`r#j.3###WaK`l###j.6``````````````ai.Z.G.K`W.m.R.E`5aC.V.j",
"`Eaz`5`5#u`ka`.mai.O.8ay````abay``ai`oaMaZ#a.3##`l#k.7aZ.W.P``.K`Rai`````R.8aBai`TaH`k.EaCak.WaR",
".g.W`0aC#u.la`au.laB.w.e```y.waX`y.Z.F`M.H#j#a#a#s.7#X`r.1.F`M#Q`8#QaiaiaX.8ayaz`0.zaHaCaS`W.B.g",
".D`E`H.S.z`rau.Eazaw.8.i`M.i#z#z.8.w`V`8.V.HaZ#j#jam`ray.Fa1`A#z#z.Aaq`x.w`xai#v`0`d`kap.R.s.g.g",
".g`F.j`b`b``ap`I..ai`y`M.8#1#3#3.w.A#3`VaX.P.J.f`r`Hab`Aa1`V.w`V#3#3.i.Z`xai.0`Ia`.6`h.s`E.g`F.g",
"`F`F.D.D`F`LaH`I`5ax.h.e`y.w#3#3.A.A#3#3#z.i`A`y.h.Z.8.A`V#3.A#3#3#3.G.haBay#daC`T```..k`F`F`F.g",
"`F`F`F`F.j.faxa3`5`2`M#z.Z.P`R#Q`R.e`S`V.`a1.i#Q`A.w.w#z.`.F`M`AaqaB`M`A.8aF`XakaH`rah.D`F.g`F.g",
"`F.g`F`Fah#Y.l#v.E`5aF#za1.A.A.waX#Q.G#Q.e`M.h.Jab`M.e#Q#Q#Q`M.i.i.A.8#z`Aa6`4ak`k.S`k.j.D`F.D.g",
"`F.g.k`E.z.5.f#uakaa#M.F.A.A#3#3aP.A#3.`#z.Faqay`M`8.A.`#3#3.i#3#3#1.i#1.1av`X#v.6`K.5`h`F`F`F.g",
".g`F.g`Y#B.S`rara3aa#R#Qa1`V#3#3`V.A#3#3#3#3#1.1.i#3#3#3#3#3.i#3#3#1.w.i#Iaa.Ea5.f#YaG.z.B.D`FaR",
"`F.D`EaHaH.R`d`r`0`5`3.Vay.F#3#3`V#z#3#3#3#3#3.F.`#3#3#3#3#3a1#3#3.`aBayat.x`I`W`r#Y.S`T`Y`..D.g",
".g.g#m`k`d.S#Y``ap`5aa#I`8.e`o#z.iaq#3#3#3.`.`.1.F.`#3#3#3#z.G`Va1.e.G.1.M`3a3`k`rao.R`w.R.j`F.g",
"`F.g`F.s`P`K#Y```W.Naa#d.F.iaXa1.F`yaqaXalaqaq`y.1alalal#H`R`xaP`8.G.AajaO#P`0.6`daoao`H`E.g`F.g",
".g.g`Faw#Yao`#``.Havaa.vaX`V#3#3`V.A.`.`.`#3#3ad`V#3#3#1`V`V.F#3#3`V.w`o`X`5ap.f`PaoaG.R.j.D`F.g",
"`F.D.gaiao`1`d``.fak.x.vaq`V#3#3.A#z#3#3#3#3#3.F`V#3#3#3#3#3.i#1#3.`.8`o`X`5.L``#Y#Y#c.S`b.D.D.g",
".g`F.g.W`1#Y.K``.f...x`2aj#1#3#3a1`S#3#3#3#3#3.FaP#3#3#3#3#3.F`V#3#3.iaj`X`5aH```d#Y`K.m.s.D.D.g",
"`F.D.g`Y#Y.6ah```rav.x.v.u#1#3#3.A`V#3#3#3#3#3.F.`#3#3#3#3#3.i`V#3#3.i`y`X`3az``.H`P#Y.5ah.D.D.g",
"`F.g.gaw.K`E`.``.l`XaaaO.Va1#3#3#z#z#3#3#3#3#3`oa1#3#3#3#3#3.w#3#3#1`x.0aa`3#u``awah`H.R#m`F.D.g",
"`F`F`F.B.j.D.g.s`w`5`3.x.r.0.1aJ.1`R`Sal.1.u.uaUaF.u#IaqaJ.F`Mal#HajaQ`Xaa`5`0.6`E`F`E`L`E.D`FaR",
"`F`F`F.g.g.g`F.BaN.N#P`3.xa7.r#daL.CaL.v.r`qaa`v.x`3aO#R`2aL#MaL#RaO.x.x`5`5a3`H`.`F.g`..g.g`F.g",
"`F`F`F`F.g.g.D.B`w.N.N`5#Pa7`v.x`v`v.x.xaaaa`3`5#P`3aa.x.x`v`v`v`v`v`3.N.N`5a3`H`.`F`F`F`F.g`F.g",
"`F`F`F`F`F`F.j`L.zaS.N.N.NaC`X.N.N`X`5`5`3`3`3#vava7#P`5`5.N`X.N`X.E.E.E.N.Nau.f.B.D`F.g`F`F`F.g",
"`F`F.g`F.g`Eai.y.6`TaC#P`5.N`X`X`5#P`3.xaa.x.x.vav.xaaa7a7`3`5.E`I.E`5`5.NaS#B``ai.jaR`F`F`F`FaR",
".g.g.DaR#m`6`ra4.y.l`TaS.N#P`3`3a7aaaa.x.xaa.xaL...xa7aaaaaaaa`3`5`5`5aC`Ia`.l.b.f`7`6`E.D.g`FaR",
"`F.DaR`b#t`ga4aD#```.l.S`Tau`0.Na7a7a7a7.xaa.x`f...xa7a7.xa7aa#PaSaka`#u.5.H.J#F.b`g#8`g`b`F.DaR",
".D`.`h#t#h`H#E`z#E#y````.f`r`da`#P`3a7a7a7`3a7.L.ca7a7a7a7a7`3`4aN.l.H.f``.6#X`zaD.##h#8`g.s`F.g",
".j`Y`Z.UaV#ya.`z`uaD`r``.l`H```waS`4`4#P#P.Nak.l.0.N`4#P`4`4`4#0.f`r.H.6``a4#F`u#F.yaV.U#8`g`b`.",
"`LaU`m`a`B.##y#U#U#U`H.6.LaNaM`r.S#B#u#u#0.m`k````.La5`p#ua5.m.l.la8a8.#.6.##U#U#U.#.JaVaV`7ai.s"
};
