/* XPM */
static char *w7_xpm[] = {
/* width height num_colors chars_per_pixel */
"    48    73      256            2",
/* colors */
"`` c #050305",
"`. c #078879",
"`# c #862216",
"`a c #a88414",
"`b c #074746",
"`c c #ccc234",
"`d c #471218",
"`e c #c79317",
"`f c #875138",
"`g c #06272e",
"`h c #c48ecc",
"`i c #5a4514",
"`j c #afc5d4",
"`k c #cc522c",
"`l c #452b0f",
"`m c #c6aa18",
"`n c #c42e1c",
"`o c #27090e",
"`p c #78664c",
"`q c #8c4e74",
"`r c #868a8f",
"`s c #fce39a",
"`t c #876b17",
"`u c #8c3620",
"`v c #484c54",
"`w c #56145e",
"`x c #282926",
"`y c #5e869c",
"`z c #87a6c1",
"`A c #e78d58",
"`B c #782880",
"`C c #fbca88",
"`D c #69291b",
"`E c #681710",
"`F c #06685d",
"`G c #e8ba19",
"`H c #281711",
"`I c #fbe709",
"`J c #04a38f",
"`K c #a76b44",
"`L c #08171b",
"`M c #67490d",
"`N c #8a1691",
"`O c #2a3044",
"`P c #c66d46",
"`Q c #d4a982",
"`R c #47360f",
"`S c #aca99f",
"`T c #a8513a",
"`U c #cccc58",
"`V c #c98657",
"`W c #4a1d1d",
"`X c #785714",
"`Y c #f5a96b",
"`Z c #dacada",
"`0 c #e06aa4",
"`1 c #9c37a1",
"`2 c #c79667",
"`3 c #35433b",
"`4 c #3c92ac",
"`5 c #c1c8d0",
"`6 c #eead7c",
"`7 c #089487",
"`8 c #b4a42c",
".` c #ae331b",
".. c #353828",
".# c #e89962",
".a c #a48e8c",
".b c #dde7eb",
".c c #291a2a",
".d c #7c4284",
".e c #e9b774",
".f c #f3c911",
".g c #8b6c50",
".h c #908a4c",
".i c #486a80",
".j c #17181a",
".k c #f9da0a",
".l c #18080a",
".m c #b11f4f",
".n c #04383a",
".o c #340e3a",
".p c #6a3b2c",
".q c #c72f77",
".r c #8797a0",
".s c #286866",
".t c #ac7b18",
".u c #c9d5df",
".v c #68676c",
".w c #462f2a",
".x c #fcd691",
".y c #b6276b",
".z c #faa7c1",
".A c #a6a8b6",
".B c #390a17",
".C c #555b60",
".D c #39261c",
".E c #381813",
".F c #694737",
".G c #eaf5f7",
".H c #07786f",
".I c #3cbad4",
".J c #491236",
".K c #846214",
".L c #6f1337",
".M c #08af9d",
".N c #c97c4e",
".O c #a9b8c4",
".P c #d1a574",
".Q c #8b422c",
".R c #059d8e",
".S c #89194c",
".T c #095a53",
".U c #a85e3c",
".V c #782b20",
".W c #d78757",
".X c #784735",
".Y c #b6babe",
".Z c #7cacbe",
".0 c #96b2c5",
".1 c #667889",
".2 c #561515",
".3 c #182624",
".4 c #d1b712",
".5 c #473936",
".6 c #571f1e",
".7 c #f59b62",
".8 c #fcf50a",
"#` c #07a89c",
"#. c #84727c",
"## c #64066c",
"#a c #d73959",
"#b c #c84e7a",
"#c c #f787ab",
"#d c #b17687",
"#e c #ccaad4",
"#f c #fac87a",
"#g c #ef6ea4",
"#h c #b7834c",
"#i c #7897a4",
"#j c #dadae1",
"#k c #89207e",
"#l c #d94088",
"#m c #a44526",
"#n c #675859",
"#o c #6f1d5f",
"#p c #df4f90",
"#q c #b82e94",
"#r c #5c5828",
"#s c #8c4e9c",
"#t c #dce24c",
"#u c #fa96af",
"#v c #76858d",
"#w c #bc9e64",
"#x c #5c7a8c",
"#y c #364554",
"#z c #f9b9cf",
"#A c #897b29",
"#B c #323a46",
"#C c #c42264",
"#D c #977851",
"#E c #b89666",
"#F c #fcc7d2",
"#G c #b69311",
"#H c #cc7a9c",
"#I c #f6bc80",
"#J c #b27b56",
"#K c #ee3a5a",
"#L c #7c3c98",
"#M c #8c364c",
"#N c #755641",
"#O c #b63150",
"#P c #c436b4",
"#Q c #a725a0",
"#R c #84249a",
"#S c #a89984",
"#T c #ac70b8",
"#U c #f678a2",
"#V c #8c5e45",
"#W c #8e2742",
"#X c #897d81",
"#Y c #dab48a",
"#Z c #47443c",
"#0 c #848cb4",
"#1 c #b44658",
"#2 c #721c39",
"#3 c #64bed4",
"#4 c #5c2274",
"#5 c #eeebef",
"#6 c #16483c",
"#7 c #bc4e1c",
"#8 c #596779",
"a` c #9598a1",
"a. c #fafcfb",
"a# c #f4d4e0",
"aa c #9c2a19",
"ab c #595059",
"ac c #b86c48",
"ad c #d67147",
"ae c #18392f",
"af c #777980",
"ag c #99a6b0",
"ah c #a18959",
"ai c #ab2849",
"aj c #d87a50",
"ak c #df779c",
"al c #385038",
"am c #e75994",
"an c #7c721c",
"ao c #731f10",
"ap c #afb12c",
"aq c #9c7098",
"ar c #ccbedc",
"as c #e0ca24",
"at c #994e32",
"au c #956e18",
"av c #784814",
"aw c #d99967",
"ax c #9b6a46",
"ay c #7c128c",
"az c #b18663",
"aA c #751c7b",
"aB c #9f51ac",
"aC c #fc9bc1",
"aD c #6f89ac",
"aE c #b88620",
"aF c #bc8e74",
"aG c #974131",
"aH c #3c4f56",
"aI c #59291b",
"aJ c #998a8f",
"aK c #166362",
"aL c #391727",
"aM c #f8b771",
"aN c #786674",
"aO c #572c29",
"aP c #5c0c34",
"aQ c #765b52",
"aR c #9521a2",
"aS c #59493d",
"aT c #0d8b86",
"aU c #cc9b19",
"aV c #58390e",
"aW c #793a27",
"aX c #9c5a34",
"aY c #991b4e",
"aZ c #bc5e3c",
"a0 c #583c33",
"a1 c #987b22",
"a2 c #ca3056",
"a3 c #ac9630",
"a4 c #daa81e",
"a5 c #682e34",
"a6 c #3c2c3c",
"a7 c #dc3680",
"a8 c #8a9cba",
/* pixels */
".R.R`J.R.R`J`J`J`J`J`J.R`J.R`J.R.R.R.R.R.R.R.R.R.R.R.R.R.R`J.R`J`J.R`J.R`J.R`J.R.R.R.R.R.R.R`J.R",
".R`J.R.R`J.R.R`J.R`J.R`J.R`J.R`J.R.R.R.R.R`J`J`J#``J`J`J`J`J.R.R.R`J`J.R.R`J.R`J.R`J.R`J.R.R`J.R",
"`J`J.R`J.R`J.R`J`J.R`J.R`J.R`J.R.R.R#``J`.`F`b`b.n`b.T.H`7#`#``J.R.R.R`J.R.R`J.R`J.R.R.R`J.R.R.R",
"`J.R`J`J.R`J.R.R`J`J.R`J.R`J.R.R.M`7.T`g`L`l`i`M`X`M`R.3`L.n`.`J#``J.R.R`J`J`J.R.R`J.R`J.R.R`J.R",
".R`J.R`J.R`J.R`J.R`J.R`J.R.R`J.R.T`L`l`a`G`I.8.8.8.8`I.k#G`i`L.naT.M.R`J`J.R.R`J.R.R`J.R.R.R`J.R",
"`J.R`J`J.R`J.R`J.R`J.R`J`J`J`7`g.D`e`I.8`I`I`I`I.8`I`I.8.8.8.4`M`L.H`J`J`J.R`J.R`J.R`J.R`J.R`J.R",
"`J`J.R`J.R`J.R`J`J.R`J.R`J.H`L`t`I`I.k.k`I.8`I.kas`I.8`I`I`I.8.8`a.j`F#`.R.R`J`J.R`J.R`J.R`J.R.R",
"`J`J.R`J`J.R.R`J.R`J.R#`.H`L#G`I.k.k`I.8.k`m.h#S#w#S#G.4.8.8`I.8.8.4.j.T.M`J.R`J.R`J.R`J.R`J`J.R",
"`J`J.R`J.R`J.R`J`J.R`J`.`L#G`I.k`I`I.ka1aJ`5#5#5`ja..uaJ#D.4.8.8`I.8.4`H`F#`.R.R`J.R`J.R.R`J.R.R",
"`J.R`J`J.R.R`J.R.R`J`7`L`a`I`I.k`I`m#Nay`ha.a.aB#4ara.#5#L#oa1`I.8`I.8.4.j.H#``J.R`J.R`J.R`J`J.R",
"`J`J.R`J`J.R.R`J`J.R`g`t`I.k`I`I`8ab`1#PaR#j#e#RaRaBa.#TaRaR#o#A.k`I`I.8#G`L`.`J`J`J`J.R`J.R`J.R",
"`J.R`J`J.R`J`J`J#`.naV.k.k`I.k`I.h.u#s#q#QaB`1aR#RaR#TaR#Q`N`Z.a.4.8`I.k.8.K`g.R`J.R`J.R.R`J.R`J",
"`J.R`J.R`J.R.R#`.T`H.f`I.k`I.k.8`m.Y#j`B#Q#Q`N#saqayaRaR`N.a.ba1`I`I`I`I`I.k`R`b`J.R`J`J.R`J.R.R",
"`J`J.R`J`J.R`J`..l#G`I.k`I.k`I`I`I.ha.a`ay#Q#4`5#5#L`N`N.da.#S.4`I`I.k.k`I`I.4.l.H#``J.R`J.R`J.R",
"`J`J.R`J.R`J#`.n`M`I.k.k.k`I.k.k`Ia3.Ya..d##.Aa.a.`ZaAaAar#5#A`I.k.k`I.k.k.k.8`t`g`7`J.R.R.R.R.R",
".R`J.R`J.R#``F.j`G.k.k.k.k.k.k.f`I.f`p.G.v.c`raJ`rag.5.c.b#S.4`I.k.k.k.k.k.k.k.f.D.T#`.R.R`J.R.R",
".R`J`J.R`J.R`Lau.k.f.f.k.k.f.k.f`e`M.D`v#v.A.A.Y.O.Aa`#X#8.D.K`m.f.k.f.k.f.k.f`I.t`L`.#`.R.R.R.R",
".R`J.R.R#``F.D`G.f.f.f`G.f`G.taV#ZaJ.ba.a.a.a.a..Ga.a.a.a..b.r#ZaV`a`G`G.f.f.f.fas.D`b#`.R.R.R.R",
".R.R.R`J`J`g.K.f`G`Ga4a4aEaVab`5a.a.`5#v`v#B.3.j`x`x..`vaf.Y#5a..YaSaV.ta4aU`G`G.fa1`L`7#`.R.R.R",
".R.R`J`J.H.ja4`Ga4aU`e`X..`S.G.Y.C.j````````````````````````.j.C.Y.ba``l`MaE`ea4`Ga4.j`F#`.R.R.R",
".R`J`J#``baV`Ga4aE.taVaS`5#i.j``````.l`H`d`W`W`W.6`W`d`W.E.l``````.3#v.O`v`l.UaE`e`G`i.n#`.R.R.R",
"`.`J`J`J`g.Ka4aE.K.D.Cag`x````````.l.6ao.V.V.V.V`##2.V.V`#.6.E````````.3#i.C.D`Xaua4au`g.R.R.R.R",
"..`7`J.R`Lan#G`X`l#Zaf``````````````aO.Qac.W.W.W`V`V.W`T#m.X``````````````#x#Z`W`M`aa1`L`7#`.RaT",
"#N`F`J`7`L`t`t`l`Hal`````L`O#B`L````.laF.W.e`6.#awaM`6ac`2.E`````LaH`v`L`````3.j`R`Xau.j`7#`#`.T",
"`K`b`J`7`LaS`X.l`L```H``#yaD`z.1`L`````i#f`V.e.x.e.xaEaMah````.j.1aDaD.i.j.l.l.j.la0`X`L`7#``.al",
"`Vae.R.R`g.D`R````.EaO.3#x`j`j.O#x.l````#E.Pax.x`saw`V.x.D```L.1.0.0`j.0#y.jaI``.l.D`l`L.R.M.T#.",
"#I..`.#`#6.l.D``.E.VaO#B`j.Ga..G.u#8`````H#N.E#f`s#V`KaQ````#8`j.ba..G.b`y`x.V.B``.E`H`b.M.R#6.e",
".x#N.T#`aT`L.j`o`#.Q`D`v.ba.a.a.a..b`v``````.c#f`saS``````#B.u.Ga.a.a..G`z#y`u`E``.E`H`..M`F`p.x",
"`Cawae#`#`aK.l`Eaoat`D#8.G.Ga.a.a.a..b#B````aQ#f.e#D````.3`5.Ga.a.a..Ga..0#Bat`#`#.l#6#``Jae.P.x",
"#I.x.paK.M.sao`Eao#m.Qab.G.Ga.#j.ba.a..u#B``.P.e.N.e.l.3.Oa.a..G#ja.a.a.`za6ataoaa.BaK.M.H#N.x#I",
".e.xaw.3aT.w.``d`DaWaX.w`5.Ga..C#Za.a.a..O.caxaX.E#V.jaga.a.a.af.j.Ga.a..iaS.U`#`d`##Z`7aeaw.x#h",
"`2`C`C.X`LaI.``o`d.Eax.D#v.Ga.`r``.Ya.a.#j#B.l.X#D.E`x`5a.a..b``#Ba.a.`5`O.X.V`E.laaaW`g#N#f`Y.6",
".p#I`Caw``.Vao`lax.pav`W`L.r.G.b`O`va.a.`j.jaI.QaXaO.l.0a.a.`r.j.ua.`5`Oa6.XaI`W`H`EaG```2#f`f.6",
".2.g`C#Ia0`W.6.Xac.e`C#Y#N.l#B.r.Y#i.b#jaea5ak#u#cak.6...ua.`r.O.A.C.c.F.e`C#I.WaW`oao`l#f.W`oat",
"`u.l#D`C`K.l`W`V`C.x`s`s`s#Y.g.5#rafaf`3.Bak.z#z#zaC#g.B..#v`r#naS.g`Q`s.x.x.x`YajaI.l`faM`HaIaX",
".Q.p.l#V#J```f.x#f#f`Q.x.x`s`s`s#Y.F#N#Z#M#u.za##z.z#c#M.D#n.5.P`s`s`s.x`saF#I`CaMac.la0.E`H.UaG",
"`u#J#V``.j``.X#f#f.P.j#Y.x.x.x.Pa5#d#d`o`T#u#za##F#u#c#b.j`q#d.F#w`s.x.x`Ca6.g`C#faX```````K#mat",
".Q`u.#.E``````#h#f`R``.g.x.x#IaO#H#z.z#M#1#u#z#5#FaC#c#ba5#caC#g`w#Y.x`CaF````.P.P.l`````W.W`#`K",
".U.6.#`f```````Ha0````a6`2`6#J.L`0`0#U#l#b#c.za##F#u#U#p#b#g`0#g.Laxaw`2aS````.D.c```````fad.6aw",
".W.6.N`P.l``````````````.gac.X.L.m#P#l#l#l#UaC#z.z#u#g#pa7#p#l.qaPa0.U.a.l``````````.l.l`VaZaW`Y",
"aF.Vac.W.2`W````````````.DaJ```o.L.SaY#Ca7#g#c#u#u#c#g#l.q.y.S#o.l``#X#Z````````````.D`W`A#maX#J",
".i.F`P`A.2.Q.l````#B#B````.l````.l.J.B.L.qam#g#c#c#gam#laY.J.B.l``````````.3#y`````HaW`l.7.U#Vab",
".I#B#h`A`dataI``#y.Z`y`````````````````oaYa7am#gak`0#p.y.B````````````````.1.r#y``.p.Q`W`Y`TaS`j",
"#3.C.#`Y`d`T`T`H`3.Z.Z#B````.j`3````aH`OaP#Ca7#p#p#l#O.S.c`O```L#B``````#yag#i#y.FaXaWaIaMac`3`j",
"`4#V#I`YaI.Q`PaW```y.Z#x``.j.r.0.C.C.O.1.BaY#C.ya2.q.y.J`v#0#yaf.O.v`````r.0#8.jaX`P.6avaM`Y.X`y",
".s#J#faM.Q`Daj.U.l.3`z.ZaH#0.u.G.Oa8`5.0#y.B.LaYaY.S.J.c#0.Oa8.u.G.u.1.C`j#i``aS.N`P`W.U#IaM#VaK",
"aKaX#IaM.U`D`A.Wa0``ae#i.Z.u.Ga..b.O.G#ja8#y.c.o`o.l`OaD.Y.bag#ja..G`5.0#i`x``#D`Pad.E.N`Y`Y`f.T",
"aT.5.7`Y`P.6.Waw#V````.j.C.ua.a..G.Ya.a..b.0#v#y#B.1a8ar.Ga.ar.Ga.a.`5#B.l``.l`2`Pac.B.W.7`A.DaT",
".R#6`D.U.p`o.W`AaF````````.j`v#Xag`ra.a.a..G`5aDag.u.ua.a..G#vag`r#Z.j``````.5awaj.U.Eaj`P`d.T#`",
".R`7`b.3`L.l`P`A.#a6````````````````#Z.C.v.1.1#B#B.C.v#8.C..````````````````.g.#`A.X``.E.3.T.R`J",
".R.R#``7aT`gaG.#`6`f`````````````````````````````````````````````````````````2aw`A`d.n`.`.`J.R.R",
".R.R.R.R`7`L.p.#`Y#J```````````````````````````````````````````````````````H.e.W.W`o`b`J`J.R`J`J",
".R.R.R#`.H.l.6.#.#`Q.l``````.l````````````````````````````````````````````#r#I`A`K.B.D`.`J.R`J`J",
".R.R`J.R.3.V`o`V`A#IaO`````o.B.l`````````````````````````````````o.l``````az`6`AavaIaa.n`J`J`J`J",
".R.R#`.T`D.```aX`A#fax````aP.2.l`````````````````````````````````d.J````.l.e.#`A`l`d`k.D`F`J`J`J",
"`7.RaTae#7ao`oaV`A`Y.P````#2#2.l.l.B.B`o``````````````.l.B`d.l```d#2.l``.D`C.W.N`H.2`u#7`g.R`J.R",
".R.R.T`u`D`E.2`H.W.#`C.E``aY#2`o.Sa2a2#aai.J``````.l.L#Oa2a2ai`d.B.S`o``#V.xad`K.lao.2ataI`F`J`J",
".R`7.sao`d`#`E``aX`A`C#N``#W.6aP#a#a#a#K#K#a#W`o.B#O#K#K#K#a#a#W.2#2`o``aF#fadav.l`#ao`W`R`F`J`J",
"`7.R`7.3`Eaa`#``a5`A#f#D#Z`Z.5.B.S`na2a2#Oaiai`E.S.m.mai#O#O#W#2.Baq`r.l.eaMad.E`o`#.`.E#6.M`J.R",
".R`7.R.3ao.`.V.l.l.N#faw.5a.a`a`.Y.va6aSab.v#..CaN#X#.aN#na6aJ.uag`5`j.D#I`YaZ.l`d`##m.V`b`J`J`J",
".R`7`7.3`naa.2`H``aXaM#f.w`Z.O.ba..bag.Ga.a.a..u#ja.a.a.a..O`5a..b.O.Oa0#f`Y.X``.2aoaaaG.3`J`J`J",
".R`J`7aL`n`d.c.l``.Q`Y.x.paJ.Y.ba.#j.Ya.a.a.a.`5#ja.a..Ga.`5`5a..b.0`r`f.x`YaW```d`E`##m`x.R`J`J",
".R.R`.a6`E.n.n.l``at`Y.x#h.Da`a.a..u.Ya.a.a.a.`5`5a.a.a.a..Y`5a.#5a`.5`2.x`Yat```o`d`E#m..`7.M`J",
".R.R`7.j.j`..H``.l`P`Y.x.x.X.D`5a..Ya`a.#j.Oa`ab`vaJ`S`5.bag`ja..Aa6#V.x#f`Yac``.jaKae.B..`7`J`J",
".R.R.R.T.H`J`7`b.E`A`YaM.x`s#J.X.gaSa0#N#n.g#D#E#waz#D#N#N`R.F#n#N`2`s#faM`Yaj`H.T`J`7.n#6.R`J`J",
".R`J`J`J`J.R`J.HaI`YaM`YaM`C`s`s#f#I#f`C.x`s`s`s`s`s`s.x.x`C`C.x`s`s#faM.7aM`AaL.H`J`J.R`7`J`J.R",
".R`J.R`J`J`7.R.T.6`YaM`Y.7.7.eaM#f#f#faMaMaMaMawawaMaMaMaM#f#f#f.e`Y.#.7`YaM`A.E`F`J`7`J`J.R`J`J",
".R.R.R.R`J`J`F```W`AaM#I#f`Y.#.#`A`Y#I#f.x#f`s`2.N.x#f#f#f`Y.7`A.W`A`YaMaM`Yaj`o.n`7`J`J.R.R`J`J",
"`7.R.R`J`..T.j.o`H`T.7`Y#I#f#I#f#f.x.x.x.x.x`s`2`K`s`C`C.x.x.x#faMaM#faM`Y`AaG.l.l`3`F`7.M.R`J`7",
"`7.R`J.HalanaLaA.o`H`T`A.7`YaM#I#f#f#f.x`C.x.x#hax.x#f`C.x`C#f#faM`Y.7`Aaj#m.j.L.J`l`a#6.H`J.R`7",
".R`J`F...4#r`w`N`w.l`o`D#M`T#1.N#I#f`C`C.x#f`sax`f#f#f#f`C`C`C#faj`T.Qa5`W``.JaAaA.japap..`F`J`J",
".R.T`Rap`c.E#k#kaA`w``````.l.l.V.#aM#I#I#faMaMaW`l`Y#I#f#f#I#I.#aO``.l.l```o#k#k#k`w#r#tap`x`F`J",
"`bal`8as#A.o#R#k#o#o`o```WaO`H.B`Tad.W.W`A.Wat`o.l.Xaj.#.#`A.W.X.l.o.2.J``aLaAaAaA`wa6`U`Ua3.3`F"
};
