/* XPM */
static char *w8_xpm[] = {
/* width height num_colors chars_per_pixel */
"    48    73      256            2",
/* colors */
"`` c #050305",
"`. c #0a8b7e",
"`# c #862232",
"`a c #9c8204",
"`b c #054946",
"`c c #dec50c",
"`d c #4e0f0e",
"`e c #884f34",
"`f c #c6981c",
"`g c #dc8a94",
"`h c #cc5e4c",
"`i c #b1c8d6",
"`j c #05282c",
"`k c #484638",
"`l c #462a18",
"`m c #c6a819",
"`n c #8c526c",
"`o c #fce7a0",
"`p c #7c6204",
"`q c #8d6b15",
"`r c #290b15",
"`s c #c22a5c",
"`t c #888d93",
"`u c #694b14",
"`v c #443e54",
"`w c #e8c38a",
"`x c #692923",
"`y c #841779",
"`z c #84a6b4",
"`A c #e4874c",
"`B c #e4b214",
"`C c #ac502f",
"`D c #701174",
"`E c #fae809",
"`F c #26241c",
"`G c #5f8599",
"`H c #281811",
"`I c #a96a45",
"`J c #c76c39",
"`K c #09161d",
"`L c #671231",
"`M c #d6a57e",
"`N c #8a3523",
"`O c #e9a96a",
"`P c #dce4e8",
"`Q c #dccee4",
"`R c #076762",
"`S c #674b51",
"`T c #483614",
"`U c #48484d",
"`V c #ed6ea5",
"`W c #c7895b",
"`X c #eab572",
"`Y c #04a18f",
"`Z c #b4aa74",
"`0 c #29362d",
"`1 c #fac57a",
"`2 c #875f0d",
"`3 c #c62f78",
"`4 c #e9f5f6",
"`5 c #e8a680",
"`6 c #fcd791",
"`7 c #481d1c",
"`8 c #29162d",
".` c #c7986a",
".. c #683829",
".# c #c87b4f",
".a c #495762",
".b c #506470",
".c c #a87c1d",
".d c #c6d8de",
".e c #f4c814",
".f c #ac9678",
".g c #6f686a",
".h c #b89c20",
".i c #785713",
".j c #17080c",
".k c #e99a64",
".l c #ac3624",
".m c #a8aeb8",
".n c #391716",
".o c #fba7bf",
".p c #284454",
".q c #581c1f",
".r c #2a2b36",
".s c #a8bac6",
".t c #462d37",
".u c #370c18",
".v c #18181a",
".w c #f8d90b",
".x c #a68328",
".y c #926a4d",
".z c #08ab97",
".A c #bc462c",
".B c #aa5e3d",
".C c #f6a96c",
".D c #889dad",
".E c #903450",
".F c #a02e18",
".G c #994f39",
".H c #792b21",
".I c #8c32a0",
".J c #b18462",
".K c #c2c9d0",
".L c #fcf50b",
".M c #edebed",
".N c #09766d",
".O c #d88956",
".P c #fbc989",
".Q c #884031",
".R c #523a31",
".S c #f79a61",
".T c #053a3d",
".U c #744b17",
".V c #f8b771",
".W c #ebb680",
".X c #582a20",
".Y c #c7a671",
".Z c #b42670",
".0 c #b86d45",
".1 c #585861",
".2 c #3c86a4",
".3 c #48a4c0",
".4 c #c96e4b",
".5 c #681f28",
".6 c #e2ecec",
".7 c #925e42",
".8 c #fafdfb",
"#` c #717a81",
"#. c #8e727c",
"## c #d48ab4",
"#a c #bc4e6c",
"#b c #dd4f89",
"#c c #74364c",
"#d c #c4aacc",
"#e c #cf4086",
"#f c #f485a6",
"#g c #7cb0c8",
"#h c #d8dbe2",
"#i c #738890",
"#j c #a84ea8",
"#k c #b49c54",
"#l c #607460",
"#m c #8f8a5c",
"#n c #8a194f",
"#o c #6c2244",
"#p c #af94b7",
"#q c #fa93c2",
"#r c #a46a84",
"#s c #095447",
"#t c #6a5552",
"#u c #e86099",
"#v c #d63c5e",
"#w c #842284",
"#x c #96acbe",
"#y c #9042a8",
"#z c #a2215e",
"#A c #d9ba11",
"#B c #dcbe94",
"#C c #7a96a6",
"#D c #b49112",
"#E c #f77aa5",
"#F c #9c6aa4",
"#G c #fbb7ca",
"#H c #a7422e",
"#I c #bc36b4",
"#J c #d83359",
"#K c #a523a3",
"#L c #8f2b49",
"#M c #b37a52",
"#N c #7c1d57",
"#O c #977617",
"#P c #b0a0a4",
"#Q c #ac60b4",
"#R c #460d2c",
"#S c #a84e4e",
"#T c #2a3944",
"#U c #77327f",
"#V c #395259",
"#W c #967553",
"#X c #bc9365",
"#Y c #246274",
"#Z c #746e94",
"#0 c #e0418d",
"#1 c #e4d208",
"#2 c #d8badc",
"#3 c #f4d2e4",
"#4 c #951d8f",
"#5 c #764654",
"#6 c #914d99",
"#7 c #099789",
"#8 c #f8c7dc",
"a` c #617787",
"a. c #74664c",
"a# c #76563a",
"aa c #c63b5d",
"ab c #19262e",
"ac c #daaa1e",
"ad c #64969c",
"ae c #b7acbf",
"af c #979ca2",
"ag c #88464c",
"ah c #96b7cb",
"ai c #5b4426",
"aj c #da7a51",
"ak c #a4a29c",
"al c #8a7e82",
"am c #bca812",
"an c #f691aa",
"ao c #9c7e64",
"ap c #fc9db9",
"aq c #a42ea4",
"ar c #1c4a44",
"as c #d69e1e",
"at c #392815",
"au c #7c1614",
"av c #d9965e",
"aw c #606975",
"ax c #085b5a",
"ay c #775b4c",
"az c #b6bbc6",
"aA c #b9861f",
"aB c #761f2f",
"aC c #c63454",
"aD c #a12b4c",
"aE c #594948",
"aF c #3c3224",
"aG c #361431",
"aH c #58322c",
"aI c #183634",
"aJ c #faba7e",
"aK c #dca46a",
"aL c #590e31",
"aM c #b75544",
"aN c #373944",
"aO c #882c1c",
"aP c #cc9a7c",
"aQ c #583916",
"aR c #793b2d",
"aS c #b43654",
"aT c #b65e3a",
"aU c #9a279a",
"aV c #d15a77",
"aW c #6a4939",
"aX c #8c1a99",
"aY c #e88b63",
"aZ c #784735",
"a0 c #7c4674",
"a1 c #faad7c",
"a2 c #ecbd17",
"a3 c #fcd07c",
"a4 c #9aa7a6",
"a5 c #a4aca4",
"a6 c #602074",
"a7 c #3b4551",
"a8 c #96412d",
/* pixels */
"`Y`Y`Y`Y`Y`Y`Y`Y`Y`Y`Y`Y`Y`Y`Y`Y`Y#7`Y`Y`Y`Y.z`Y.z`Y`Y`Y`Y#7`Y`Y`Y`Y`Y`Y`Y`Y`Y`Y`Y`Y`Y`Y`Y`Y`Y`Y",
"`Y`Y`Y`Y`Y`Y`Y`Y`Y`Y`Y`Y`Y`Y`Y#7`Y`Y.z`Y`..Naxaxax`R.N#7`Y.z`Y`Y`Y`Y`Y`Y`Y`Y`Y`Y`Y`Y`Y`Y`Y`Y`Y`Y",
"`Y`Y`Y`Y`Y`Y`Y`Y`Y`Y`Y#7`Y`Y#7.z.z`.`b`K.v`F`T`T`Tat.v`K.T`R#7.z`Y`Y`Y`Y`Y`Y`Y`Y`Y`Y#7`Y`Y`Y#7`Y",
"`Y`Y`Y`Y`Y#7`Y`Y`Y`Y`Y`Y#7`Y`Y`.`j`Kai#D`c`E`E.L`E`E#1am.i`H`K`R.z`Y`Y`Y`Y`Y`Y#7`Y`Y`Y`Y`Y`Y`Y`Y",
"`Y`Y`Y#7`Y`Y`Y`Y`Y#7`Y`Y`Y.z`R`K`u#A`E.L.L`E`E`E.L`E.L.L.L.w#O`H.T`Y`Y`Y`Y`Y`Y`Y`Y`Y`Y`Y`Y`Y#7`Y",
"`Y`Y`Y`Y`Y`Y`Y`Y`Y`Y`Y`Y`Y`b`Ham.L`E`E`E`E.L`E#1.w.L.L.L`E.L.L#1aQ`K#7.z`Y`Y`Y`Y`Y`Y#7`Y`Y`Y`Y`Y",
"`Y`Y`Y`Y`Y`Y#7`Y`Y#7`Y.z`bat#1`E`E`E.L.L`c.h#m.f`Z.h`m.w.L`E`E.L.L`q`K`.`Y`Y`Y`Y`Y`Y`Y`Y`Y`Y#7`Y",
"`Y`Y`Y`Y`Y`Y`Y`Y`Y`Y.z`baF#1`E`E`E`E#A.x#P`Q.8#2`Q`4ae#Wam.L.L`E.L.L`p`K#7`Y`Y`Y`Y`Y`Y`Y`Y`Y`Y#7",
"`Y`Y`Y`Y#7`Y`Y`Y`Y.zaxat.e`E`E`E.w#O`y#y.8.8#2#w#6`4.8#da6aW#A.L`E`E.L`2`j#7`Y`Y`Y`Y`Y`Y#7`Y`Y`Y",
"`Y`Y`Y`Y`Y`Y`Y#7.z`R.v#A`E`E`E.e.ya6#IaX#d.M.I#KaX#d.M#yaU`D.1am.L`E`E`Eai.T.z`Y`Y`Y`Y`Y`Y`Y#7`Y",
"`Y`Y`Y`Y#7#7`Y`Y`.`K#D.L`E.w`Eam.m#p#4#K#j#Q#K.IaX#j#jaU#4#6#h.y.L.w`E`E#1at#s.z`Y#7`Y`Y`Y`Y`Y`Y",
"`Y`Y`Y`Y`Y`Y`Y`Y`j`2`E.w`E`E`E.w#m`4#6#KaUaq`y#p#waXaXaU#w#hazam.L.w`E.w`E`m`K.N`Y`Y`Y`Y`Y#7`Y`Y",
"`Y`Y`Y`Y`Y#7.z#sat.w`E.w.w`E.w`E.h.K#h#U#K`y#..8#p`Daq`y#p.8#W`E`E`E.w`E`E`E`q`K`Y`Y`Y`Y`Y`Y#7`Y",
"`Y`Y`Y#7`Y.z`.`K`f`E.w.w.w.w`E`E`cao.8#p`D#U.6.8.8#F`Da0.8a5#D`E.w.w`E.w.w.w.wat`b.z`Y`Y`Y`Y`Y`Y",
"`Y`Y`Y`Y#7.z`j.U.w.w.w.w.w.w.w.w`E.xaz#h`8.1.mafa5`t.jal`4#m#1`E.w.w.w.w.w.w`E.h`K`..z#7`Y`Y#7`Y",
"`Y`Y`Y`Y.z`R.v`B.w.e.e.w.e.w.w`B.caQ.rawalafafakakak`t.gaNat`aa2.w.e.e.w.e.w.w.w`u`j`Y.z#7`Y`Y`Y",
"`Y`Y#7`Y`Y`j`2.wa2.ea2.ea2ac`2at.1ae.8.8.8.8.8.8.8.8.8.8`4aeawaF`2aca2a2a2.e.e.e`m`K.N.z`Y`Y#7`Y",
"`Y`Y`Y`Y.N.vaca2a2`Bacas`q`l#``P.8.Mae#`.1a7`0`F`0aN.1#`a5.M.8`P#lat.iasasas`B.e.e`T.T.z#7`Y`Y#7",
"`Y`Y`Y`Y.T`ua2`BasasaA`uaE#h.8a5`U`K```````````````````````K`kaf`4.KaE`l#OaAas`B.e.x`K#7`Y#7`Y`Y",
"#7`Y`Y#7`K.c`Bas`f.c.X.g`P`t.v``````.j`H.n.n.n.n.n`7.n.n`H``````.v#l`i#i.n.i.caAacac`H`R.z`Y#7`Y",
"`Y#7.z.N.v`f`f.c`eatal.s`F````.j.n`d`x.5.5aBaBaB.5.5`x`x`x`7.j```````K#i`t`Hai`2.c#Aai`b.z#7`Y`Y",
"`Y`Y.zaxat`f.c.i.n.g#``````H.q.5`x.H`N#S.0.#.#.#.0.4.0a8.Q`7````````````a7#``FaQ`2`f.i`j`Y`Y#7`Y",
"`Y`Y.z#s`l.x.i`r`k.a``.j.q.5.X`daZajaK.k.C.V`O.C`OaJ.V`A#M`````````K``````.ra7`Hai`q.i`j`Y`Y`Y`Y",
"`Y.z.z#s`H`qat.jab```r.5aO.5`H```rav`6a3`O.V`1aK`O.V.O`OaF````aba`#`.p```F``.v.v`H`uai`j#7`Y`Y`Y",
".N`Y.z`R.j`k`H````.j.j`7`r.j``````aW`6`6`6`O`6.P`6`O`O`W````.v#i`za4.DabaG..`r``.jaQat`j`Y#7`Y`R",
"#T#7.z`.`Kat`F``.n.n`r``````````````.``o`6`X`X`6`1.O.Vat````a``i.d.d`P`G.v.Q.H`r.j`l`r`R`Y`Y.N`U",
".y#s.z`Y.T`H.v.naO`N..``ab.a.ba7````aF`6`o.W#X`o#X`I.x````a7`i.6.8.8`4ah.r#5aO.5```7.v#7`Y`Y.T.Y",
".WaF`..z#7`K`r`x#Ha8.Q.r`z.d.d`ia7`````S.Pa#a#`o.x.v`F```Kah`4.8.8.8.8`i#TagaO.l`d.j.N`Y.zaxa.`6",
"`6#W.T.z`Y`0au.q#H.H`NaN.d`4.8`4.Kab`````H``#W`1.```````#`.8.8.8.8.8.8.saN.Q.H#H.H.q.N.z#7`0`wa3",
"`6.PaH.N`....F.u`N.qaRaF.d.8.8.8.8.s.v````.j`X.0`O..``a7`P.8#`.d.8.8.8.D.taZ.F.Q`7.laI.z#s`I`6aK",
"`5`6`W`jar.FaO.j.5`xaR`Hah.8.8.8`4.8az.r``.va#ataWatab.K.8.8.g`Q.8.8.6.b.t.q`N.n`r.A`l#s`T`1.P`e",
"`e.P`1...v.F.uaZ.#`W.c`7.r`i.8.8.8.8.8`Paw```raWaR``a7`4.8.8.8.8.8`4a```aR.0.0`e`r.F.H``#M.P`W.n",
"`H.ya3#X`r.q.n.#av`X`6#B.R.j.1afaz#h.K.K`k..`gan#f#a.uaf`4#haz`t.g.t`laoaJ`O.O.4aZ`d.HataJa1`laR",
".H.j.y.V.X.j`e.Ca3`6`o`o`o#Xay.R.Raiaiat`7#f.o#G.oap#a.jaEaEai#t#W.Y`o`o`6`6.P`O.0`7`r`ea3.7`raT",
"aOaZ``aH`l.j.#`1a3`w.Y`o`6`o`o`o#Ba##W.R#Sap#G#3#Gan#E`7aEa#.J`o`o`o`6`6`wao`6aJ.V.B``.y.7.j.X#H",
"`N.O`e``````.7a3`6.y`H.P`6.P`6`M.R#F#5.uaV.o#8#3.oan#E#c`H#r#5aZ.P`6`6`6.f``.`.PaJai.j.j``aZa8.B",
"aR.7aY`H````.j#X#X````.J.P.P.W.R###3.o.HaVap#8#3#Gan#E#L`n#q#q.Eay.PaJ.W.R```H`May```````l`A.HaT",
"`C.X.S`e```````H`H````.Rav.k.y#o#u`V`V#e#b#q#G#3.oan#E#e#u`V#u#e`7.k#M#W.j````.v`````````J`J.H.O",
"aj.q.#.#`r``````````````#W`WaZaL.Z#0#0#0#b#f.o#G.o#f`V#b#0#0#e`yaG`e.J`v``````````````.n.S#HaR.k",
"`W.H.B`A`7`7`````````````Fay```r`L#n#z`3#0#E#fap#f#E#u#0.Z#z#N`8``.R#.````.j``````.j`7...S.H.c#M",
"#`aZ`Iav`d.Q.j```Ka``v``````````.j.u#R#n#J#u#E#E#E`V#u.ZaLaG`r```````````K`G.p````aQ`x.U.S.Q`I.1",
".3`v.O.S.n.GaR.v#Vah#i````````````````#R.Z#0#u`V`V#u#e`#.j``````````````#V#g`G.vaHa8.H`u.S.Ga#ad",
".3`S`O.S.qaR.B`2.v`z#x`0````aN#T``.j.a`8#n`3#0#b#b#eaS#RaN.v```U.r``````#C#garaW.0`C.X.Q`1.BaE.d",
".2ay.V.VaR`xaT`W`F.bah#```.a.s#xa7a`.s`vaL#z`3`3`3`3#n`8af#Z.b.s#x`U``.aahad`K.J.4`h.n`I`1.kaiad",
"#Y.y.V.V.0`7`J.kaZ```z`z.b#x`P.6ah.m.K#iaGaL#n#z#n#N`r.1.s.m.s`4`P.Kaw`zaha7.v.W`J.0.n.#`1aJa##Y",
"`R`e`1.C`A`7`Jav`W``ab#Vah.8.8.8.d.K.M.s#i.t`r#R`r`8#V.m#haz`i.8.8.8`i#C.a``aia1ajaT`7.k.V.V`e`R",
"`.at.#.C`A`7.G.##M.j````aN.m.6.8#h.d.8.Maz#Ca`#T#V.Daz.6.8`P#h.8.8#h.b`K````ao`O`J.7.X.S.C.Oat`.",
".zax`r`xaQ.j`e.k.y`r`WaP.j``.v`U.1#`#h.M.6.s.D.aah.K`P.M`P`tawawaN`K````.yaZ.7.0.0`7`H#MaT.nax`Y",
".z`Y.N.T``ayaJ.VaT.J`1.S.X``````````.j`Kabab`8`K`F`8.r.v.j````````````aHaJ`1.B.0`6aP`H.jaI.N.z`Y",
"`Y#7.zax`I.P.VaT.O`6.C.4.j````````````````````````````````````````````.vavaJ.P.0`W`6aK`0`.`Y#7`Y",
".z.z.N#5aJ`1.4#M`6aJaY`7aiai`````````````````````````````````````````H`7..`O.P.P.Gav`o.`#s`.#7`Y",
"`R#7`0`X`6.k.B`6a3.C`xat.P`5.j``````````````````````````````````````#MaJ...QaJ`6.W.G.W`6#W#s#7`Y",
".y`K#X`6aJ.BaK`6aJ`C.naP`1.0`r````````````````````````````````````.j.O`1aJ.q.0.P`6av.G.P`6`T.T#l",
".J`e`6.P.#.0`6`1.O`d.J.P.CaR````````````````````````````````````````.GaJa3`M.5ava3`o.#.#`o`M.X`A",
".7.W`6a3`X`1.P.V`NaZ`6aJ.4.j`````````````````````````````````````````H.O.P`6`W`N`1`6`6.P.P`o#X`e",
"`W.P.P.P.P`6.P`O.Q`w.P.SaH```````r`L`#aBaL``````````.uaB`#.5.u````````...V`1.PaK`1`6.P`6.PaJ.P#W",
".P.P`1`O.P`1.P.P.P.Pa1.G.j```````#aC#J#JaC`#`r````.q`s#Jaaaa#z.j``````.j.B`1.P`6`6`1a1.P.Pa1aJ.P",
"`1.PaJa1.P.CaJ.P.P.Pav`7.v````.u`s`saCaC#J#v#z```d#JaaaCaaaSaC.5`````0#T.X.V`1.P`6aJ.kaJ`6.VaJ.P",
".P.P.P.PaJ.C`1`1a1`1#M.taz`t`K`d`saS#v#Jaa#Jaa`daDaa#v#JaaaSaDaLab.m.K#C.n.ka1.C`1.Pa1a1`6.PaJ.P",
".P.P`1.P.VaJ.PaJaYaJ.0`v.d.8a4.tayag#Laa#v#vaa`#aC#v#J#v.E#5`SaEaf.8.d`taFava1`AaJ`6.Pa1.P`6.P`1",
".P.Pa3.PaJ.P.P.S.k.P`W`8.K`4af.d.8`Paf.t.q`#.5.u`L#n.5.t#`.M`4.Kaf.8.da`.t.k.P.k.k.P`6.P`1.P.P.P",
"`6.P.P.P.P.PaJ.kaJ.P.k`r#`.8#`.M.8.8.d.D.K.Kaz`t.K`iaz`t.K.8.8.da`.6.s.t`8.k`1aJ.Sa1`6.P.P`6.P.P",
".P.Pa3.P.P.P.V.V.P.P.S.X.tafaw#h.8.8.m#h.8.8.8.K.8.8.8.Maz.8.M.d`G.saE.7.X.0aJaJaJ.CaJ`6.P.P`6.P",
".P`6.P`6`6.P`1.P`1aJaY`7.`#W.taf.8.8a5`P.8.8.8az.8.8.8`Paz.8.8a4aN#t#X`1`x`x.kaJ`1aJaJ.P.P.P.P`6",
".P.P`6.P.P.P.P`1aJa1.0.u`I.P.`aW#.ae.a.K.8`4.M#`#h.M.8#h#`.KalaE.x.P`6.4a8`7aM.SaJaJaJaJ.P.P.P.P",
".P.P.P.P.P.P`1aJaJaY.Q#R.0.#.P`6`M#M#t`Say`S`S.taEaya.ayaE.y#k`6`oaJ.0ajaY`7`7.Aaj.ka1a1aJ.P`1.P",
".P.P.P.PaJaJaJa1.OaM`7...C.O.0.k`6`o`o`6.P`w`1`1`1`waJa3`6`o`oaJ`W`C.Oa1.S.G```7#H`h.OaY.ka1a1aJ",
".VaJaJa1.C`5aY.4aM.q``.Q.S`1.C`JaT.#av`O`wa3`6`6`6`6a3.V`Xav.#aT.4a1`1.VaY`C.j``aG.5`NaM.4.#.O#X",
"`e.7ajaYaj.4aM#H`x.j```x.4aJa3`6aJaK`O`O.C.k.#.BaT.#.k.C.V`X`O`1`6a3.V.S.B`7````````.j`7`xagaHaE",
".Kalat`x.GaDaR`7``````.j.QaYa1`1`6a3.VaK.#`I.B`I`I.B.0.#av`O`1a3`1aJ.C`J`7````````````````.jaw#h",
".6`4.d.1`r.n.j`````r````.u#SaYa1aJ`1`X`X`1.P`o`6`o`6`6`1`X.V.V`1.V.Caj.Q.j```8#R`8.j``````.a.d#h",
".K.K#h.K.1`````````r`8`````L`h.CaJ`6`6`6`6`6a3a3`1a3`6`6`o`6`6a3aJaY#S`r``aG#RaGaG`r````.vafak.m",
"`U`v`v`U`v```K``.j.j`8.j.j.j`xaR`e.7.B.y.7a#`uaHaQaRa#.7.7.y.7.G.G#c`7.j.j`raG`8.j``.j``.vaN.raN"
};
