/* XPM */
static char *w9_xpm[] = {
/* width height num_colors chars_per_pixel */
"    48    73      256            2",
/* colors */
"`` c #050305",
"`. c #08887e",
"`# c #90164a",
"`a c #a98712",
"`b c #094849",
"`c c #dcc914",
"`d c #480a17",
"`e c #c69619",
"`f c #894e2e",
"`g c #e08884",
"`h c #042731",
"`i c #c7513f",
"`j c #482820",
"`k c #a6c4d4",
"`l c #5b4515",
"`m c #94568c",
"`n c #280b11",
"`o c #cda512",
"`p c #87671c",
"`q c #44625c",
"`r c #742884",
"`s c #c72a71",
"`t c #672822",
"`u c #e4c284",
"`v c #8b8993",
"`w c #8a3221",
"`x c #d4a678",
"`y c #fce59a",
"`z c #464b5f",
"`A c #97a6a8",
"`B c #e88a60",
"`C c #09b09d",
"`D c #281713",
"`E c #09171c",
"`F c #272728",
"`G c #af6d3c",
"`H c #e9a97a",
"`I c #a8523c",
"`J c #e4aa24",
"`K c #c86d4e",
"`L c #fbe709",
"`M c #681136",
"`N c #68372e",
"`O c #51899f",
"`P c #96309c",
"`Q c #664713",
"`R c #faa9c3",
"`S c #47320f",
"`T c #d2c9da",
"`U c #dc6eb4",
"`V c #ecb87f",
"`W c #313440",
"`X c #a94134",
"`Y c #aaa9ab",
"`Z c #c8875b",
"`0 c #17070a",
"`1 c #25172c",
"`2 c #76590c",
"`3 c #eaa66a",
"`4 c #4d0c4b",
"`5 c #c89461",
"`6 c #04a18e",
"`7 c #056761",
"`8 c #925140",
".` c #8d4330",
".. c #dee7e7",
".# c #a86e51",
".a c #881f82",
".b c #fac57a",
".c c #496777",
".d c #ce7a4d",
".e c #866c56",
".f c #a78d81",
".g c #300a34",
".h c #fcc889",
".i c #381715",
".j c #2a302e",
".k c #592822",
".l c #171616",
".m c #e99864",
".n c #79382c",
".o c #694738",
".p c #686e76",
".q c #fcd791",
".r c #68485c",
".s c #b07a57",
".t c #a85c3f",
".u c #f8b47b",
".v c #f3b569",
".w c #702a40",
".x c #b69d21",
".y c #471919",
".z c #782724",
".A c #b4b59c",
".B c #063a3f",
".C c #d8875b",
".D c #f8fbfa",
".E c #f9d90a",
".F c #8992a4",
".G c #fcf50b",
".H c #957955",
".I c #370c12",
".J c #382618",
".K c #1a0b22",
".L c #875d46",
".M c #ac2371",
".N c #f69a66",
".O c #581a1e",
".P c #9c8454",
".Q c #d4a264",
".R c #08a795",
".S c #764736",
".T c #bdc7ce",
".U c #651767",
".V c #b86a4c",
".W c #191729",
".X c #c93884",
".Y c #6a83a0",
".Z c #48362f",
".0 c #f7a969",
".1 c #8f404a",
".2 c #f9bc7e",
".3 c #394744",
".4 c #d0b112",
".5 c #f6a977",
".6 c #306660",
".7 c #de7d4e",
".8 c #0a0c12",
"#` c #495974",
"#. c #44aeac",
"## c #907876",
"#a c #f988b4",
"#b c #56d1d2",
"#c c #a4666c",
"#d c #cc4e7c",
"#e c #88261f",
"#f c #7c6414",
"#g c #ec8a7c",
"#h c #d4327f",
"#i c #bc4230",
"#j c #fcc7d8",
"#k c #74c2dc",
"#l c #c4b6c0",
"#m c #ac66ac",
"#n c #725a53",
"#o c #7a96ae",
"#p c #ac2e88",
"#q c #94b4c6",
"#r c #b89a78",
"#s c #245e4c",
"#t c #6c385c",
"#u c #e878a2",
"#v c #507688",
"#w c #b48560",
"#x c #899699",
"#y c #d0d8dd",
"#z c #08766f",
"#A c #248a88",
"#B c #cc9e74",
"#C c #4c9cb8",
"#D c #fb99b3",
"#E c #8c608c",
"#F c #b88e22",
"#G c #942058",
"#H c #c83c70",
"#I c #e05c9e",
"#J c #bc32cc",
"#K c #f8b9cc",
"#L c #095852",
"#M c #875e14",
"#N c #9c7a19",
"#O c #a97c1f",
"#P c #88a7d2",
"#Q c #ac92bc",
"#R c #ac1a58",
"#S c #a627a6",
"#T c #89229f",
"#U c #6f7b84",
"#V c #a89eb8",
"#W c #c2d4de",
"#X c #f5ca15",
"#Y c #b07eb4",
"#Z c #556799",
"#0 c #a7b6c0",
"#1 c #947eac",
"#2 c #7c3a88",
"#3 c #f67da6",
"#4 c #6d1e21",
"#5 c #363d4e",
"#6 c #55453c",
"#7 c #8d3938",
"#8 c #444e84",
"a` c #786c5c",
"a. c #6ccad4",
"a# c #94d4e0",
"aa c #fcd578",
"ab c #de4589",
"ac c #b04460",
"ad c #edeceb",
"ae c #795681",
"af c #943f8f",
"ag c #4d144b",
"ah c #869db7",
"ai c #b47e6c",
"aj c #761a68",
"ak c #798ba1",
"al c #e8bb16",
"am c #b49050",
"an c #ccc6bc",
"ao c #7b573f",
"ap c #0b9285",
"aq c #996e21",
"ar c #b6a6b4",
"as c #d89760",
"at c #996c51",
"au c #57585f",
"av c #58b4cc",
"aw c #979991",
"ax c #dfdce5",
"ay c #b85e48",
"az c #bcaa14",
"aA c #dbb37e",
"aB c #cd7963",
"aC c #a78729",
"aD c #99512d",
"aE c #1a242d",
"aF c #a84a70",
"aG c #b6533a",
"aH c #d6704c",
"aI c #7c4224",
"aJ c #18665c",
"aK c #9c2284",
"aL c #5b6673",
"aM c #7c6e6c",
"aN c #1a3539",
"aO c #3c5664",
"aP c #f49ad8",
"aQ c #97a7c4",
"aR c #3a3125",
"aS c #975e4a",
"aT c #f4d7e7",
"aU c #a72fa7",
"aV c #584850",
"aW c #f88868",
"aX c #573515",
"aY c #f06ca3",
"aZ c #381e24",
"a0 c #bc9274",
"a1 c #59362d",
"a2 c #e24f92",
"a3 c #97269e",
"a4 c #b6bbc0",
"a5 c #989cac",
"a6 c #36465c",
"a7 c #c46244",
"a8 c #fc8aa4",
/* pixels */
"`6`6`6`6`6`6`6`6`6`6`6`6`6`6`6`6`6`6`6`6.R.R.Rapapap`6`6.R.R`6`6`6`6`6`6`6`6`6`6`6`6`6`6`6`6`6`6",
"`6`6`6`6`6`6`6`6`6`6`6`6`6`6`6`6ap`6.Rap`7.B`h`h`E`E`E`h.B`7ap.R.R`6`6`6`6`6`6`6`6`6`6`6`6`6`6`6",
"`6`6`6`6`6`6`6`6`6`6`6`6`6`6`6`6`C`..B`E.J`2`a`o.4.4`o`a`2.i.8.B#z`C`6`6`6`6`6`6`6`6`6`6`6`6`6`6",
"`6`6`6`6`6`6`6`6`6`6`6`6`6`6`6.R#L.8`l`o`L.G.G.G.G`L.G.G.G`Laz`l```b`6.R`6`6`6`6`6`6`6`6`6`6`6`6",
"`6`6`6`6`6`6`6`6`6`6`6`6`6`6`6`h.Jaz.G.G`L`L`L.G`L.G.G`L`L`L.G.Gaz.J`hap.R`6`6`6`6`6`6`6`6`6`6`6",
"`6`6`6`6`6`6ap`6`6`6`6ap`6`6`h`Q`L.G`L.E.G.G.Eaz.x.x.4.E.G.G`L`L.G`L`Q`hap`6`6ap`6`6`6`6`6`6`6`6",
"`6`6`6`6`6`6`6`6`6`6`6.R`6`E#f`L`L`L.G.G`c#Faw#l`T#y#l.faC`c.G.G`L.G.G#f`Eap.R`6`6`6`6`6`6`6`6`6",
"`6`6`6`6`6`6`6`6`6ap`6`6`h`2`L`L`L.G.E#N.rax.D.D#Y#m.D.D`T#2aq.E.G`L`L.G`2`h`6`6`6`6`6`6`6`6`6`6",
"`6`6`6`6`6`6`6ap`6`6`6`h`Q.E`L`L`L.4a1a3#Tar.D#la3aK#Y.D#la3#TaZ`o`L`L`L.G`Q.B.R`6`6`6`6`6`6`6`6",
"`6`6`6`6`6`6`6`6`6`6`b`S.E`L.E`L.E.P#Q#T#J`P..`m#SaUaf`T`P#S#T#1`mal.G.E`L.EaR`b.R`6`6`6`6`6`6`6",
"`6`6`6`6`6`6`6ap`C`7`Dal.E`L`L`L.GaC..#E#TaUaf#S`P`P#Saf#S#Tae.DaC#X`L`L`L`L`c.l`7.Rap`6`6`6`6`6",
"`6`6`6`6`6`6`6.Rap`E`a`L.E`L.E`L.G.4`Yad`r#S#Taj#Varaj`P#p#t..a4az`L`L.E`L`L`L`a`Eap.R`6`6`6`6`6",
"`6`6`6`6`6`6`6`6`h`Q`L.E.E.E`L.E`L`L.H.D`Y.U.Uae.D.D#E#Gaj#1.D.P#X`L.E.E`L.E`L`L`l.B.R`6`6`6`6`6",
"`6`6`6`6`6ap`C`7`Dal.E.E.E.E.E.E.E`L.xar.Dae`4`T.D.Dax.U.k.Dan`e.E.E.E.E.E.E.E`L.4.l#z`6`6`6`6ap",
"`6`6`6`6`6`6`6`Eaq.E.E.E.E.E.E.E.E`L.4.oak#6#5.p.p.p#U`z#5.F#6.x.E.E.E.E.E.E.E.E.E#f`h`6`6`6ap`6",
"`6`6`6`6`6.R#L.J#X#X#X#X#X#X#X#X`o`2`Sau`v.Tadad.Dad.Dadax#xaL`j`l`aal#X#X#X#X#X.Eal`D#z.R`6`6`6",
"`6`6.R`6`6ap`E#N#Xalalalalal`aaX.Z`v...D.Dad#ya4.A`A#0anax.D.D.D#0.r`Saq`Jalalalal#X`p`h`6`6ap`6",
"`6`6`6`6.R`7.J.4alal`o`J`a`Q`j`Y.D.Da4a`#5.l.8``````````.8`Faua5...Dan.ZaX#O`e`e`Jal.4.l#z.R`6`6",
"`6`6`6`6.R`h`2al`J`o#Faq.JaLad..#U`F```````````````0````````````.8.3#0..`v.y`2`a`e`oal`Q`b`C`6`6",
"`6`6`6.R`.`E#F`J`e#O#M.i#x..aL```````0.I.y.k.O`t#4.O.w.O.k.O.i`n``````aE`A`A.J`Q#O#O`Jaq`E`6`6`6",
"`..R`6.R#z`1.x#F`p`Q`Faw#x.8``.8.i.O`t.w.z#e.z`w.z.z.z.z.z.z#4.z`t.y`n`````q#o.JaX#M`a#O.l`..R`6",
"aN`6`6.R`7`F#O`p`l`D#U`z```0.i.O.z`w`w`X.t.C`3`3.2`V`3.m.m.Cay`X#7#e`t.y`D``aEaL`DaX#M#N.l`..R`6",
"#6#z`C.R`7`Daq`N`D#5`F````.y`X`XaGaH.m.vaa.baa.h.b.h.b.q.Qas.2.N`Z.daG.1aZ````.l.j`0`Q`p`D#z`C`6",
".s.B.R`C#z`0`l.J``.8```````0aS.2.b.2.v.v.m`G`G.h`5`3aa`Z.t`Z.N.Q.h.q.b.o````````.8`0`S`l`E`.`C`6",
".2.Z`.`C`.`EaZ`D```0.i````````.H`y`y`uas.2.2aA#w.v.haAaSaa.h`3.v`y.b#6```````0.i``.8.J`j`E`6.R`6",
".q.s.B`C`6#L`0.l`0.k.z`D`````````NaA`yaa`u.q`y.Lat`yat.#`yaa.v.qaAaR```````E`j#4.O``.i`0#L`C.R#z",
".h`u`W`.`6ap`h``#4`waD`Na1````````.l.LaA`u.2aA`D.e`yao.J.Q`5amat.l```````Wa`.o`w#i.I``aNap.R`..3",
"`V.q.#.B.R`6`b`d`w`w.t.``8`W`E`````````0aR.J`0``#Baa#w`````n`0````````a6.c.HaD.naG#4.I#s`C`6.Bam",
"`G.q.h.Z`.`..k#e.z`w.t#7#4##`kaO.8````````````#6.q.m.vaZ``````````aE.Y#WaL#6.t.`aG`d#eaN.R#z`Q.q",
".n`H`y.s.BaJ#4.z.O`XaXay`daw.Dad#W.F`z.l``````.H`ZaX`Z`f````.lau`Aad.D.D#0aR.n`w.k`0#i.O`7aNaA.q",
"`tat.h.h.Z```w#e`0.i.k`f`0`v.D.D.T`A`k#y`Y#5.l.JaX.ZaRaZ.l.F..ax.T.A#y.Dak`DayaI`j`n`w`w``ao.q.v",
"aG.O`H.q`5`0`w.O.i`G`Zas.#.J`Aaw.e#n#naManan.l.k#c#ca1```vax.A.s.La`.S#n`S`5.v`Z`G.z.i`w`0.Q.haS",
"aH.y.o.h.2aI.I`D.t.m.0.h`y#BaR`D`FaRaV#n.Z#6.k`g`R`Ra8.1.Ja``SaRaR`j.Jao`u`y`yaa`3.d.i.OaX.2.s``",
"aH#7.i#6.u.C``.k.N.b.q.q`y`y.q#r.L#c.o.oa``n#u`R#K#K#D#u.kaR#6#n#r#B`u`y`yaaaA.q.q.vaS``aI.#`0`j",
".d`w`GaZ`D.L`0`f.v.b.q#r#r`y`y`y`yai#t`NaZ`N#a#K#j#j#Da8.1`D.S.1.e.q`y.q.qaA.J`x.h.b`G``.l``a1.V",
"`B.naS.d```````n.maa.2.l#6.q.q.qat#t`RaP#t#7#a#jaT#j#Da8aF.I#3aPaFao.q.q.ha```.Z.q#B`D````.8.d`X",
".C.`aI.m.k```````j`H.o``.la0.u`HaZ`UaP#a#dac#3#KaT#j#D#3#HaF#a#3aY`M#w.Q`x`F````#n.J``````.o`B`t",
".C.V`tasaD`0```````D``````.oaBatag`s#I#Iabab#u`R#j#K#DaYababaYa2#hajaXat.e`````````````````G`K.O",
"##`Z`t.C`I.i.i````````````.lat.o.K`M`#.X#h#haYa8`R`Ra8#uab.X`s#R#G.K`S.f`D````````````.y.y.C.t`N",
"`O.e`w`Z`G.k.``0``````.l````.jaE``.K.O`M`#`sa2#3#D#D#uaYab#R`#`M.g````.J````aE```````D.`.y.m`IaD",
"#k#v.k.7.d.i.t.n````#5ahaE```````````0``.I#RabaYaY#uaYab.X`M.K````````````aEahaO```DaD`X.y.m.t`N",
"a##C#6.m.C.i`I.d.o`Eak`k.p```````E````.l.l`#`sab#I#I#I#H#G`n````.l.l``````#U#P`O`F.saG.n.O.0`Z.j",
"a.#C.#.v.m.yaD.d`5`0#``kaQ.8```W#0#`.lahaL`d#R`s.X.X.X#p`MaR`z.8#U`Y`F```W#q#kaNao`B`KaX`N.u.u.L",
"#.`O.Q.v.0.kaI`K`3.SaE`A#Wa6a6`kad.T#o.T`Y`1`M.M.M.M.M#G`naL.T`v#yaxa5.W#oa#`q.8as.CaH.yaD.u.u`Z",
"av#o.m.v.v.n`t.7`H.#aR#5`k#q#W...D...Tad.T#U`n`4`M`Mag.I`Wa4ax.Tadadax#0`k.caEa1.2.d.d.I.C.0.u`f",
"#b#oaIas.0aD.i.7`3`Z#n.faEa6#U#x.T..#W.Dada4.Y.3.W.W`F`z#0adad#W.D.Da4#`aNa6#U.e.2.d.V.i.m.N.V`D",
"#b#.aV`t`t.i`0`K.m`x.e#V`j.S#w`Z#w#nau...D..#0#q#UaLaQ.T....a4ak`v.3aoaS`n#U##`5.v.7`f```t.k.l#L",
"#b#b`A#wat`S``ay.m`H.Sat`u.q.h.u.2.S``.l`F`FaR.jaE.l`W`W`F.W``````.k.2aa.2at`jaA`3`B`j``a1.Z#A`C",
"#A#baA.baa`H.i.k`Iat`x`y.h.5`g.V.`.y`n`D```````````````````D.i````a1.7.2aaaa`Z`f.V.C`0.e.q.C.6`.",
".6aw`fas.0.0at`f`5.h.q.h.may`t`n`0.k`X#7#4.kaZ``````````a1`V`Vat.y``.y`I.0.b.q`H`f`t`jaI`x`H`DaM",
".A`yaX.L.0.C.2.q.q.h.2`B.``n``.y.z`I.s`g`H.h.5aZ````````.o.N.h.q.2at`D`0.n.m.haa.h`Z.h`V.#.L.o.2",
"`l`e.kaX.m.5.h.b.h.q.b.#.I`n.n#w`V.h.h.h.2.5aB.I``````````.n.C.u.h.qaAao`n.z.maa.q.q.v.h.q.``8.2",
"#s#6aX.n`3.b.b`3.b.h.q.2aBaA.q`yaa.h.5aW`K.S.I`0.K`n`n`D`0``.y.t.5.2.q.q#B`8as`y.q.q.v`3.h`H.`.m",
"`CaJ`n.V.v.h`3.0.h.q.h.q.q.q.h.b.NaB`8`t`n`n.w.1#7#i.1.z.y`````0.n.C.u.h.q.q.q.2.2.q.h.m.b.h.7.C",
"`Cap`j.Q.h.2.0.q.h`3.5.haa.2`3`K#7.I`0`0.I.z`f#7ay#g`waiaB#ca1aZ`0`d`8.C.u.q.q.2.m.b.q.u`H.h.v`3",
"`CaJ`Q.2.b.2.h.h`3`3.h.h.q.2.t`t`Nao#w`x`V.2.2.m.`aB#c.2.h`y.q.h`x.#aI.t`V.q.q.h.m.5.h.h.u.h.b.5",
"`b`W.o.h.b.h.h.u.5.h.h.q.h.h.2`V.q`y`y.h.h.2.0`K.y`D`d`I.C.m.u.h`y`y.q.h.q.q.q.q.b.N.2.q.2.2.h.2",
".A.D#n.s.q.h.h.b.q.h.h.2.h.h.h.q.2.u.m`Ba7`8`t.yat`xat.i`d`t.`.V`3.u.h.h.h.h.b.q.q.2.u.h.h.h.h.h",
".D.Dad.r`5.q.h.q.h.2.u.b.b.h.2`H#g.t`t.O`n.I.n`x.h.h.h.u#c.O.I.y.n`K.N.h.h.h.u.u.q.q.h.h.h.h.h.h",
"ad.D.Dax`N`x.h.h.h.b.h.b.2.u.NaB.n`n```0.y.`.`.n`t`t.w.1.Vay.n`n``.k.V.0.2.h.b.5.2.q.h.h.h.h.h.2",
"a5.D.D.Dan`N.2.h.h.h.h.2.u.maBaI`0```n.y`t.w.``8ataS.L`N.k.y.y`d`n`0.n.d.u.b.h.h.u.b.q.h.h.h.h.h",
"#5ax.D.D.D.f.o.u.u.u.u.N.C`K.n`0```j`X`K.Q.b.q.q.q.qaa.h.2.m`K`X.n`n.y`I`B.u.h.h.b.u.h.q.h.h.2at",
".c#Z.D.D.D.Dae.S.m`B.daB`Ia1`0``.i.``K.0.0as`3.u.2.2.v`3`3.0.NaH`X.i```t`K#g.5.h.2.h.2.h.h`Vaoar",
"#Pa6.F.D.D.D#y.Z`t`8.``t.i```````D.n.7.u.b.2`V.v.5`H.v`H.v.b.0.V`t.i```0#7a7`B.5.2.2.u.2.2.r#l.D",
"#P#o`WaQ...T.Ta5`1`0`0````````````.k.m.2aa.q`y.q.m.baa.q.q.h.vaD`n`0.8```0.naGaH.m`3.5.5.S`Y.D.D",
"#P#P.YaE#UaQ.FahaL````````````````.i.7.u.h.h.q.h.7.u.q.haa.b.0.n```````````0.O#7`Ia7aB.`aM.D.D.D",
"#P#P#o#8aE`z#ZaL`z.8```````````````0a7.N.u.2.2.0aD`H.2.b.2.5.Na1```````````````0.k.n.n.Zax.D.D.D",
"#P#Pak#Z#5.8.8aE`````0````.i.y.I`0``.k`K.7.N.Nay.I.V.0.5.0aW.V`D```0`n`````0`0`````0``aL..ad.D..",
"#P#o#Z#8a6.8``.K.g.g.g.g```N#i#e.O`0``.k#7`I.1aZ``.i`I`K`KaS`j``.i#4#4``.g.g.g.K.K``.8ak#q`k`k#o",
".Y#Z#8#5.8.g`4ag`4`4ag`4.Kao.N.V`X#4`n`````0`````````0.i.i`0``.y.z`i.t.gaj`4.g.g.g.KaE#o.F#P#Pa6",
"#Z#Z#8.W.K.U#T.a.a.a#T#T.gao.u.N.7`i`w.O.I.K`n.i.I`n.K```0`n`t#i`iaWaS`4aKaK.a`4.g.K.K#U.Y#o.p.K",
"a6#8.W``.g.U.U.U.U.U.Uaj`4.kas`ZaBa7`X.z.z.z.z.z`w.z.z`t#4.z`X`Ia7aB#t`4.U.Uaj.U.g.g``.W`z#8.W.8",
"`1.K.W`1`1.W.K.K.K.W`1`1.K.8.g`D.i.y.i.i.i`n`D`n`n.i`D.i.iaZ.i`1.y.g`n.l.K.K.K.g.K.K.W.8.8.K.W`F"
};
